<?xml version="1.0" encoding="utf-8" standalone="no"?>
<!DOCTYPE svg PUBLIC "-//W3C//DTD SVG 1.1//EN"
  "http://www.w3.org/Graphics/SVG/1.1/DTD/svg11.dtd">
<svg xmlns:xlink="http://www.w3.org/1999/xlink" width="704.072567pt" height="415.750246pt" viewBox="0 0 704.072567 415.750246" xmlns="http://www.w3.org/2000/svg" version="1.1">
 <metadata>
  <rdf:RDF xmlns:dc="http://purl.org/dc/elements/1.1/" xmlns:cc="http://creativecommons.org/ns#" xmlns:rdf="http://www.w3.org/1999/02/22-rdf-syntax-ns#">
   <cc:Work>
    <dc:type rdf:resource="http://purl.org/dc/dcmitype/StillImage"/>
    <dc:date>2023-01-07T13:05:30.425441</dc:date>
    <dc:format>image/svg+xml</dc:format>
    <dc:creator>
     <cc:Agent>
      <dc:title>Matplotlib v3.6.2, https://matplotlib.org/</dc:title>
     </cc:Agent>
    </dc:creator>
   </cc:Work>
  </rdf:RDF>
 </metadata>
 <defs>
  <style type="text/css">*{stroke-linejoin: round; stroke-linecap: butt}</style>
 </defs>
 <g id="figure_1">
  <g id="patch_1">
   <path d="M 0 415.750246 
L 704.072567 415.750246 
L 704.072567 0 
L 0 0 
z
" style="fill: #ffffff"/>
  </g>
  <g id="axes_1">
   <g id="patch_2">
    <path d="M 45.808281 366.205246 
L 696.872567 366.205246 
L 696.872567 30.119531 
L 45.808281 30.119531 
z
" style="fill: #ffffff"/>
   </g>
   <g id="matplotlib.axis_1">
    <g id="xtick_1">
     <g id="line2d_1">
      <path d="M 63.544338 366.205246 
L 63.544338 30.119531 
" clip-path="url(#p4092caf5ed)" style="fill: none; stroke: #a9dffc; stroke-linecap: square"/>
     </g>
     <g id="line2d_2">
      <defs>
       <path id="me14d49c33c" d="M 0 0 
L 0 6 
" style="stroke: #07a8ff"/>
      </defs>
      <g>
       <use xlink:href="#me14d49c33c" x="63.544338" y="366.205246" style="fill: #07a8ff; stroke: #07a8ff"/>
      </g>
     </g>
     <g id="text_1">
      <!-- 16 -->
      <g transform="translate(57.983401 386.363058) scale(0.1 -0.1)">
       <defs>
        <path id="ArialMT-31" d="M 2384 0 
L 1822 0 
L 1822 3584 
Q 1619 3391 1289 3197 
Q 959 3003 697 2906 
L 697 3450 
Q 1169 3672 1522 3987 
Q 1875 4303 2022 4600 
L 2384 4600 
L 2384 0 
z
" transform="scale(0.015625)"/>
        <path id="ArialMT-36" d="M 3184 3459 
L 2625 3416 
Q 2550 3747 2413 3897 
Q 2184 4138 1850 4138 
Q 1581 4138 1378 3988 
Q 1113 3794 959 3422 
Q 806 3050 800 2363 
Q 1003 2672 1297 2822 
Q 1591 2972 1913 2972 
Q 2475 2972 2870 2558 
Q 3266 2144 3266 1488 
Q 3266 1056 3080 686 
Q 2894 316 2569 119 
Q 2244 -78 1831 -78 
Q 1128 -78 684 439 
Q 241 956 241 2144 
Q 241 3472 731 4075 
Q 1159 4600 1884 4600 
Q 2425 4600 2770 4297 
Q 3116 3994 3184 3459 
z
M 888 1484 
Q 888 1194 1011 928 
Q 1134 663 1356 523 
Q 1578 384 1822 384 
Q 2178 384 2434 671 
Q 2691 959 2691 1453 
Q 2691 1928 2437 2201 
Q 2184 2475 1800 2475 
Q 1419 2475 1153 2201 
Q 888 1928 888 1484 
z
" transform="scale(0.015625)"/>
       </defs>
       <use xlink:href="#ArialMT-31"/>
       <use xlink:href="#ArialMT-36" x="55.615234"/>
      </g>
     </g>
    </g>
    <g id="xtick_2">
     <g id="line2d_3">
      <path d="M 162.890349 366.205246 
L 162.890349 30.119531 
" clip-path="url(#p4092caf5ed)" style="fill: none; stroke: #a9dffc; stroke-linecap: square"/>
     </g>
     <g id="line2d_4">
      <g>
       <use xlink:href="#me14d49c33c" x="162.890349" y="366.205246" style="fill: #07a8ff; stroke: #07a8ff"/>
      </g>
     </g>
     <g id="text_2">
      <!-- 18 -->
      <g transform="translate(157.329411 386.363058) scale(0.1 -0.1)">
       <defs>
        <path id="ArialMT-38" d="M 1131 2484 
Q 781 2613 612 2850 
Q 444 3088 444 3419 
Q 444 3919 803 4259 
Q 1163 4600 1759 4600 
Q 2359 4600 2725 4251 
Q 3091 3903 3091 3403 
Q 3091 3084 2923 2848 
Q 2756 2613 2416 2484 
Q 2838 2347 3058 2040 
Q 3278 1734 3278 1309 
Q 3278 722 2862 322 
Q 2447 -78 1769 -78 
Q 1091 -78 675 323 
Q 259 725 259 1325 
Q 259 1772 486 2073 
Q 713 2375 1131 2484 
z
M 1019 3438 
Q 1019 3113 1228 2906 
Q 1438 2700 1772 2700 
Q 2097 2700 2305 2904 
Q 2513 3109 2513 3406 
Q 2513 3716 2298 3927 
Q 2084 4138 1766 4138 
Q 1444 4138 1231 3931 
Q 1019 3725 1019 3438 
z
M 838 1322 
Q 838 1081 952 856 
Q 1066 631 1291 507 
Q 1516 384 1775 384 
Q 2178 384 2440 643 
Q 2703 903 2703 1303 
Q 2703 1709 2433 1975 
Q 2163 2241 1756 2241 
Q 1359 2241 1098 1978 
Q 838 1716 838 1322 
z
" transform="scale(0.015625)"/>
       </defs>
       <use xlink:href="#ArialMT-31"/>
       <use xlink:href="#ArialMT-38" x="55.615234"/>
      </g>
     </g>
    </g>
    <g id="xtick_3">
     <g id="line2d_5">
      <path d="M 262.236359 366.205246 
L 262.236359 30.119531 
" clip-path="url(#p4092caf5ed)" style="fill: none; stroke: #a9dffc; stroke-linecap: square"/>
     </g>
     <g id="line2d_6">
      <g>
       <use xlink:href="#me14d49c33c" x="262.236359" y="366.205246" style="fill: #07a8ff; stroke: #07a8ff"/>
      </g>
     </g>
     <g id="text_3">
      <!-- 20 -->
      <g transform="translate(256.675421 386.363058) scale(0.1 -0.1)">
       <defs>
        <path id="ArialMT-32" d="M 3222 541 
L 3222 0 
L 194 0 
Q 188 203 259 391 
Q 375 700 629 1000 
Q 884 1300 1366 1694 
Q 2113 2306 2375 2664 
Q 2638 3022 2638 3341 
Q 2638 3675 2398 3904 
Q 2159 4134 1775 4134 
Q 1369 4134 1125 3890 
Q 881 3647 878 3216 
L 300 3275 
Q 359 3922 746 4261 
Q 1134 4600 1788 4600 
Q 2447 4600 2831 4234 
Q 3216 3869 3216 3328 
Q 3216 3053 3103 2787 
Q 2991 2522 2730 2228 
Q 2469 1934 1863 1422 
Q 1356 997 1212 845 
Q 1069 694 975 541 
L 3222 541 
z
" transform="scale(0.015625)"/>
        <path id="ArialMT-30" d="M 266 2259 
Q 266 3072 433 3567 
Q 600 4063 929 4331 
Q 1259 4600 1759 4600 
Q 2128 4600 2406 4451 
Q 2684 4303 2865 4023 
Q 3047 3744 3150 3342 
Q 3253 2941 3253 2259 
Q 3253 1453 3087 958 
Q 2922 463 2592 192 
Q 2263 -78 1759 -78 
Q 1097 -78 719 397 
Q 266 969 266 2259 
z
M 844 2259 
Q 844 1131 1108 757 
Q 1372 384 1759 384 
Q 2147 384 2411 759 
Q 2675 1134 2675 2259 
Q 2675 3391 2411 3762 
Q 2147 4134 1753 4134 
Q 1366 4134 1134 3806 
Q 844 3388 844 2259 
z
" transform="scale(0.015625)"/>
       </defs>
       <use xlink:href="#ArialMT-32"/>
       <use xlink:href="#ArialMT-30" x="55.615234"/>
      </g>
     </g>
    </g>
    <g id="xtick_4">
     <g id="line2d_7">
      <path d="M 361.582369 366.205246 
L 361.582369 30.119531 
" clip-path="url(#p4092caf5ed)" style="fill: none; stroke: #a9dffc; stroke-linecap: square"/>
     </g>
     <g id="line2d_8">
      <g>
       <use xlink:href="#me14d49c33c" x="361.582369" y="366.205246" style="fill: #07a8ff; stroke: #07a8ff"/>
      </g>
     </g>
     <g id="text_4">
      <!-- 22 -->
      <g transform="translate(356.021432 386.363058) scale(0.1 -0.1)">
       <use xlink:href="#ArialMT-32"/>
       <use xlink:href="#ArialMT-32" x="55.615234"/>
      </g>
     </g>
    </g>
    <g id="xtick_5">
     <g id="line2d_9">
      <path d="M 460.92838 366.205246 
L 460.92838 30.119531 
" clip-path="url(#p4092caf5ed)" style="fill: none; stroke: #a9dffc; stroke-linecap: square"/>
     </g>
     <g id="line2d_10">
      <g>
       <use xlink:href="#me14d49c33c" x="460.92838" y="366.205246" style="fill: #07a8ff; stroke: #07a8ff"/>
      </g>
     </g>
     <g id="text_5">
      <!-- 24 -->
      <g transform="translate(455.367442 386.363058) scale(0.1 -0.1)">
       <defs>
        <path id="ArialMT-34" d="M 2069 0 
L 2069 1097 
L 81 1097 
L 81 1613 
L 2172 4581 
L 2631 4581 
L 2631 1613 
L 3250 1613 
L 3250 1097 
L 2631 1097 
L 2631 0 
L 2069 0 
z
M 2069 1613 
L 2069 3678 
L 634 1613 
L 2069 1613 
z
" transform="scale(0.015625)"/>
       </defs>
       <use xlink:href="#ArialMT-32"/>
       <use xlink:href="#ArialMT-34" x="55.615234"/>
      </g>
     </g>
    </g>
    <g id="xtick_6">
     <g id="line2d_11">
      <path d="M 560.27439 366.205246 
L 560.27439 30.119531 
" clip-path="url(#p4092caf5ed)" style="fill: none; stroke: #a9dffc; stroke-linecap: square"/>
     </g>
     <g id="line2d_12">
      <g>
       <use xlink:href="#me14d49c33c" x="560.27439" y="366.205246" style="fill: #07a8ff; stroke: #07a8ff"/>
      </g>
     </g>
     <g id="text_6">
      <!-- 26 -->
      <g transform="translate(554.713452 386.363058) scale(0.1 -0.1)">
       <use xlink:href="#ArialMT-32"/>
       <use xlink:href="#ArialMT-36" x="55.615234"/>
      </g>
     </g>
    </g>
    <g id="xtick_7">
     <g id="line2d_13">
      <path d="M 659.6204 366.205246 
L 659.6204 30.119531 
" clip-path="url(#p4092caf5ed)" style="fill: none; stroke: #a9dffc; stroke-linecap: square"/>
     </g>
     <g id="line2d_14">
      <g>
       <use xlink:href="#me14d49c33c" x="659.6204" y="366.205246" style="fill: #07a8ff; stroke: #07a8ff"/>
      </g>
     </g>
     <g id="text_7">
      <!-- 28 -->
      <g transform="translate(654.059463 386.363058) scale(0.1 -0.1)">
       <use xlink:href="#ArialMT-32"/>
       <use xlink:href="#ArialMT-38" x="55.615234"/>
      </g>
     </g>
    </g>
    <g id="xtick_8">
     <g id="line2d_15">
      <defs>
       <path id="m8b88f1a96b" d="M 0 0 
L 0 2 
" style="stroke: #07a8ff"/>
      </defs>
      <g>
       <use xlink:href="#m8b88f1a96b" x="88.380841" y="366.205246" style="fill: #07a8ff; stroke: #07a8ff"/>
      </g>
     </g>
    </g>
    <g id="xtick_9">
     <g id="line2d_16">
      <g>
       <use xlink:href="#m8b88f1a96b" x="113.217343" y="366.205246" style="fill: #07a8ff; stroke: #07a8ff"/>
      </g>
     </g>
    </g>
    <g id="xtick_10">
     <g id="line2d_17">
      <g>
       <use xlink:href="#m8b88f1a96b" x="138.053846" y="366.205246" style="fill: #07a8ff; stroke: #07a8ff"/>
      </g>
     </g>
    </g>
    <g id="xtick_11">
     <g id="line2d_18">
      <g>
       <use xlink:href="#m8b88f1a96b" x="187.726851" y="366.205246" style="fill: #07a8ff; stroke: #07a8ff"/>
      </g>
     </g>
    </g>
    <g id="xtick_12">
     <g id="line2d_19">
      <g>
       <use xlink:href="#m8b88f1a96b" x="212.563354" y="366.205246" style="fill: #07a8ff; stroke: #07a8ff"/>
      </g>
     </g>
    </g>
    <g id="xtick_13">
     <g id="line2d_20">
      <g>
       <use xlink:href="#m8b88f1a96b" x="237.399856" y="366.205246" style="fill: #07a8ff; stroke: #07a8ff"/>
      </g>
     </g>
    </g>
    <g id="xtick_14">
     <g id="line2d_21">
      <g>
       <use xlink:href="#m8b88f1a96b" x="287.072861" y="366.205246" style="fill: #07a8ff; stroke: #07a8ff"/>
      </g>
     </g>
    </g>
    <g id="xtick_15">
     <g id="line2d_22">
      <g>
       <use xlink:href="#m8b88f1a96b" x="311.909364" y="366.205246" style="fill: #07a8ff; stroke: #07a8ff"/>
      </g>
     </g>
    </g>
    <g id="xtick_16">
     <g id="line2d_23">
      <g>
       <use xlink:href="#m8b88f1a96b" x="336.745867" y="366.205246" style="fill: #07a8ff; stroke: #07a8ff"/>
      </g>
     </g>
    </g>
    <g id="xtick_17">
     <g id="line2d_24">
      <g>
       <use xlink:href="#m8b88f1a96b" x="386.418872" y="366.205246" style="fill: #07a8ff; stroke: #07a8ff"/>
      </g>
     </g>
    </g>
    <g id="xtick_18">
     <g id="line2d_25">
      <g>
       <use xlink:href="#m8b88f1a96b" x="411.255374" y="366.205246" style="fill: #07a8ff; stroke: #07a8ff"/>
      </g>
     </g>
    </g>
    <g id="xtick_19">
     <g id="line2d_26">
      <g>
       <use xlink:href="#m8b88f1a96b" x="436.091877" y="366.205246" style="fill: #07a8ff; stroke: #07a8ff"/>
      </g>
     </g>
    </g>
    <g id="xtick_20">
     <g id="line2d_27">
      <g>
       <use xlink:href="#m8b88f1a96b" x="485.764882" y="366.205246" style="fill: #07a8ff; stroke: #07a8ff"/>
      </g>
     </g>
    </g>
    <g id="xtick_21">
     <g id="line2d_28">
      <g>
       <use xlink:href="#m8b88f1a96b" x="510.601385" y="366.205246" style="fill: #07a8ff; stroke: #07a8ff"/>
      </g>
     </g>
    </g>
    <g id="xtick_22">
     <g id="line2d_29">
      <g>
       <use xlink:href="#m8b88f1a96b" x="535.437887" y="366.205246" style="fill: #07a8ff; stroke: #07a8ff"/>
      </g>
     </g>
    </g>
    <g id="xtick_23">
     <g id="line2d_30">
      <g>
       <use xlink:href="#m8b88f1a96b" x="585.110892" y="366.205246" style="fill: #07a8ff; stroke: #07a8ff"/>
      </g>
     </g>
    </g>
    <g id="xtick_24">
     <g id="line2d_31">
      <g>
       <use xlink:href="#m8b88f1a96b" x="609.947395" y="366.205246" style="fill: #07a8ff; stroke: #07a8ff"/>
      </g>
     </g>
    </g>
    <g id="xtick_25">
     <g id="line2d_32">
      <g>
       <use xlink:href="#m8b88f1a96b" x="634.783898" y="366.205246" style="fill: #07a8ff; stroke: #07a8ff"/>
      </g>
     </g>
    </g>
    <g id="xtick_26">
     <g id="line2d_33">
      <g>
       <use xlink:href="#m8b88f1a96b" x="684.456903" y="366.205246" style="fill: #07a8ff; stroke: #07a8ff"/>
      </g>
     </g>
    </g>
    <g id="text_8">
     <!-- Tages-Referenztemperatur / °C -->
     <g style="fill: #262626" transform="translate(281.324565 405.814152) scale(0.13 -0.13)">
      <defs>
       <path id="ArialMT-54" d="M 1659 0 
L 1659 4041 
L 150 4041 
L 150 4581 
L 3781 4581 
L 3781 4041 
L 2266 4041 
L 2266 0 
L 1659 0 
z
" transform="scale(0.015625)"/>
       <path id="ArialMT-61" d="M 2588 409 
Q 2275 144 1986 34 
Q 1697 -75 1366 -75 
Q 819 -75 525 192 
Q 231 459 231 875 
Q 231 1119 342 1320 
Q 453 1522 633 1644 
Q 813 1766 1038 1828 
Q 1203 1872 1538 1913 
Q 2219 1994 2541 2106 
Q 2544 2222 2544 2253 
Q 2544 2597 2384 2738 
Q 2169 2928 1744 2928 
Q 1347 2928 1158 2789 
Q 969 2650 878 2297 
L 328 2372 
Q 403 2725 575 2942 
Q 747 3159 1072 3276 
Q 1397 3394 1825 3394 
Q 2250 3394 2515 3294 
Q 2781 3194 2906 3042 
Q 3031 2891 3081 2659 
Q 3109 2516 3109 2141 
L 3109 1391 
Q 3109 606 3145 398 
Q 3181 191 3288 0 
L 2700 0 
Q 2613 175 2588 409 
z
M 2541 1666 
Q 2234 1541 1622 1453 
Q 1275 1403 1131 1340 
Q 988 1278 909 1158 
Q 831 1038 831 891 
Q 831 666 1001 516 
Q 1172 366 1500 366 
Q 1825 366 2078 508 
Q 2331 650 2450 897 
Q 2541 1088 2541 1459 
L 2541 1666 
z
" transform="scale(0.015625)"/>
       <path id="ArialMT-67" d="M 319 -275 
L 866 -356 
Q 900 -609 1056 -725 
Q 1266 -881 1628 -881 
Q 2019 -881 2231 -725 
Q 2444 -569 2519 -288 
Q 2563 -116 2559 434 
Q 2191 0 1641 0 
Q 956 0 581 494 
Q 206 988 206 1678 
Q 206 2153 378 2554 
Q 550 2956 876 3175 
Q 1203 3394 1644 3394 
Q 2231 3394 2613 2919 
L 2613 3319 
L 3131 3319 
L 3131 450 
Q 3131 -325 2973 -648 
Q 2816 -972 2473 -1159 
Q 2131 -1347 1631 -1347 
Q 1038 -1347 672 -1080 
Q 306 -813 319 -275 
z
M 784 1719 
Q 784 1066 1043 766 
Q 1303 466 1694 466 
Q 2081 466 2343 764 
Q 2606 1063 2606 1700 
Q 2606 2309 2336 2618 
Q 2066 2928 1684 2928 
Q 1309 2928 1046 2623 
Q 784 2319 784 1719 
z
" transform="scale(0.015625)"/>
       <path id="ArialMT-65" d="M 2694 1069 
L 3275 997 
Q 3138 488 2766 206 
Q 2394 -75 1816 -75 
Q 1088 -75 661 373 
Q 234 822 234 1631 
Q 234 2469 665 2931 
Q 1097 3394 1784 3394 
Q 2450 3394 2872 2941 
Q 3294 2488 3294 1666 
Q 3294 1616 3291 1516 
L 816 1516 
Q 847 969 1125 678 
Q 1403 388 1819 388 
Q 2128 388 2347 550 
Q 2566 713 2694 1069 
z
M 847 1978 
L 2700 1978 
Q 2663 2397 2488 2606 
Q 2219 2931 1791 2931 
Q 1403 2931 1139 2672 
Q 875 2413 847 1978 
z
" transform="scale(0.015625)"/>
       <path id="ArialMT-73" d="M 197 991 
L 753 1078 
Q 800 744 1014 566 
Q 1228 388 1613 388 
Q 2000 388 2187 545 
Q 2375 703 2375 916 
Q 2375 1106 2209 1216 
Q 2094 1291 1634 1406 
Q 1016 1563 777 1677 
Q 538 1791 414 1992 
Q 291 2194 291 2438 
Q 291 2659 392 2848 
Q 494 3038 669 3163 
Q 800 3259 1026 3326 
Q 1253 3394 1513 3394 
Q 1903 3394 2198 3281 
Q 2494 3169 2634 2976 
Q 2775 2784 2828 2463 
L 2278 2388 
Q 2241 2644 2061 2787 
Q 1881 2931 1553 2931 
Q 1166 2931 1000 2803 
Q 834 2675 834 2503 
Q 834 2394 903 2306 
Q 972 2216 1119 2156 
Q 1203 2125 1616 2013 
Q 2213 1853 2448 1751 
Q 2684 1650 2818 1456 
Q 2953 1263 2953 975 
Q 2953 694 2789 445 
Q 2625 197 2315 61 
Q 2006 -75 1616 -75 
Q 969 -75 630 194 
Q 291 463 197 991 
z
" transform="scale(0.015625)"/>
       <path id="ArialMT-2d" d="M 203 1375 
L 203 1941 
L 1931 1941 
L 1931 1375 
L 203 1375 
z
" transform="scale(0.015625)"/>
       <path id="ArialMT-52" d="M 503 0 
L 503 4581 
L 2534 4581 
Q 3147 4581 3465 4457 
Q 3784 4334 3975 4021 
Q 4166 3709 4166 3331 
Q 4166 2844 3850 2509 
Q 3534 2175 2875 2084 
Q 3116 1969 3241 1856 
Q 3506 1613 3744 1247 
L 4541 0 
L 3778 0 
L 3172 953 
Q 2906 1366 2734 1584 
Q 2563 1803 2427 1890 
Q 2291 1978 2150 2013 
Q 2047 2034 1813 2034 
L 1109 2034 
L 1109 0 
L 503 0 
z
M 1109 2559 
L 2413 2559 
Q 2828 2559 3062 2645 
Q 3297 2731 3419 2920 
Q 3541 3109 3541 3331 
Q 3541 3656 3305 3865 
Q 3069 4075 2559 4075 
L 1109 4075 
L 1109 2559 
z
" transform="scale(0.015625)"/>
       <path id="ArialMT-66" d="M 556 0 
L 556 2881 
L 59 2881 
L 59 3319 
L 556 3319 
L 556 3672 
Q 556 4006 616 4169 
Q 697 4388 901 4523 
Q 1106 4659 1475 4659 
Q 1713 4659 2000 4603 
L 1916 4113 
Q 1741 4144 1584 4144 
Q 1328 4144 1222 4034 
Q 1116 3925 1116 3625 
L 1116 3319 
L 1763 3319 
L 1763 2881 
L 1116 2881 
L 1116 0 
L 556 0 
z
" transform="scale(0.015625)"/>
       <path id="ArialMT-72" d="M 416 0 
L 416 3319 
L 922 3319 
L 922 2816 
Q 1116 3169 1280 3281 
Q 1444 3394 1641 3394 
Q 1925 3394 2219 3213 
L 2025 2691 
Q 1819 2813 1613 2813 
Q 1428 2813 1281 2702 
Q 1134 2591 1072 2394 
Q 978 2094 978 1738 
L 978 0 
L 416 0 
z
" transform="scale(0.015625)"/>
       <path id="ArialMT-6e" d="M 422 0 
L 422 3319 
L 928 3319 
L 928 2847 
Q 1294 3394 1984 3394 
Q 2284 3394 2536 3286 
Q 2788 3178 2913 3003 
Q 3038 2828 3088 2588 
Q 3119 2431 3119 2041 
L 3119 0 
L 2556 0 
L 2556 2019 
Q 2556 2363 2490 2533 
Q 2425 2703 2258 2804 
Q 2091 2906 1866 2906 
Q 1506 2906 1245 2678 
Q 984 2450 984 1813 
L 984 0 
L 422 0 
z
" transform="scale(0.015625)"/>
       <path id="ArialMT-7a" d="M 125 0 
L 125 456 
L 2238 2881 
Q 1878 2863 1603 2863 
L 250 2863 
L 250 3319 
L 2963 3319 
L 2963 2947 
L 1166 841 
L 819 456 
Q 1197 484 1528 484 
L 3063 484 
L 3063 0 
L 125 0 
z
" transform="scale(0.015625)"/>
       <path id="ArialMT-74" d="M 1650 503 
L 1731 6 
Q 1494 -44 1306 -44 
Q 1000 -44 831 53 
Q 663 150 594 308 
Q 525 466 525 972 
L 525 2881 
L 113 2881 
L 113 3319 
L 525 3319 
L 525 4141 
L 1084 4478 
L 1084 3319 
L 1650 3319 
L 1650 2881 
L 1084 2881 
L 1084 941 
Q 1084 700 1114 631 
Q 1144 563 1211 522 
Q 1278 481 1403 481 
Q 1497 481 1650 503 
z
" transform="scale(0.015625)"/>
       <path id="ArialMT-6d" d="M 422 0 
L 422 3319 
L 925 3319 
L 925 2853 
Q 1081 3097 1340 3245 
Q 1600 3394 1931 3394 
Q 2300 3394 2536 3241 
Q 2772 3088 2869 2813 
Q 3263 3394 3894 3394 
Q 4388 3394 4653 3120 
Q 4919 2847 4919 2278 
L 4919 0 
L 4359 0 
L 4359 2091 
Q 4359 2428 4304 2576 
Q 4250 2725 4106 2815 
Q 3963 2906 3769 2906 
Q 3419 2906 3187 2673 
Q 2956 2441 2956 1928 
L 2956 0 
L 2394 0 
L 2394 2156 
Q 2394 2531 2256 2718 
Q 2119 2906 1806 2906 
Q 1569 2906 1367 2781 
Q 1166 2656 1075 2415 
Q 984 2175 984 1722 
L 984 0 
L 422 0 
z
" transform="scale(0.015625)"/>
       <path id="ArialMT-70" d="M 422 -1272 
L 422 3319 
L 934 3319 
L 934 2888 
Q 1116 3141 1344 3267 
Q 1572 3394 1897 3394 
Q 2322 3394 2647 3175 
Q 2972 2956 3137 2557 
Q 3303 2159 3303 1684 
Q 3303 1175 3120 767 
Q 2938 359 2589 142 
Q 2241 -75 1856 -75 
Q 1575 -75 1351 44 
Q 1128 163 984 344 
L 984 -1272 
L 422 -1272 
z
M 931 1641 
Q 931 1000 1190 694 
Q 1450 388 1819 388 
Q 2194 388 2461 705 
Q 2728 1022 2728 1688 
Q 2728 2322 2467 2637 
Q 2206 2953 1844 2953 
Q 1484 2953 1207 2617 
Q 931 2281 931 1641 
z
" transform="scale(0.015625)"/>
       <path id="ArialMT-75" d="M 2597 0 
L 2597 488 
Q 2209 -75 1544 -75 
Q 1250 -75 995 37 
Q 741 150 617 320 
Q 494 491 444 738 
Q 409 903 409 1263 
L 409 3319 
L 972 3319 
L 972 1478 
Q 972 1038 1006 884 
Q 1059 663 1231 536 
Q 1403 409 1656 409 
Q 1909 409 2131 539 
Q 2353 669 2445 892 
Q 2538 1116 2538 1541 
L 2538 3319 
L 3100 3319 
L 3100 0 
L 2597 0 
z
" transform="scale(0.015625)"/>
       <path id="ArialMT-20" transform="scale(0.015625)"/>
       <path id="ArialMT-2f" d="M 0 -78 
L 1328 4659 
L 1778 4659 
L 453 -78 
L 0 -78 
z
" transform="scale(0.015625)"/>
       <path id="ArialMT-b0" d="M 400 3794 
Q 400 4153 654 4406 
Q 909 4659 1266 4659 
Q 1628 4659 1881 4406 
Q 2134 4153 2134 3794 
Q 2134 3434 1879 3179 
Q 1625 2925 1266 2925 
Q 909 2925 654 3178 
Q 400 3431 400 3794 
z
M 741 3794 
Q 741 3575 895 3420 
Q 1050 3266 1269 3266 
Q 1484 3266 1639 3420 
Q 1794 3575 1794 3794 
Q 1794 4013 1639 4167 
Q 1484 4322 1269 4322 
Q 1050 4322 895 4167 
Q 741 4013 741 3794 
z
" transform="scale(0.015625)"/>
       <path id="ArialMT-43" d="M 3763 1606 
L 4369 1453 
Q 4178 706 3683 314 
Q 3188 -78 2472 -78 
Q 1731 -78 1267 223 
Q 803 525 561 1097 
Q 319 1669 319 2325 
Q 319 3041 592 3573 
Q 866 4106 1370 4382 
Q 1875 4659 2481 4659 
Q 3169 4659 3637 4309 
Q 4106 3959 4291 3325 
L 3694 3184 
Q 3534 3684 3231 3912 
Q 2928 4141 2469 4141 
Q 1941 4141 1586 3887 
Q 1231 3634 1087 3207 
Q 944 2781 944 2328 
Q 944 1744 1114 1308 
Q 1284 872 1643 656 
Q 2003 441 2422 441 
Q 2931 441 3284 734 
Q 3638 1028 3763 1606 
z
" transform="scale(0.015625)"/>
      </defs>
      <use xlink:href="#ArialMT-54"/>
      <use xlink:href="#ArialMT-61" x="49.958984"/>
      <use xlink:href="#ArialMT-67" x="105.574219"/>
      <use xlink:href="#ArialMT-65" x="161.189453"/>
      <use xlink:href="#ArialMT-73" x="216.804688"/>
      <use xlink:href="#ArialMT-2d" x="266.804688"/>
      <use xlink:href="#ArialMT-52" x="300.105469"/>
      <use xlink:href="#ArialMT-65" x="372.322266"/>
      <use xlink:href="#ArialMT-66" x="427.9375"/>
      <use xlink:href="#ArialMT-65" x="455.720703"/>
      <use xlink:href="#ArialMT-72" x="511.335938"/>
      <use xlink:href="#ArialMT-65" x="544.636719"/>
      <use xlink:href="#ArialMT-6e" x="600.251953"/>
      <use xlink:href="#ArialMT-7a" x="655.867188"/>
      <use xlink:href="#ArialMT-74" x="705.867188"/>
      <use xlink:href="#ArialMT-65" x="733.650391"/>
      <use xlink:href="#ArialMT-6d" x="789.265625"/>
      <use xlink:href="#ArialMT-70" x="872.566406"/>
      <use xlink:href="#ArialMT-65" x="928.181641"/>
      <use xlink:href="#ArialMT-72" x="983.796875"/>
      <use xlink:href="#ArialMT-61" x="1017.097656"/>
      <use xlink:href="#ArialMT-74" x="1072.712891"/>
      <use xlink:href="#ArialMT-75" x="1100.496094"/>
      <use xlink:href="#ArialMT-72" x="1156.111328"/>
      <use xlink:href="#ArialMT-20" x="1189.412109"/>
      <use xlink:href="#ArialMT-2f" x="1217.195312"/>
      <use xlink:href="#ArialMT-20" x="1244.978516"/>
      <use xlink:href="#ArialMT-b0" x="1272.761719"/>
      <use xlink:href="#ArialMT-43" x="1312.751953"/>
     </g>
    </g>
   </g>
   <g id="matplotlib.axis_2">
    <g id="ytick_1">
     <g id="line2d_34">
      <path d="M 45.808281 342.816568 
L 696.872567 342.816568 
" clip-path="url(#p4092caf5ed)" style="fill: none; stroke: #a9dffc; stroke-linecap: square"/>
     </g>
     <g id="line2d_35">
      <defs>
       <path id="mfacd1505bd" d="M 0 0 
L -6 0 
" style="stroke: #07a8ff"/>
      </defs>
      <g>
       <use xlink:href="#mfacd1505bd" x="45.808281" y="342.816568" style="fill: #07a8ff; stroke: #07a8ff"/>
      </g>
     </g>
     <g id="text_9">
      <!-- 0 -->
      <g transform="translate(27.247344 346.395474) scale(0.1 -0.1)">
       <use xlink:href="#ArialMT-30"/>
      </g>
     </g>
    </g>
    <g id="ytick_2">
     <g id="line2d_36">
      <path d="M 45.808281 302.654854 
L 696.872567 302.654854 
" clip-path="url(#p4092caf5ed)" style="fill: none; stroke: #a9dffc; stroke-linecap: square"/>
     </g>
     <g id="line2d_37">
      <g>
       <use xlink:href="#mfacd1505bd" x="45.808281" y="302.654854" style="fill: #07a8ff; stroke: #07a8ff"/>
      </g>
     </g>
     <g id="text_10">
      <!-- 1 -->
      <g transform="translate(27.247344 306.23376) scale(0.1 -0.1)">
       <use xlink:href="#ArialMT-31"/>
      </g>
     </g>
    </g>
    <g id="ytick_3">
     <g id="line2d_38">
      <path d="M 45.808281 262.49314 
L 696.872567 262.49314 
" clip-path="url(#p4092caf5ed)" style="fill: none; stroke: #a9dffc; stroke-linecap: square"/>
     </g>
     <g id="line2d_39">
      <g>
       <use xlink:href="#mfacd1505bd" x="45.808281" y="262.49314" style="fill: #07a8ff; stroke: #07a8ff"/>
      </g>
     </g>
     <g id="text_11">
      <!-- 2 -->
      <g transform="translate(27.247344 266.072047) scale(0.1 -0.1)">
       <use xlink:href="#ArialMT-32"/>
      </g>
     </g>
    </g>
    <g id="ytick_4">
     <g id="line2d_40">
      <path d="M 45.808281 222.331426 
L 696.872567 222.331426 
" clip-path="url(#p4092caf5ed)" style="fill: none; stroke: #a9dffc; stroke-linecap: square"/>
     </g>
     <g id="line2d_41">
      <g>
       <use xlink:href="#mfacd1505bd" x="45.808281" y="222.331426" style="fill: #07a8ff; stroke: #07a8ff"/>
      </g>
     </g>
     <g id="text_12">
      <!-- 3 -->
      <g transform="translate(27.247344 225.910333) scale(0.1 -0.1)">
       <defs>
        <path id="ArialMT-33" d="M 269 1209 
L 831 1284 
Q 928 806 1161 595 
Q 1394 384 1728 384 
Q 2125 384 2398 659 
Q 2672 934 2672 1341 
Q 2672 1728 2419 1979 
Q 2166 2231 1775 2231 
Q 1616 2231 1378 2169 
L 1441 2663 
Q 1497 2656 1531 2656 
Q 1891 2656 2178 2843 
Q 2466 3031 2466 3422 
Q 2466 3731 2256 3934 
Q 2047 4138 1716 4138 
Q 1388 4138 1169 3931 
Q 950 3725 888 3313 
L 325 3413 
Q 428 3978 793 4289 
Q 1159 4600 1703 4600 
Q 2078 4600 2393 4439 
Q 2709 4278 2876 4000 
Q 3044 3722 3044 3409 
Q 3044 3113 2884 2869 
Q 2725 2625 2413 2481 
Q 2819 2388 3044 2092 
Q 3269 1797 3269 1353 
Q 3269 753 2831 336 
Q 2394 -81 1725 -81 
Q 1122 -81 723 278 
Q 325 638 269 1209 
z
" transform="scale(0.015625)"/>
       </defs>
       <use xlink:href="#ArialMT-33"/>
      </g>
     </g>
    </g>
    <g id="ytick_5">
     <g id="line2d_42">
      <path d="M 45.808281 182.169713 
L 696.872567 182.169713 
" clip-path="url(#p4092caf5ed)" style="fill: none; stroke: #a9dffc; stroke-linecap: square"/>
     </g>
     <g id="line2d_43">
      <g>
       <use xlink:href="#mfacd1505bd" x="45.808281" y="182.169713" style="fill: #07a8ff; stroke: #07a8ff"/>
      </g>
     </g>
     <g id="text_13">
      <!-- 4 -->
      <g transform="translate(27.247344 185.748619) scale(0.1 -0.1)">
       <use xlink:href="#ArialMT-34"/>
      </g>
     </g>
    </g>
    <g id="ytick_6">
     <g id="line2d_44">
      <path d="M 45.808281 142.007999 
L 696.872567 142.007999 
" clip-path="url(#p4092caf5ed)" style="fill: none; stroke: #a9dffc; stroke-linecap: square"/>
     </g>
     <g id="line2d_45">
      <g>
       <use xlink:href="#mfacd1505bd" x="45.808281" y="142.007999" style="fill: #07a8ff; stroke: #07a8ff"/>
      </g>
     </g>
     <g id="text_14">
      <!-- 5 -->
      <g transform="translate(27.247344 145.586905) scale(0.1 -0.1)">
       <defs>
        <path id="ArialMT-35" d="M 266 1200 
L 856 1250 
Q 922 819 1161 601 
Q 1400 384 1738 384 
Q 2144 384 2425 690 
Q 2706 997 2706 1503 
Q 2706 1984 2436 2262 
Q 2166 2541 1728 2541 
Q 1456 2541 1237 2417 
Q 1019 2294 894 2097 
L 366 2166 
L 809 4519 
L 3088 4519 
L 3088 3981 
L 1259 3981 
L 1013 2750 
Q 1425 3038 1878 3038 
Q 2478 3038 2890 2622 
Q 3303 2206 3303 1553 
Q 3303 931 2941 478 
Q 2500 -78 1738 -78 
Q 1113 -78 717 272 
Q 322 622 266 1200 
z
" transform="scale(0.015625)"/>
       </defs>
       <use xlink:href="#ArialMT-35"/>
      </g>
     </g>
    </g>
    <g id="ytick_7">
     <g id="line2d_46">
      <path d="M 45.808281 101.846285 
L 696.872567 101.846285 
" clip-path="url(#p4092caf5ed)" style="fill: none; stroke: #a9dffc; stroke-linecap: square"/>
     </g>
     <g id="line2d_47">
      <g>
       <use xlink:href="#mfacd1505bd" x="45.808281" y="101.846285" style="fill: #07a8ff; stroke: #07a8ff"/>
      </g>
     </g>
     <g id="text_15">
      <!-- 6 -->
      <g transform="translate(27.247344 105.425191) scale(0.1 -0.1)">
       <use xlink:href="#ArialMT-36"/>
      </g>
     </g>
    </g>
    <g id="ytick_8">
     <g id="line2d_48">
      <path d="M 45.808281 61.684571 
L 696.872567 61.684571 
" clip-path="url(#p4092caf5ed)" style="fill: none; stroke: #a9dffc; stroke-linecap: square"/>
     </g>
     <g id="line2d_49">
      <g>
       <use xlink:href="#mfacd1505bd" x="45.808281" y="61.684571" style="fill: #07a8ff; stroke: #07a8ff"/>
      </g>
     </g>
     <g id="text_16">
      <!-- 7 -->
      <g transform="translate(27.247344 65.263477) scale(0.1 -0.1)">
       <defs>
        <path id="ArialMT-37" d="M 303 3981 
L 303 4522 
L 3269 4522 
L 3269 4084 
Q 2831 3619 2401 2847 
Q 1972 2075 1738 1259 
Q 1569 684 1522 0 
L 944 0 
Q 953 541 1156 1306 
Q 1359 2072 1739 2783 
Q 2119 3494 2547 3981 
L 303 3981 
z
" transform="scale(0.015625)"/>
       </defs>
       <use xlink:href="#ArialMT-37"/>
      </g>
     </g>
    </g>
    <g id="ytick_9">
     <g id="line2d_50">
      <defs>
       <path id="md431745413" d="M 0 0 
L -2 0 
" style="stroke: #07a8ff"/>
      </defs>
      <g>
       <use xlink:href="#md431745413" x="45.808281" y="358.881253" style="fill: #07a8ff; stroke: #07a8ff"/>
      </g>
     </g>
    </g>
    <g id="ytick_10">
     <g id="line2d_51">
      <g>
       <use xlink:href="#md431745413" x="45.808281" y="350.848911" style="fill: #07a8ff; stroke: #07a8ff"/>
      </g>
     </g>
    </g>
    <g id="ytick_11">
     <g id="line2d_52">
      <g>
       <use xlink:href="#md431745413" x="45.808281" y="334.784225" style="fill: #07a8ff; stroke: #07a8ff"/>
      </g>
     </g>
    </g>
    <g id="ytick_12">
     <g id="line2d_53">
      <g>
       <use xlink:href="#md431745413" x="45.808281" y="326.751882" style="fill: #07a8ff; stroke: #07a8ff"/>
      </g>
     </g>
    </g>
    <g id="ytick_13">
     <g id="line2d_54">
      <g>
       <use xlink:href="#md431745413" x="45.808281" y="318.71954" style="fill: #07a8ff; stroke: #07a8ff"/>
      </g>
     </g>
    </g>
    <g id="ytick_14">
     <g id="line2d_55">
      <g>
       <use xlink:href="#md431745413" x="45.808281" y="310.687197" style="fill: #07a8ff; stroke: #07a8ff"/>
      </g>
     </g>
    </g>
    <g id="ytick_15">
     <g id="line2d_56">
      <g>
       <use xlink:href="#md431745413" x="45.808281" y="294.622511" style="fill: #07a8ff; stroke: #07a8ff"/>
      </g>
     </g>
    </g>
    <g id="ytick_16">
     <g id="line2d_57">
      <g>
       <use xlink:href="#md431745413" x="45.808281" y="286.590169" style="fill: #07a8ff; stroke: #07a8ff"/>
      </g>
     </g>
    </g>
    <g id="ytick_17">
     <g id="line2d_58">
      <g>
       <use xlink:href="#md431745413" x="45.808281" y="278.557826" style="fill: #07a8ff; stroke: #07a8ff"/>
      </g>
     </g>
    </g>
    <g id="ytick_18">
     <g id="line2d_59">
      <g>
       <use xlink:href="#md431745413" x="45.808281" y="270.525483" style="fill: #07a8ff; stroke: #07a8ff"/>
      </g>
     </g>
    </g>
    <g id="ytick_19">
     <g id="line2d_60">
      <g>
       <use xlink:href="#md431745413" x="45.808281" y="254.460798" style="fill: #07a8ff; stroke: #07a8ff"/>
      </g>
     </g>
    </g>
    <g id="ytick_20">
     <g id="line2d_61">
      <g>
       <use xlink:href="#md431745413" x="45.808281" y="246.428455" style="fill: #07a8ff; stroke: #07a8ff"/>
      </g>
     </g>
    </g>
    <g id="ytick_21">
     <g id="line2d_62">
      <g>
       <use xlink:href="#md431745413" x="45.808281" y="238.396112" style="fill: #07a8ff; stroke: #07a8ff"/>
      </g>
     </g>
    </g>
    <g id="ytick_22">
     <g id="line2d_63">
      <g>
       <use xlink:href="#md431745413" x="45.808281" y="230.363769" style="fill: #07a8ff; stroke: #07a8ff"/>
      </g>
     </g>
    </g>
    <g id="ytick_23">
     <g id="line2d_64">
      <g>
       <use xlink:href="#md431745413" x="45.808281" y="214.299084" style="fill: #07a8ff; stroke: #07a8ff"/>
      </g>
     </g>
    </g>
    <g id="ytick_24">
     <g id="line2d_65">
      <g>
       <use xlink:href="#md431745413" x="45.808281" y="206.266741" style="fill: #07a8ff; stroke: #07a8ff"/>
      </g>
     </g>
    </g>
    <g id="ytick_25">
     <g id="line2d_66">
      <g>
       <use xlink:href="#md431745413" x="45.808281" y="198.234398" style="fill: #07a8ff; stroke: #07a8ff"/>
      </g>
     </g>
    </g>
    <g id="ytick_26">
     <g id="line2d_67">
      <g>
       <use xlink:href="#md431745413" x="45.808281" y="190.202055" style="fill: #07a8ff; stroke: #07a8ff"/>
      </g>
     </g>
    </g>
    <g id="ytick_27">
     <g id="line2d_68">
      <g>
       <use xlink:href="#md431745413" x="45.808281" y="174.13737" style="fill: #07a8ff; stroke: #07a8ff"/>
      </g>
     </g>
    </g>
    <g id="ytick_28">
     <g id="line2d_69">
      <g>
       <use xlink:href="#md431745413" x="45.808281" y="166.105027" style="fill: #07a8ff; stroke: #07a8ff"/>
      </g>
     </g>
    </g>
    <g id="ytick_29">
     <g id="line2d_70">
      <g>
       <use xlink:href="#md431745413" x="45.808281" y="158.072684" style="fill: #07a8ff; stroke: #07a8ff"/>
      </g>
     </g>
    </g>
    <g id="ytick_30">
     <g id="line2d_71">
      <g>
       <use xlink:href="#md431745413" x="45.808281" y="150.040342" style="fill: #07a8ff; stroke: #07a8ff"/>
      </g>
     </g>
    </g>
    <g id="ytick_31">
     <g id="line2d_72">
      <g>
       <use xlink:href="#md431745413" x="45.808281" y="133.975656" style="fill: #07a8ff; stroke: #07a8ff"/>
      </g>
     </g>
    </g>
    <g id="ytick_32">
     <g id="line2d_73">
      <g>
       <use xlink:href="#md431745413" x="45.808281" y="125.943313" style="fill: #07a8ff; stroke: #07a8ff"/>
      </g>
     </g>
    </g>
    <g id="ytick_33">
     <g id="line2d_74">
      <g>
       <use xlink:href="#md431745413" x="45.808281" y="117.91097" style="fill: #07a8ff; stroke: #07a8ff"/>
      </g>
     </g>
    </g>
    <g id="ytick_34">
     <g id="line2d_75">
      <g>
       <use xlink:href="#md431745413" x="45.808281" y="109.878628" style="fill: #07a8ff; stroke: #07a8ff"/>
      </g>
     </g>
    </g>
    <g id="ytick_35">
     <g id="line2d_76">
      <g>
       <use xlink:href="#md431745413" x="45.808281" y="93.813942" style="fill: #07a8ff; stroke: #07a8ff"/>
      </g>
     </g>
    </g>
    <g id="ytick_36">
     <g id="line2d_77">
      <g>
       <use xlink:href="#md431745413" x="45.808281" y="85.781599" style="fill: #07a8ff; stroke: #07a8ff"/>
      </g>
     </g>
    </g>
    <g id="ytick_37">
     <g id="line2d_78">
      <g>
       <use xlink:href="#md431745413" x="45.808281" y="77.749257" style="fill: #07a8ff; stroke: #07a8ff"/>
      </g>
     </g>
    </g>
    <g id="ytick_38">
     <g id="line2d_79">
      <g>
       <use xlink:href="#md431745413" x="45.808281" y="69.716914" style="fill: #07a8ff; stroke: #07a8ff"/>
      </g>
     </g>
    </g>
    <g id="ytick_39">
     <g id="line2d_80">
      <g>
       <use xlink:href="#md431745413" x="45.808281" y="53.652228" style="fill: #07a8ff; stroke: #07a8ff"/>
      </g>
     </g>
    </g>
    <g id="ytick_40">
     <g id="line2d_81">
      <g>
       <use xlink:href="#md431745413" x="45.808281" y="45.619886" style="fill: #07a8ff; stroke: #07a8ff"/>
      </g>
     </g>
    </g>
    <g id="ytick_41">
     <g id="line2d_82">
      <g>
       <use xlink:href="#md431745413" x="45.808281" y="37.587543" style="fill: #07a8ff; stroke: #07a8ff"/>
      </g>
     </g>
    </g>
    <g id="text_17">
     <!-- Temperaturabfall / °C -->
     <g style="fill: #262626" transform="translate(16.663594 259.279654) rotate(-90) scale(0.13 -0.13)">
      <defs>
       <path id="ArialMT-62" d="M 941 0 
L 419 0 
L 419 4581 
L 981 4581 
L 981 2947 
Q 1338 3394 1891 3394 
Q 2197 3394 2470 3270 
Q 2744 3147 2920 2923 
Q 3097 2700 3197 2384 
Q 3297 2069 3297 1709 
Q 3297 856 2875 390 
Q 2453 -75 1863 -75 
Q 1275 -75 941 416 
L 941 0 
z
M 934 1684 
Q 934 1088 1097 822 
Q 1363 388 1816 388 
Q 2184 388 2453 708 
Q 2722 1028 2722 1663 
Q 2722 2313 2464 2622 
Q 2206 2931 1841 2931 
Q 1472 2931 1203 2611 
Q 934 2291 934 1684 
z
" transform="scale(0.015625)"/>
       <path id="ArialMT-6c" d="M 409 0 
L 409 4581 
L 972 4581 
L 972 0 
L 409 0 
z
" transform="scale(0.015625)"/>
      </defs>
      <use xlink:href="#ArialMT-54"/>
      <use xlink:href="#ArialMT-65" x="49.958984"/>
      <use xlink:href="#ArialMT-6d" x="105.574219"/>
      <use xlink:href="#ArialMT-70" x="188.875"/>
      <use xlink:href="#ArialMT-65" x="244.490234"/>
      <use xlink:href="#ArialMT-72" x="300.105469"/>
      <use xlink:href="#ArialMT-61" x="333.40625"/>
      <use xlink:href="#ArialMT-74" x="389.021484"/>
      <use xlink:href="#ArialMT-75" x="416.804688"/>
      <use xlink:href="#ArialMT-72" x="472.419922"/>
      <use xlink:href="#ArialMT-61" x="505.720703"/>
      <use xlink:href="#ArialMT-62" x="561.335938"/>
      <use xlink:href="#ArialMT-66" x="616.951172"/>
      <use xlink:href="#ArialMT-61" x="644.734375"/>
      <use xlink:href="#ArialMT-6c" x="700.349609"/>
      <use xlink:href="#ArialMT-6c" x="722.566406"/>
      <use xlink:href="#ArialMT-20" x="744.783203"/>
      <use xlink:href="#ArialMT-2f" x="772.566406"/>
      <use xlink:href="#ArialMT-20" x="800.349609"/>
      <use xlink:href="#ArialMT-b0" x="828.132812"/>
      <use xlink:href="#ArialMT-43" x="868.123047"/>
     </g>
    </g>
   </g>
   <g id="PolyCollection_1">
    <defs>
     <path id="m0fcea419fe" d="M 75.402112 -132.335454 
L 75.402112 -175.987718 
L 81.380664 -176.880492 
L 87.359216 -177.775722 
L 93.337768 -178.673549 
L 99.316319 -179.574126 
L 105.294871 -180.477615 
L 111.273423 -181.38419 
L 117.251975 -182.29404 
L 123.230526 -183.207364 
L 129.209078 -184.124377 
L 135.18763 -185.045312 
L 141.166182 -185.970417 
L 147.144733 -186.899957 
L 153.123285 -187.83422 
L 159.101837 -188.773511 
L 165.080389 -189.71816 
L 171.05894 -190.668521 
L 177.037492 -191.624971 
L 183.016044 -192.587915 
L 188.994596 -193.557784 
L 194.973147 -194.53504 
L 200.951699 -195.520174 
L 206.930251 -196.513707 
L 212.908803 -197.516191 
L 218.887354 -198.528209 
L 224.865906 -199.550373 
L 230.844458 -200.583325 
L 236.82301 -201.627732 
L 242.801561 -202.684283 
L 248.780113 -203.753688 
L 254.758665 -204.836669 
L 260.737217 -205.933953 
L 266.715768 -207.046265 
L 272.69432 -208.174318 
L 278.672872 -209.318805 
L 284.651424 -210.480381 
L 290.629975 -211.659658 
L 296.608527 -212.857185 
L 302.587079 -214.073444 
L 308.565631 -215.308831 
L 314.544182 -216.56365 
L 320.522734 -217.838107 
L 326.501286 -219.132298 
L 332.479838 -220.446213 
L 338.458389 -221.779733 
L 344.436941 -223.132633 
L 350.415493 -224.50459 
L 356.394045 -225.895189 
L 362.372596 -227.303936 
L 368.351148 -228.730266 
L 374.3297 -230.17356 
L 380.308252 -231.633153 
L 386.286803 -233.108347 
L 392.265355 -234.598428 
L 398.243907 -236.102667 
L 404.222459 -237.620338 
L 410.20101 -239.150722 
L 416.179562 -240.693113 
L 422.158114 -242.246825 
L 428.136666 -243.811195 
L 434.115217 -245.385589 
L 440.093769 -246.969399 
L 446.072321 -248.562048 
L 452.050873 -250.162991 
L 458.029425 -251.771712 
L 464.007976 -253.387727 
L 469.986528 -255.010579 
L 475.96508 -256.639844 
L 481.943632 -258.27512 
L 487.922183 -259.916037 
L 493.900735 -261.562244 
L 499.879287 -263.213418 
L 505.857839 -264.869256 
L 511.83639 -266.529476 
L 517.814942 -268.193815 
L 523.793494 -269.862028 
L 529.772046 -271.533887 
L 535.750597 -273.20918 
L 541.729149 -274.887708 
L 547.707701 -276.569288 
L 553.686253 -278.253746 
L 559.664804 -279.940924 
L 565.643356 -281.63067 
L 571.621908 -283.322845 
L 577.60046 -285.017319 
L 583.579011 -286.713969 
L 589.557563 -288.412681 
L 595.536115 -290.113348 
L 601.514667 -291.81587 
L 607.493218 -293.520154 
L 613.47177 -295.22611 
L 619.450322 -296.933658 
L 625.428874 -298.642719 
L 631.407425 -300.353221 
L 637.385977 -302.065096 
L 643.364529 -303.778278 
L 649.343081 -305.492708 
L 655.321632 -307.208328 
L 661.300184 -308.925084 
L 667.278736 -310.642927 
L 667.278736 -253.543735 
L 667.278736 -253.543735 
L 661.300184 -252.677098 
L 655.321632 -251.809375 
L 649.343081 -250.940515 
L 643.364529 -250.070465 
L 637.385977 -249.199168 
L 631.407425 -248.326562 
L 625.428874 -247.452584 
L 619.450322 -246.577166 
L 613.47177 -245.700234 
L 607.493218 -244.821711 
L 601.514667 -243.941515 
L 595.536115 -243.059558 
L 589.557563 -242.175745 
L 583.579011 -241.289977 
L 577.60046 -240.402147 
L 571.621908 -239.512141 
L 565.643356 -238.619837 
L 559.664804 -237.725103 
L 553.686253 -236.827801 
L 547.707701 -235.92778 
L 541.729149 -235.02488 
L 535.750597 -234.118929 
L 529.772046 -233.209742 
L 523.793494 -232.297121 
L 517.814942 -231.380855 
L 511.83639 -230.460714 
L 505.857839 -229.536454 
L 499.879287 -228.607812 
L 493.900735 -227.674506 
L 487.922183 -226.736234 
L 481.943632 -225.792671 
L 475.96508 -224.843468 
L 469.986528 -223.888253 
L 464.007976 -222.926626 
L 458.029425 -221.958161 
L 452.050873 -220.982402 
L 446.072321 -219.998865 
L 440.093769 -219.007035 
L 434.115217 -218.006365 
L 428.136666 -216.996279 
L 422.158114 -215.97617 
L 416.179562 -214.945402 
L 410.20101 -213.903313 
L 404.222459 -212.849217 
L 398.243907 -211.782409 
L 392.265355 -210.702168 
L 386.286803 -209.607769 
L 380.308252 -208.498484 
L 374.3297 -207.373597 
L 368.351148 -206.232411 
L 362.372596 -205.074261 
L 356.394045 -203.898529 
L 350.415493 -202.704648 
L 344.436941 -201.492126 
L 338.458389 -200.260546 
L 332.479838 -199.009586 
L 326.501286 -197.739021 
L 320.522734 -196.448733 
L 314.544182 -195.138709 
L 308.565631 -193.809049 
L 302.587079 -192.459956 
L 296.608527 -191.091735 
L 290.629975 -189.704783 
L 284.651424 -188.29958 
L 278.672872 -186.876677 
L 272.69432 -185.436684 
L 266.715768 -183.980258 
L 260.737217 -182.50809 
L 254.758665 -181.020894 
L 248.780113 -179.519395 
L 242.801561 -178.00432 
L 236.82301 -176.476392 
L 230.844458 -174.936319 
L 224.865906 -173.384791 
L 218.887354 -171.822476 
L 212.908803 -170.250014 
L 206.930251 -168.668018 
L 200.951699 -167.077071 
L 194.973147 -165.477726 
L 188.994596 -163.870502 
L 183.016044 -162.255892 
L 177.037492 -160.634356 
L 171.05894 -159.006326 
L 165.080389 -157.372207 
L 159.101837 -155.732377 
L 153.123285 -154.087189 
L 147.144733 -152.436971 
L 141.166182 -150.782032 
L 135.18763 -149.122657 
L 129.209078 -147.459112 
L 123.230526 -145.791646 
L 117.251975 -144.12049 
L 111.273423 -142.44586 
L 105.294871 -140.767956 
L 99.316319 -139.086965 
L 93.337768 -137.403062 
L 87.359216 -135.71641 
L 81.380664 -134.02716 
L 75.402112 -132.335454 
z
" style="stroke: #0080c4; stroke-opacity: 0.4; stroke-width: 0.3"/>
    </defs>
    <g clip-path="url(#p4092caf5ed)">
     <use xlink:href="#m0fcea419fe" x="0" y="415.750246" style="fill: #0080c4; fill-opacity: 0.4; stroke: #0080c4; stroke-opacity: 0.4; stroke-width: 0.3"/>
    </g>
   </g>
   <g id="line2d_83">
    <path d="M 216.801585 231.025734 
L 153.73925 244.656403 
L 195.564926 235.615952 
L 288.705507 215.483991 
L 253.622675 223.067004 
L 300.061761 213.029383 
L 371.175675 197.658397 
L 477.390841 174.700417 
L 525.126245 164.382602 
L 361.841645 199.67591 
L 349.532437 202.336495 
L 422.44484 186.576774 
L 555.438102 157.830817 
L 623.661491 143.084606 
L 307.036442 211.521833 
L 360.586425 199.947221 
L 532.38486 162.813682 
L 377.971356 196.189538 
L 500.756195 169.65009 
L 411.616745 188.917223 
L 329.266975 206.716793 
L 345.296454 203.252086 
L 352.322079 201.733526 
L 151.105428 245.225693 
L 349.25415 202.396646 
L 450.385905 180.537425 
L 436.02606 183.641248 
L 446.891409 181.292746 
L 591.098973 150.122863 
L 667.278736 133.656915 
L 344.288712 203.469905 
L 180.793121 238.808818 
L 202.641792 234.086316 
L 376.341461 196.541833 
L 406.377485 190.049668 
L 398.071538 191.844965 
L 414.33448 188.329795 
L 360.121362 200.047742 
L 402.7675 190.829951 
L 339.241935 204.560746 
L 197.518021 235.193798 
L 426.519268 185.696103 
L 298.922357 213.27566 
L 89.831913 258.469716 
L 94.562025 257.447322 
L 130.031035 249.780838 
L 214.726554 231.474243 
L 258.410857 222.032057 
L 282.810356 216.758204 
L 388.924845 193.821985 
L 408.538971 189.582471 
L 230.600391 228.043178 
L 157.687574 243.802989 
L 251.371986 223.553481 
L 310.586939 210.754408 
L 198.987751 234.876122 
L 101.082199 256.038012 
L 101.530645 255.941083 
L 75.402112 261.58866 
L 94.522997 257.455758 
L 256.264836 222.495911 
" clip-path="url(#p4092caf5ed)" style="fill: none; stroke: #0080c4; stroke-opacity: 0.5; stroke-width: 1.5; stroke-linecap: square"/>
   </g>
   <g id="line2d_84">
    <path d="M 75.402112 347.909354 
L 81.380664 346.516976 
L 87.359216 345.126934 
L 93.337768 343.739236 
L 99.316319 342.353889 
L 105.294871 340.970903 
L 111.273423 339.590283 
L 117.251975 338.212037 
L 123.230526 336.836174 
L 129.209078 335.462698 
L 135.18763 334.091618 
L 141.166182 332.72294 
L 147.144733 331.35667 
L 153.123285 329.992815 
L 159.101837 328.631381 
L 165.080389 327.272373 
L 171.05894 325.915798 
L 177.037492 324.561661 
L 183.016044 323.209967 
L 188.994596 321.860721 
L 194.973147 320.513929 
L 200.951699 319.169595 
L 206.930251 317.827724 
L 212.908803 316.488319 
L 218.887354 315.151386 
L 224.865906 313.816927 
L 230.844458 312.484947 
L 236.82301 311.15545 
L 242.801561 309.828438 
L 248.780113 308.503914 
L 254.758665 307.181882 
L 260.737217 305.862344 
L 266.715768 304.545302 
L 272.69432 303.23076 
L 278.672872 301.918717 
L 284.651424 300.609178 
L 290.629975 299.302142 
L 296.608527 297.997611 
L 302.587079 296.695587 
L 308.565631 295.396071 
L 314.544182 294.099062 
L 320.522734 292.804561 
L 326.501286 291.512569 
L 332.479838 290.223086 
L 338.458389 288.936111 
L 344.436941 287.651643 
L 350.415493 286.369683 
L 356.394045 285.090229 
L 362.372596 283.81328 
L 368.351148 282.538835 
L 374.3297 281.266891 
L 380.308252 279.997449 
L 386.286803 278.730504 
L 392.265355 277.466055 
L 398.243907 276.2041 
L 404.222459 274.944636 
L 410.20101 273.68766 
L 416.179562 272.433169 
L 422.158114 271.181159 
L 428.136666 269.931627 
L 434.115217 268.684569 
L 440.093769 267.439982 
L 446.072321 266.197861 
L 452.050873 264.958202 
L 458.029425 263.720999 
L 464.007976 262.486249 
L 469.986528 261.253947 
L 475.96508 260.024087 
L 481.943632 258.796663 
L 487.922183 257.571671 
L 493.900735 256.349104 
L 499.879287 255.128957 
L 505.857839 253.911224 
L 511.83639 252.695898 
L 517.814942 251.482972 
L 523.793494 250.27244 
L 529.772046 249.064295 
L 535.750597 247.858531 
L 541.729149 246.655139 
L 547.707701 245.454113 
L 553.686253 244.255445 
L 559.664804 243.059128 
L 565.643356 241.865152 
L 571.621908 240.673512 
L 577.60046 239.484198 
L 583.579011 238.297201 
L 589.557563 237.112515 
L 595.536115 235.930129 
L 601.514667 234.750036 
L 607.493218 233.572226 
L 613.47177 232.396691 
L 619.450322 231.22342 
L 625.428874 230.052406 
L 631.407425 228.883639 
L 637.385977 227.717109 
L 643.364529 226.552806 
L 649.343081 225.390721 
L 655.321632 224.230844 
L 661.300184 223.073166 
L 667.278736 221.917675 
" clip-path="url(#p4092caf5ed)" style="fill: none; stroke-dasharray: 6.475,2.8; stroke-dashoffset: 0; stroke: #00a0f6; stroke-width: 1.75"/>
   </g>
   <g id="line2d_85">
    <path d="M 75.402112 175.267965 
L 81.380664 174.075863 
L 87.359216 172.881426 
L 93.337768 171.684644 
L 99.316319 170.485511 
L 105.294871 169.284018 
L 111.273423 168.080158 
L 117.251975 166.873924 
L 123.230526 165.665308 
L 129.209078 164.454304 
L 135.18763 163.240904 
L 141.166182 162.025102 
L 147.144733 160.806892 
L 153.123285 159.586268 
L 159.101837 158.363222 
L 165.080389 157.13775 
L 171.05894 155.909846 
L 177.037492 154.679503 
L 183.016044 153.446718 
L 188.994596 152.211483 
L 194.973147 150.973796 
L 200.951699 149.73365 
L 206.930251 148.491042 
L 212.908803 147.245967 
L 218.887354 145.998421 
L 224.865906 144.7484 
L 230.844458 143.4959 
L 236.82301 142.240918 
L 242.801561 140.98345 
L 248.780113 139.723494 
L 254.758665 138.461046 
L 260.737217 137.196105 
L 266.715768 135.928666 
L 272.69432 134.65873 
L 278.672872 133.386292 
L 284.651424 132.111352 
L 290.629975 130.833908 
L 296.608527 129.553959 
L 302.587079 128.271503 
L 308.565631 126.98654 
L 314.544182 125.69907 
L 320.522734 124.40909 
L 326.501286 123.116603 
L 332.479838 121.821606 
L 338.458389 120.524102 
L 344.436941 119.22409 
L 350.415493 117.92157 
L 356.394045 116.616544 
L 362.372596 115.309014 
L 368.351148 113.998979 
L 374.3297 112.686443 
L 380.308252 111.371406 
L 386.286803 110.053871 
L 392.265355 108.73384 
L 398.243907 107.411315 
L 404.222459 106.0863 
L 410.20101 104.758796 
L 416.179562 103.428808 
L 422.158114 102.096338 
L 428.136666 100.76139 
L 434.115217 99.423968 
L 440.093769 98.084076 
L 446.072321 96.741717 
L 452.050873 95.396897 
L 458.029425 94.049619 
L 464.007976 92.69989 
L 469.986528 91.347712 
L 475.96508 89.993093 
L 481.943632 88.636037 
L 487.922183 87.276549 
L 493.900735 85.914636 
L 499.879287 84.550303 
L 505.857839 83.183557 
L 511.83639 81.814404 
L 517.814942 80.44285 
L 523.793494 79.068902 
L 529.772046 77.692567 
L 535.750597 76.313852 
L 541.729149 74.932764 
L 547.707701 73.54931 
L 553.686253 72.163498 
L 559.664804 70.775336 
L 565.643356 69.384832 
L 571.621908 67.991993 
L 577.60046 66.596827 
L 583.579011 65.199344 
L 589.557563 63.799551 
L 595.536115 62.397456 
L 601.514667 60.99307 
L 607.493218 59.5864 
L 613.47177 58.177456 
L 619.450322 56.766246 
L 625.428874 55.352781 
L 631.407425 53.937068 
L 637.385977 52.519119 
L 643.364529 51.098942 
L 649.343081 49.676547 
L 655.321632 48.251944 
L 661.300184 46.825143 
L 667.278736 45.396155 
" clip-path="url(#p4092caf5ed)" style="fill: none; stroke-dasharray: 6.475,2.8; stroke-dashoffset: 0; stroke: #00a0f6; stroke-width: 1.75"/>
   </g>
   <g id="patch_3">
    <path d="M 45.808281 366.205246 
L 45.808281 30.119531 
" style="fill: none; stroke: #07a8ff; stroke-width: 0.8; stroke-linejoin: miter; stroke-linecap: square"/>
   </g>
   <g id="patch_4">
    <path d="M 45.808281 366.205246 
L 696.872567 366.205246 
" style="fill: none; stroke: #07a8ff; stroke-width: 0.8; stroke-linejoin: miter; stroke-linecap: square"/>
   </g>
   <g id="text_18">
    <!-- Temperaturabfall nach Tages-Referenztemperatur mit Regressionsanalyse -->
    <g style="fill: #262626" transform="translate(45.808281 18.119531) scale(0.15 -0.15)">
     <defs>
      <path id="ArialMT-63" d="M 2588 1216 
L 3141 1144 
Q 3050 572 2676 248 
Q 2303 -75 1759 -75 
Q 1078 -75 664 370 
Q 250 816 250 1647 
Q 250 2184 428 2587 
Q 606 2991 970 3192 
Q 1334 3394 1763 3394 
Q 2303 3394 2647 3120 
Q 2991 2847 3088 2344 
L 2541 2259 
Q 2463 2594 2264 2762 
Q 2066 2931 1784 2931 
Q 1359 2931 1093 2626 
Q 828 2322 828 1663 
Q 828 994 1084 691 
Q 1341 388 1753 388 
Q 2084 388 2306 591 
Q 2528 794 2588 1216 
z
" transform="scale(0.015625)"/>
      <path id="ArialMT-68" d="M 422 0 
L 422 4581 
L 984 4581 
L 984 2938 
Q 1378 3394 1978 3394 
Q 2347 3394 2619 3248 
Q 2891 3103 3008 2847 
Q 3125 2591 3125 2103 
L 3125 0 
L 2563 0 
L 2563 2103 
Q 2563 2525 2380 2717 
Q 2197 2909 1863 2909 
Q 1613 2909 1392 2779 
Q 1172 2650 1078 2428 
Q 984 2206 984 1816 
L 984 0 
L 422 0 
z
" transform="scale(0.015625)"/>
      <path id="ArialMT-69" d="M 425 3934 
L 425 4581 
L 988 4581 
L 988 3934 
L 425 3934 
z
M 425 0 
L 425 3319 
L 988 3319 
L 988 0 
L 425 0 
z
" transform="scale(0.015625)"/>
      <path id="ArialMT-6f" d="M 213 1659 
Q 213 2581 725 3025 
Q 1153 3394 1769 3394 
Q 2453 3394 2887 2945 
Q 3322 2497 3322 1706 
Q 3322 1066 3130 698 
Q 2938 331 2570 128 
Q 2203 -75 1769 -75 
Q 1072 -75 642 372 
Q 213 819 213 1659 
z
M 791 1659 
Q 791 1022 1069 705 
Q 1347 388 1769 388 
Q 2188 388 2466 706 
Q 2744 1025 2744 1678 
Q 2744 2294 2464 2611 
Q 2184 2928 1769 2928 
Q 1347 2928 1069 2612 
Q 791 2297 791 1659 
z
" transform="scale(0.015625)"/>
      <path id="ArialMT-79" d="M 397 -1278 
L 334 -750 
Q 519 -800 656 -800 
Q 844 -800 956 -737 
Q 1069 -675 1141 -563 
Q 1194 -478 1313 -144 
Q 1328 -97 1363 -6 
L 103 3319 
L 709 3319 
L 1400 1397 
Q 1534 1031 1641 628 
Q 1738 1016 1872 1384 
L 2581 3319 
L 3144 3319 
L 1881 -56 
Q 1678 -603 1566 -809 
Q 1416 -1088 1222 -1217 
Q 1028 -1347 759 -1347 
Q 597 -1347 397 -1278 
z
" transform="scale(0.015625)"/>
     </defs>
     <use xlink:href="#ArialMT-54"/>
     <use xlink:href="#ArialMT-65" x="49.958984"/>
     <use xlink:href="#ArialMT-6d" x="105.574219"/>
     <use xlink:href="#ArialMT-70" x="188.875"/>
     <use xlink:href="#ArialMT-65" x="244.490234"/>
     <use xlink:href="#ArialMT-72" x="300.105469"/>
     <use xlink:href="#ArialMT-61" x="333.40625"/>
     <use xlink:href="#ArialMT-74" x="389.021484"/>
     <use xlink:href="#ArialMT-75" x="416.804688"/>
     <use xlink:href="#ArialMT-72" x="472.419922"/>
     <use xlink:href="#ArialMT-61" x="505.720703"/>
     <use xlink:href="#ArialMT-62" x="561.335938"/>
     <use xlink:href="#ArialMT-66" x="616.951172"/>
     <use xlink:href="#ArialMT-61" x="644.734375"/>
     <use xlink:href="#ArialMT-6c" x="700.349609"/>
     <use xlink:href="#ArialMT-6c" x="722.566406"/>
     <use xlink:href="#ArialMT-20" x="744.783203"/>
     <use xlink:href="#ArialMT-6e" x="772.566406"/>
     <use xlink:href="#ArialMT-61" x="828.181641"/>
     <use xlink:href="#ArialMT-63" x="883.796875"/>
     <use xlink:href="#ArialMT-68" x="933.796875"/>
     <use xlink:href="#ArialMT-20" x="989.412109"/>
     <use xlink:href="#ArialMT-54" x="1015.445312"/>
     <use xlink:href="#ArialMT-61" x="1065.404297"/>
     <use xlink:href="#ArialMT-67" x="1121.019531"/>
     <use xlink:href="#ArialMT-65" x="1176.634766"/>
     <use xlink:href="#ArialMT-73" x="1232.25"/>
     <use xlink:href="#ArialMT-2d" x="1282.25"/>
     <use xlink:href="#ArialMT-52" x="1315.550781"/>
     <use xlink:href="#ArialMT-65" x="1387.767578"/>
     <use xlink:href="#ArialMT-66" x="1443.382812"/>
     <use xlink:href="#ArialMT-65" x="1471.166016"/>
     <use xlink:href="#ArialMT-72" x="1526.78125"/>
     <use xlink:href="#ArialMT-65" x="1560.082031"/>
     <use xlink:href="#ArialMT-6e" x="1615.697266"/>
     <use xlink:href="#ArialMT-7a" x="1671.3125"/>
     <use xlink:href="#ArialMT-74" x="1721.3125"/>
     <use xlink:href="#ArialMT-65" x="1749.095703"/>
     <use xlink:href="#ArialMT-6d" x="1804.710938"/>
     <use xlink:href="#ArialMT-70" x="1888.011719"/>
     <use xlink:href="#ArialMT-65" x="1943.626953"/>
     <use xlink:href="#ArialMT-72" x="1999.242188"/>
     <use xlink:href="#ArialMT-61" x="2032.542969"/>
     <use xlink:href="#ArialMT-74" x="2088.158203"/>
     <use xlink:href="#ArialMT-75" x="2115.941406"/>
     <use xlink:href="#ArialMT-72" x="2171.556641"/>
     <use xlink:href="#ArialMT-20" x="2204.857422"/>
     <use xlink:href="#ArialMT-6d" x="2232.640625"/>
     <use xlink:href="#ArialMT-69" x="2315.941406"/>
     <use xlink:href="#ArialMT-74" x="2338.158203"/>
     <use xlink:href="#ArialMT-20" x="2365.941406"/>
     <use xlink:href="#ArialMT-52" x="2393.724609"/>
     <use xlink:href="#ArialMT-65" x="2465.941406"/>
     <use xlink:href="#ArialMT-67" x="2521.556641"/>
     <use xlink:href="#ArialMT-72" x="2577.171875"/>
     <use xlink:href="#ArialMT-65" x="2610.472656"/>
     <use xlink:href="#ArialMT-73" x="2666.087891"/>
     <use xlink:href="#ArialMT-73" x="2716.087891"/>
     <use xlink:href="#ArialMT-69" x="2766.087891"/>
     <use xlink:href="#ArialMT-6f" x="2788.304688"/>
     <use xlink:href="#ArialMT-6e" x="2843.919922"/>
     <use xlink:href="#ArialMT-73" x="2899.535156"/>
     <use xlink:href="#ArialMT-61" x="2949.535156"/>
     <use xlink:href="#ArialMT-6e" x="3005.150391"/>
     <use xlink:href="#ArialMT-61" x="3060.765625"/>
     <use xlink:href="#ArialMT-6c" x="3116.380859"/>
     <use xlink:href="#ArialMT-79" x="3138.597656"/>
     <use xlink:href="#ArialMT-73" x="3188.597656"/>
     <use xlink:href="#ArialMT-65" x="3238.597656"/>
    </g>
   </g>
   <g id="PathCollection_1">
    <defs>
     <path id="m6cd04af8cf" d="M 0 3 
C 0.795609 3 1.55874 2.683901 2.12132 2.12132 
C 2.683901 1.55874 3 0.795609 3 0 
C 3 -0.795609 2.683901 -1.55874 2.12132 -2.12132 
C 1.55874 -2.683901 0.795609 -3 0 -3 
C -0.795609 -3 -1.55874 -2.683901 -2.12132 -2.12132 
C -2.683901 -1.55874 -3 -0.795609 -3 0 
C -3 0.795609 -2.683901 1.55874 -2.12132 2.12132 
C -1.55874 2.683901 -0.795609 3 0 3 
z
" style="stroke: #006ba4; stroke-width: 0.3"/>
    </defs>
    <g clip-path="url(#p4092caf5ed)">
     <use xlink:href="#m6cd04af8cf" x="216.801585" y="187.541342" style="fill: #006ba4; stroke: #006ba4; stroke-width: 0.3"/>
     <use xlink:href="#m6cd04af8cf" x="153.73925" y="212.593416" style="fill: #006ba4; stroke: #006ba4; stroke-width: 0.3"/>
     <use xlink:href="#m6cd04af8cf" x="195.564926" y="195.472879" style="fill: #006ba4; stroke: #006ba4; stroke-width: 0.3"/>
     <use xlink:href="#m6cd04af8cf" x="288.705507" y="190.430174" style="fill: #006ba4; stroke: #006ba4; stroke-width: 0.3"/>
     <use xlink:href="#m6cd04af8cf" x="253.622675" y="115.802079" style="fill: #006ba4; stroke: #006ba4; stroke-width: 0.3"/>
     <use xlink:href="#m6cd04af8cf" x="300.061761" y="182.145214" style="fill: #006ba4; stroke: #006ba4; stroke-width: 0.3"/>
     <use xlink:href="#m6cd04af8cf" x="371.175675" y="145.82537" style="fill: #006ba4; stroke: #006ba4; stroke-width: 0.3"/>
     <use xlink:href="#m6cd04af8cf" x="477.390841" y="226.699013" style="fill: #006ba4; stroke: #006ba4; stroke-width: 0.3"/>
     <use xlink:href="#m6cd04af8cf" x="525.126245" y="174.7161" style="fill: #006ba4; stroke: #006ba4; stroke-width: 0.3"/>
     <use xlink:href="#m6cd04af8cf" x="361.841645" y="196.929946" style="fill: #006ba4; stroke: #006ba4; stroke-width: 0.3"/>
     <use xlink:href="#m6cd04af8cf" x="349.532437" y="196.403426" style="fill: #006ba4; stroke: #006ba4; stroke-width: 0.3"/>
     <use xlink:href="#m6cd04af8cf" x="422.44484" y="160.767688" style="fill: #006ba4; stroke: #006ba4; stroke-width: 0.3"/>
     <use xlink:href="#m6cd04af8cf" x="555.438102" y="135.234496" style="fill: #006ba4; stroke: #006ba4; stroke-width: 0.3"/>
     <use xlink:href="#m6cd04af8cf" x="623.661491" y="146.902124" style="fill: #006ba4; stroke: #006ba4; stroke-width: 0.3"/>
     <use xlink:href="#m6cd04af8cf" x="307.036442" y="280.559027" style="fill: #006ba4; stroke: #006ba4; stroke-width: 0.3"/>
     <use xlink:href="#m6cd04af8cf" x="360.586425" y="198.156905" style="fill: #006ba4; stroke: #006ba4; stroke-width: 0.3"/>
     <use xlink:href="#m6cd04af8cf" x="532.38486" y="166.700721" style="fill: #006ba4; stroke: #006ba4; stroke-width: 0.3"/>
     <use xlink:href="#m6cd04af8cf" x="377.971356" y="225.852366" style="fill: #006ba4; stroke: #006ba4; stroke-width: 0.3"/>
     <use xlink:href="#m6cd04af8cf" x="500.756195" y="150.453931" style="fill: #006ba4; stroke: #006ba4; stroke-width: 0.3"/>
     <use xlink:href="#m6cd04af8cf" x="411.616745" y="263.030466" style="fill: #006ba4; stroke: #006ba4; stroke-width: 0.3"/>
     <use xlink:href="#m6cd04af8cf" x="329.266975" y="237.04708" style="fill: #006ba4; stroke: #006ba4; stroke-width: 0.3"/>
     <use xlink:href="#m6cd04af8cf" x="345.296454" y="205.238352" style="fill: #006ba4; stroke: #006ba4; stroke-width: 0.3"/>
     <use xlink:href="#m6cd04af8cf" x="352.322079" y="190.37957" style="fill: #006ba4; stroke: #006ba4; stroke-width: 0.3"/>
     <use xlink:href="#m6cd04af8cf" x="151.105428" y="293.935421" style="fill: #006ba4; stroke: #006ba4; stroke-width: 0.3"/>
     <use xlink:href="#m6cd04af8cf" x="349.25415" y="173.606891" style="fill: #006ba4; stroke: #006ba4; stroke-width: 0.3"/>
     <use xlink:href="#m6cd04af8cf" x="450.385905" y="170.863903" style="fill: #006ba4; stroke: #006ba4; stroke-width: 0.3"/>
     <use xlink:href="#m6cd04af8cf" x="436.02606" y="136.234542" style="fill: #006ba4; stroke: #006ba4; stroke-width: 0.3"/>
     <use xlink:href="#m6cd04af8cf" x="446.891409" y="174.005066" style="fill: #006ba4; stroke: #006ba4; stroke-width: 0.3"/>
     <use xlink:href="#m6cd04af8cf" x="591.098973" y="151.022506" style="fill: #006ba4; stroke: #006ba4; stroke-width: 0.3"/>
     <use xlink:href="#m6cd04af8cf" x="667.278736" y="241.506522" style="fill: #006ba4; stroke: #006ba4; stroke-width: 0.3"/>
     <use xlink:href="#m6cd04af8cf" x="344.288712" y="257.351829" style="fill: #006ba4; stroke: #006ba4; stroke-width: 0.3"/>
     <use xlink:href="#m6cd04af8cf" x="180.793121" y="213.92338" style="fill: #006ba4; stroke: #006ba4; stroke-width: 0.3"/>
     <use xlink:href="#m6cd04af8cf" x="202.641792" y="229.182441" style="fill: #006ba4; stroke: #006ba4; stroke-width: 0.3"/>
     <use xlink:href="#m6cd04af8cf" x="376.341461" y="177.726201" style="fill: #006ba4; stroke: #006ba4; stroke-width: 0.3"/>
     <use xlink:href="#m6cd04af8cf" x="406.377485" y="188.212884" style="fill: #006ba4; stroke: #006ba4; stroke-width: 0.3"/>
     <use xlink:href="#m6cd04af8cf" x="398.071538" y="207.415194" style="fill: #006ba4; stroke: #006ba4; stroke-width: 0.3"/>
     <use xlink:href="#m6cd04af8cf" x="414.33448" y="194.607642" style="fill: #006ba4; stroke: #006ba4; stroke-width: 0.3"/>
     <use xlink:href="#m6cd04af8cf" x="360.121362" y="204.706936" style="fill: #006ba4; stroke: #006ba4; stroke-width: 0.3"/>
     <use xlink:href="#m6cd04af8cf" x="402.7675" y="109.44557" style="fill: #006ba4; stroke: #006ba4; stroke-width: 0.3"/>
     <use xlink:href="#m6cd04af8cf" x="339.241935" y="149.972028" style="fill: #006ba4; stroke: #006ba4; stroke-width: 0.3"/>
     <use xlink:href="#m6cd04af8cf" x="197.518021" y="205.886352" style="fill: #006ba4; stroke: #006ba4; stroke-width: 0.3"/>
     <use xlink:href="#m6cd04af8cf" x="426.519268" y="252.026367" style="fill: #006ba4; stroke: #006ba4; stroke-width: 0.3"/>
     <use xlink:href="#m6cd04af8cf" x="298.922357" y="160.303247" style="fill: #006ba4; stroke: #006ba4; stroke-width: 0.3"/>
     <use xlink:href="#m6cd04af8cf" x="89.831913" y="350.928622" style="fill: #006ba4; stroke: #006ba4; stroke-width: 0.3"/>
     <use xlink:href="#m6cd04af8cf" x="94.562025" y="256.732019" style="fill: #006ba4; stroke: #006ba4; stroke-width: 0.3"/>
     <use xlink:href="#m6cd04af8cf" x="130.031035" y="303.244581" style="fill: #006ba4; stroke: #006ba4; stroke-width: 0.3"/>
     <use xlink:href="#m6cd04af8cf" x="214.726554" y="238.802606" style="fill: #006ba4; stroke: #006ba4; stroke-width: 0.3"/>
     <use xlink:href="#m6cd04af8cf" x="258.410857" y="258.139744" style="fill: #006ba4; stroke: #006ba4; stroke-width: 0.3"/>
     <use xlink:href="#m6cd04af8cf" x="282.810356" y="184.275009" style="fill: #006ba4; stroke: #006ba4; stroke-width: 0.3"/>
     <use xlink:href="#m6cd04af8cf" x="388.924845" y="158.305756" style="fill: #006ba4; stroke: #006ba4; stroke-width: 0.3"/>
     <use xlink:href="#m6cd04af8cf" x="408.538971" y="152.426368" style="fill: #006ba4; stroke: #006ba4; stroke-width: 0.3"/>
     <use xlink:href="#m6cd04af8cf" x="230.600391" y="265.013842" style="fill: #006ba4; stroke: #006ba4; stroke-width: 0.3"/>
     <use xlink:href="#m6cd04af8cf" x="157.687574" y="296.378018" style="fill: #006ba4; stroke: #006ba4; stroke-width: 0.3"/>
     <use xlink:href="#m6cd04af8cf" x="251.371986" y="215.313301" style="fill: #006ba4; stroke: #006ba4; stroke-width: 0.3"/>
     <use xlink:href="#m6cd04af8cf" x="310.586939" y="227.520588" style="fill: #006ba4; stroke: #006ba4; stroke-width: 0.3"/>
     <use xlink:href="#m6cd04af8cf" x="198.987751" y="265.389182" style="fill: #006ba4; stroke: #006ba4; stroke-width: 0.3"/>
     <use xlink:href="#m6cd04af8cf" x="101.082199" y="244.990704" style="fill: #006ba4; stroke: #006ba4; stroke-width: 0.3"/>
     <use xlink:href="#m6cd04af8cf" x="101.530645" y="253.526081" style="fill: #006ba4; stroke: #006ba4; stroke-width: 0.3"/>
     <use xlink:href="#m6cd04af8cf" x="75.402112" y="315.282118" style="fill: #006ba4; stroke: #006ba4; stroke-width: 0.3"/>
     <use xlink:href="#m6cd04af8cf" x="94.522997" y="250.380826" style="fill: #006ba4; stroke: #006ba4; stroke-width: 0.3"/>
     <use xlink:href="#m6cd04af8cf" x="256.264836" y="179.925782" style="fill: #006ba4; stroke: #006ba4; stroke-width: 0.3"/>
    </g>
   </g>
   <g id="legend_1">
    <g id="patch_5">
     <path d="M 553.361629 361.205246 
L 689.872567 361.205246 
Q 691.872567 361.205246 691.872567 359.205246 
L 691.872567 303.267746 
Q 691.872567 301.267746 689.872567 301.267746 
L 553.361629 301.267746 
Q 551.361629 301.267746 551.361629 303.267746 
L 551.361629 359.205246 
Q 551.361629 361.205246 553.361629 361.205246 
z
" style="fill: #ffffff; opacity: 0.9; stroke: #07a8ff; stroke-width: 0.3; stroke-linejoin: miter"/>
    </g>
    <g id="PathCollection_2">
     <g>
      <use xlink:href="#m6cd04af8cf" x="565.361629" y="309.800558" style="fill: #006ba4; stroke: #006ba4; stroke-width: 0.3"/>
     </g>
    </g>
    <g id="text_19">
     <!-- W1-W5 -->
     <g style="fill: #262626" transform="translate(583.361629 312.425558) scale(0.1 -0.1)">
      <defs>
       <path id="ArialMT-57" d="M 1294 0 
L 78 4581 
L 700 4581 
L 1397 1578 
Q 1509 1106 1591 641 
Q 1766 1375 1797 1488 
L 2669 4581 
L 3400 4581 
L 4056 2263 
Q 4303 1400 4413 641 
Q 4500 1075 4641 1638 
L 5359 4581 
L 5969 4581 
L 4713 0 
L 4128 0 
L 3163 3491 
Q 3041 3928 3019 4028 
Q 2947 3713 2884 3491 
L 1913 0 
L 1294 0 
z
" transform="scale(0.015625)"/>
      </defs>
      <use xlink:href="#ArialMT-57"/>
      <use xlink:href="#ArialMT-31" x="94.384766"/>
      <use xlink:href="#ArialMT-2d" x="150"/>
      <use xlink:href="#ArialMT-57" x="183.300781"/>
      <use xlink:href="#ArialMT-35" x="277.685547"/>
     </g>
    </g>
    <g id="line2d_86">
     <path d="M 555.361629 323.070871 
L 565.361629 323.070871 
L 575.361629 323.070871 
" style="fill: none; stroke: #0080c4; stroke-opacity: 0.5; stroke-width: 1.5; stroke-linecap: square"/>
    </g>
    <g id="text_20">
     <!-- Regressionsgerade -->
     <g style="fill: #262626" transform="translate(583.361629 326.570871) scale(0.1 -0.1)">
      <defs>
       <path id="ArialMT-64" d="M 2575 0 
L 2575 419 
Q 2259 -75 1647 -75 
Q 1250 -75 917 144 
Q 584 363 401 755 
Q 219 1147 219 1656 
Q 219 2153 384 2558 
Q 550 2963 881 3178 
Q 1213 3394 1622 3394 
Q 1922 3394 2156 3267 
Q 2391 3141 2538 2938 
L 2538 4581 
L 3097 4581 
L 3097 0 
L 2575 0 
z
M 797 1656 
Q 797 1019 1065 703 
Q 1334 388 1700 388 
Q 2069 388 2326 689 
Q 2584 991 2584 1609 
Q 2584 2291 2321 2609 
Q 2059 2928 1675 2928 
Q 1300 2928 1048 2622 
Q 797 2316 797 1656 
z
" transform="scale(0.015625)"/>
      </defs>
      <use xlink:href="#ArialMT-52"/>
      <use xlink:href="#ArialMT-65" x="72.216797"/>
      <use xlink:href="#ArialMT-67" x="127.832031"/>
      <use xlink:href="#ArialMT-72" x="183.447266"/>
      <use xlink:href="#ArialMT-65" x="216.748047"/>
      <use xlink:href="#ArialMT-73" x="272.363281"/>
      <use xlink:href="#ArialMT-73" x="322.363281"/>
      <use xlink:href="#ArialMT-69" x="372.363281"/>
      <use xlink:href="#ArialMT-6f" x="394.580078"/>
      <use xlink:href="#ArialMT-6e" x="450.195312"/>
      <use xlink:href="#ArialMT-73" x="505.810547"/>
      <use xlink:href="#ArialMT-67" x="555.810547"/>
      <use xlink:href="#ArialMT-65" x="611.425781"/>
      <use xlink:href="#ArialMT-72" x="667.041016"/>
      <use xlink:href="#ArialMT-61" x="700.341797"/>
      <use xlink:href="#ArialMT-64" x="755.957031"/>
      <use xlink:href="#ArialMT-65" x="811.572266"/>
     </g>
    </g>
    <g id="patch_6">
     <path d="M 555.361629 340.833371 
L 575.361629 340.833371 
L 575.361629 333.833371 
L 555.361629 333.833371 
z
" style="fill: #0080c4; fill-opacity: 0.4; stroke: #0080c4; stroke-opacity: 0.4; stroke-width: 0.3; stroke-linejoin: miter"/>
    </g>
    <g id="text_21">
     <!-- Konfidenzintervall 95% -->
     <g style="fill: #262626" transform="translate(583.361629 340.833371) scale(0.1 -0.1)">
      <defs>
       <path id="ArialMT-4b" d="M 469 0 
L 469 4581 
L 1075 4581 
L 1075 2309 
L 3350 4581 
L 4172 4581 
L 2250 2725 
L 4256 0 
L 3456 0 
L 1825 2319 
L 1075 1588 
L 1075 0 
L 469 0 
z
" transform="scale(0.015625)"/>
       <path id="ArialMT-76" d="M 1344 0 
L 81 3319 
L 675 3319 
L 1388 1331 
Q 1503 1009 1600 663 
Q 1675 925 1809 1294 
L 2547 3319 
L 3125 3319 
L 1869 0 
L 1344 0 
z
" transform="scale(0.015625)"/>
       <path id="ArialMT-39" d="M 350 1059 
L 891 1109 
Q 959 728 1153 556 
Q 1347 384 1650 384 
Q 1909 384 2104 503 
Q 2300 622 2425 820 
Q 2550 1019 2634 1356 
Q 2719 1694 2719 2044 
Q 2719 2081 2716 2156 
Q 2547 1888 2255 1720 
Q 1963 1553 1622 1553 
Q 1053 1553 659 1965 
Q 266 2378 266 3053 
Q 266 3750 677 4175 
Q 1088 4600 1706 4600 
Q 2153 4600 2523 4359 
Q 2894 4119 3086 3673 
Q 3278 3228 3278 2384 
Q 3278 1506 3087 986 
Q 2897 466 2520 194 
Q 2144 -78 1638 -78 
Q 1100 -78 759 220 
Q 419 519 350 1059 
z
M 2653 3081 
Q 2653 3566 2395 3850 
Q 2138 4134 1775 4134 
Q 1400 4134 1122 3828 
Q 844 3522 844 3034 
Q 844 2597 1108 2323 
Q 1372 2050 1759 2050 
Q 2150 2050 2401 2323 
Q 2653 2597 2653 3081 
z
" transform="scale(0.015625)"/>
       <path id="ArialMT-25" d="M 372 3481 
Q 372 3972 619 4315 
Q 866 4659 1334 4659 
Q 1766 4659 2048 4351 
Q 2331 4044 2331 3447 
Q 2331 2866 2045 2552 
Q 1759 2238 1341 2238 
Q 925 2238 648 2547 
Q 372 2856 372 3481 
z
M 1350 4272 
Q 1141 4272 1002 4090 
Q 863 3909 863 3425 
Q 863 2984 1003 2804 
Q 1144 2625 1350 2625 
Q 1563 2625 1702 2806 
Q 1841 2988 1841 3469 
Q 1841 3913 1700 4092 
Q 1559 4272 1350 4272 
z
M 1353 -169 
L 3859 4659 
L 4316 4659 
L 1819 -169 
L 1353 -169 
z
M 3334 1075 
Q 3334 1569 3581 1911 
Q 3828 2253 4300 2253 
Q 4731 2253 5014 1945 
Q 5297 1638 5297 1041 
Q 5297 459 5011 145 
Q 4725 -169 4303 -169 
Q 3888 -169 3611 142 
Q 3334 453 3334 1075 
z
M 4316 1866 
Q 4103 1866 3964 1684 
Q 3825 1503 3825 1019 
Q 3825 581 3965 400 
Q 4106 219 4313 219 
Q 4528 219 4667 400 
Q 4806 581 4806 1063 
Q 4806 1506 4665 1686 
Q 4525 1866 4316 1866 
z
" transform="scale(0.015625)"/>
      </defs>
      <use xlink:href="#ArialMT-4b"/>
      <use xlink:href="#ArialMT-6f" x="66.699219"/>
      <use xlink:href="#ArialMT-6e" x="122.314453"/>
      <use xlink:href="#ArialMT-66" x="177.929688"/>
      <use xlink:href="#ArialMT-69" x="205.712891"/>
      <use xlink:href="#ArialMT-64" x="227.929688"/>
      <use xlink:href="#ArialMT-65" x="283.544922"/>
      <use xlink:href="#ArialMT-6e" x="339.160156"/>
      <use xlink:href="#ArialMT-7a" x="394.775391"/>
      <use xlink:href="#ArialMT-69" x="444.775391"/>
      <use xlink:href="#ArialMT-6e" x="466.992188"/>
      <use xlink:href="#ArialMT-74" x="522.607422"/>
      <use xlink:href="#ArialMT-65" x="550.390625"/>
      <use xlink:href="#ArialMT-72" x="606.005859"/>
      <use xlink:href="#ArialMT-76" x="639.306641"/>
      <use xlink:href="#ArialMT-61" x="689.306641"/>
      <use xlink:href="#ArialMT-6c" x="744.921875"/>
      <use xlink:href="#ArialMT-6c" x="767.138672"/>
      <use xlink:href="#ArialMT-20" x="789.355469"/>
      <use xlink:href="#ArialMT-39" x="817.138672"/>
      <use xlink:href="#ArialMT-35" x="872.753906"/>
      <use xlink:href="#ArialMT-25" x="928.369141"/>
     </g>
    </g>
    <g id="line2d_87">
     <path d="M 555.361629 351.600558 
L 565.361629 351.600558 
L 575.361629 351.600558 
" style="fill: none; stroke-dasharray: 6.475,2.8; stroke-dashoffset: 0; stroke: #00a0f6; stroke-width: 1.75"/>
    </g>
    <g id="text_22">
     <!-- Vorhersagegrenze 95% -->
     <g style="fill: #262626" transform="translate(583.361629 355.100558) scale(0.1 -0.1)">
      <defs>
       <path id="ArialMT-56" d="M 1803 0 
L 28 4581 
L 684 4581 
L 1875 1253 
Q 2019 853 2116 503 
Q 2222 878 2363 1253 
L 3600 4581 
L 4219 4581 
L 2425 0 
L 1803 0 
z
" transform="scale(0.015625)"/>
      </defs>
      <use xlink:href="#ArialMT-56"/>
      <use xlink:href="#ArialMT-6f" x="61.199219"/>
      <use xlink:href="#ArialMT-72" x="116.814453"/>
      <use xlink:href="#ArialMT-68" x="150.115234"/>
      <use xlink:href="#ArialMT-65" x="205.730469"/>
      <use xlink:href="#ArialMT-72" x="261.345703"/>
      <use xlink:href="#ArialMT-73" x="294.646484"/>
      <use xlink:href="#ArialMT-61" x="344.646484"/>
      <use xlink:href="#ArialMT-67" x="400.261719"/>
      <use xlink:href="#ArialMT-65" x="455.876953"/>
      <use xlink:href="#ArialMT-67" x="511.492188"/>
      <use xlink:href="#ArialMT-72" x="567.107422"/>
      <use xlink:href="#ArialMT-65" x="600.408203"/>
      <use xlink:href="#ArialMT-6e" x="656.023438"/>
      <use xlink:href="#ArialMT-7a" x="711.638672"/>
      <use xlink:href="#ArialMT-65" x="761.638672"/>
      <use xlink:href="#ArialMT-20" x="817.253906"/>
      <use xlink:href="#ArialMT-39" x="845.037109"/>
      <use xlink:href="#ArialMT-35" x="900.652344"/>
      <use xlink:href="#ArialMT-25" x="956.267578"/>
     </g>
    </g>
   </g>
  </g>
 </g>
 <defs>
  <clipPath id="p4092caf5ed">
   <rect x="45.808281" y="30.119531" width="651.064286" height="336.085714"/>
  </clipPath>
 </defs>
</svg>
