<?xml version="1.0" encoding="utf-8" standalone="no"?>
<!DOCTYPE svg PUBLIC "-//W3C//DTD SVG 1.1//EN"
  "http://www.w3.org/Graphics/SVG/1.1/DTD/svg11.dtd">
<svg xmlns:xlink="http://www.w3.org/1999/xlink" width="703.894442pt" height="415.629978pt" viewBox="0 0 703.894442 415.629978" xmlns="http://www.w3.org/2000/svg" version="1.1">
 <metadata>
  <rdf:RDF xmlns:dc="http://purl.org/dc/elements/1.1/" xmlns:cc="http://creativecommons.org/ns#" xmlns:rdf="http://www.w3.org/1999/02/22-rdf-syntax-ns#">
   <cc:Work>
    <dc:type rdf:resource="http://purl.org/dc/dcmitype/StillImage"/>
    <dc:date>2023-01-06T23:36:32.086675</dc:date>
    <dc:format>image/svg+xml</dc:format>
    <dc:creator>
     <cc:Agent>
      <dc:title>Matplotlib v3.6.2, https://matplotlib.org/</dc:title>
     </cc:Agent>
    </dc:creator>
   </cc:Work>
  </rdf:RDF>
 </metadata>
 <defs>
  <style type="text/css">*{stroke-linejoin: round; stroke-linecap: butt}</style>
 </defs>
 <g id="figure_1">
  <g id="patch_1">
   <path d="M 0 415.629978 
L 703.894442 415.629978 
L 703.894442 0 
L 0 0 
z
" style="fill: #ffffff"/>
  </g>
  <g id="axes_1">
   <g id="patch_2">
    <path d="M 51.369219 355.508103 
L 677.233504 355.508103 
L 677.233504 30.119531 
L 51.369219 30.119531 
z
" style="fill: #ffffff"/>
   </g>
   <g id="matplotlib.axis_1">
    <g id="xtick_1">
     <g id="line2d_1">
      <path d="M 51.369219 355.508103 
L 51.369219 30.119531 
" clip-path="url(#p25845db2b5)" style="fill: none; stroke: #a9dffc; stroke-linecap: square"/>
     </g>
     <g id="line2d_2">
      <defs>
       <path id="me68125c6f4" d="M 0 0 
L 0 6 
" style="stroke: #07a8ff"/>
      </defs>
      <g>
       <use xlink:href="#me68125c6f4" x="51.369219" y="355.508103" style="fill: #07a8ff; stroke: #07a8ff"/>
      </g>
     </g>
     <g id="text_1">
      <!-- 04.08.22 -->
      <g transform="translate(31.908281 375.665915) scale(0.1 -0.1)">
       <defs>
        <path id="ArialMT-30" d="M 266 2259 
Q 266 3072 433 3567 
Q 600 4063 929 4331 
Q 1259 4600 1759 4600 
Q 2128 4600 2406 4451 
Q 2684 4303 2865 4023 
Q 3047 3744 3150 3342 
Q 3253 2941 3253 2259 
Q 3253 1453 3087 958 
Q 2922 463 2592 192 
Q 2263 -78 1759 -78 
Q 1097 -78 719 397 
Q 266 969 266 2259 
z
M 844 2259 
Q 844 1131 1108 757 
Q 1372 384 1759 384 
Q 2147 384 2411 759 
Q 2675 1134 2675 2259 
Q 2675 3391 2411 3762 
Q 2147 4134 1753 4134 
Q 1366 4134 1134 3806 
Q 844 3388 844 2259 
z
" transform="scale(0.015625)"/>
        <path id="ArialMT-34" d="M 2069 0 
L 2069 1097 
L 81 1097 
L 81 1613 
L 2172 4581 
L 2631 4581 
L 2631 1613 
L 3250 1613 
L 3250 1097 
L 2631 1097 
L 2631 0 
L 2069 0 
z
M 2069 1613 
L 2069 3678 
L 634 1613 
L 2069 1613 
z
" transform="scale(0.015625)"/>
        <path id="ArialMT-2e" d="M 581 0 
L 581 641 
L 1222 641 
L 1222 0 
L 581 0 
z
" transform="scale(0.015625)"/>
        <path id="ArialMT-38" d="M 1131 2484 
Q 781 2613 612 2850 
Q 444 3088 444 3419 
Q 444 3919 803 4259 
Q 1163 4600 1759 4600 
Q 2359 4600 2725 4251 
Q 3091 3903 3091 3403 
Q 3091 3084 2923 2848 
Q 2756 2613 2416 2484 
Q 2838 2347 3058 2040 
Q 3278 1734 3278 1309 
Q 3278 722 2862 322 
Q 2447 -78 1769 -78 
Q 1091 -78 675 323 
Q 259 725 259 1325 
Q 259 1772 486 2073 
Q 713 2375 1131 2484 
z
M 1019 3438 
Q 1019 3113 1228 2906 
Q 1438 2700 1772 2700 
Q 2097 2700 2305 2904 
Q 2513 3109 2513 3406 
Q 2513 3716 2298 3927 
Q 2084 4138 1766 4138 
Q 1444 4138 1231 3931 
Q 1019 3725 1019 3438 
z
M 838 1322 
Q 838 1081 952 856 
Q 1066 631 1291 507 
Q 1516 384 1775 384 
Q 2178 384 2440 643 
Q 2703 903 2703 1303 
Q 2703 1709 2433 1975 
Q 2163 2241 1756 2241 
Q 1359 2241 1098 1978 
Q 838 1716 838 1322 
z
" transform="scale(0.015625)"/>
        <path id="ArialMT-32" d="M 3222 541 
L 3222 0 
L 194 0 
Q 188 203 259 391 
Q 375 700 629 1000 
Q 884 1300 1366 1694 
Q 2113 2306 2375 2664 
Q 2638 3022 2638 3341 
Q 2638 3675 2398 3904 
Q 2159 4134 1775 4134 
Q 1369 4134 1125 3890 
Q 881 3647 878 3216 
L 300 3275 
Q 359 3922 746 4261 
Q 1134 4600 1788 4600 
Q 2447 4600 2831 4234 
Q 3216 3869 3216 3328 
Q 3216 3053 3103 2787 
Q 2991 2522 2730 2228 
Q 2469 1934 1863 1422 
Q 1356 997 1212 845 
Q 1069 694 975 541 
L 3222 541 
z
" transform="scale(0.015625)"/>
       </defs>
       <use xlink:href="#ArialMT-30"/>
       <use xlink:href="#ArialMT-34" x="55.615234"/>
       <use xlink:href="#ArialMT-2e" x="111.230469"/>
       <use xlink:href="#ArialMT-30" x="139.013672"/>
       <use xlink:href="#ArialMT-38" x="194.628906"/>
       <use xlink:href="#ArialMT-2e" x="250.244141"/>
       <use xlink:href="#ArialMT-32" x="278.027344"/>
       <use xlink:href="#ArialMT-32" x="333.642578"/>
      </g>
      <!-- 20:00 -->
      <g transform="translate(38.858281 386.24279) scale(0.1 -0.1)">
       <defs>
        <path id="ArialMT-3a" d="M 578 2678 
L 578 3319 
L 1219 3319 
L 1219 2678 
L 578 2678 
z
M 578 0 
L 578 641 
L 1219 641 
L 1219 0 
L 578 0 
z
" transform="scale(0.015625)"/>
       </defs>
       <use xlink:href="#ArialMT-32"/>
       <use xlink:href="#ArialMT-30" x="55.615234"/>
       <use xlink:href="#ArialMT-3a" x="111.230469"/>
       <use xlink:href="#ArialMT-30" x="139.013672"/>
       <use xlink:href="#ArialMT-30" x="194.628906"/>
      </g>
     </g>
    </g>
    <g id="xtick_2">
     <g id="line2d_3">
      <path d="M 176.542076 355.508103 
L 176.542076 30.119531 
" clip-path="url(#p25845db2b5)" style="fill: none; stroke: #a9dffc; stroke-linecap: square"/>
     </g>
     <g id="line2d_4">
      <g>
       <use xlink:href="#me68125c6f4" x="176.542076" y="355.508103" style="fill: #07a8ff; stroke: #07a8ff"/>
      </g>
     </g>
     <g id="text_2">
      <!-- 04.08.22 -->
      <g transform="translate(157.081138 375.665915) scale(0.1 -0.1)">
       <use xlink:href="#ArialMT-30"/>
       <use xlink:href="#ArialMT-34" x="55.615234"/>
       <use xlink:href="#ArialMT-2e" x="111.230469"/>
       <use xlink:href="#ArialMT-30" x="139.013672"/>
       <use xlink:href="#ArialMT-38" x="194.628906"/>
       <use xlink:href="#ArialMT-2e" x="250.244141"/>
       <use xlink:href="#ArialMT-32" x="278.027344"/>
       <use xlink:href="#ArialMT-32" x="333.642578"/>
      </g>
      <!-- 22:00 -->
      <g transform="translate(164.031138 386.24279) scale(0.1 -0.1)">
       <use xlink:href="#ArialMT-32"/>
       <use xlink:href="#ArialMT-32" x="55.615234"/>
       <use xlink:href="#ArialMT-3a" x="111.230469"/>
       <use xlink:href="#ArialMT-30" x="139.013672"/>
       <use xlink:href="#ArialMT-30" x="194.628906"/>
      </g>
     </g>
    </g>
    <g id="xtick_3">
     <g id="line2d_5">
      <path d="M 301.714933 355.508103 
L 301.714933 30.119531 
" clip-path="url(#p25845db2b5)" style="fill: none; stroke: #a9dffc; stroke-linecap: square"/>
     </g>
     <g id="line2d_6">
      <g>
       <use xlink:href="#me68125c6f4" x="301.714933" y="355.508103" style="fill: #07a8ff; stroke: #07a8ff"/>
      </g>
     </g>
     <g id="text_3">
      <!-- 05.08.22 -->
      <g transform="translate(282.253996 375.665915) scale(0.1 -0.1)">
       <defs>
        <path id="ArialMT-35" d="M 266 1200 
L 856 1250 
Q 922 819 1161 601 
Q 1400 384 1738 384 
Q 2144 384 2425 690 
Q 2706 997 2706 1503 
Q 2706 1984 2436 2262 
Q 2166 2541 1728 2541 
Q 1456 2541 1237 2417 
Q 1019 2294 894 2097 
L 366 2166 
L 809 4519 
L 3088 4519 
L 3088 3981 
L 1259 3981 
L 1013 2750 
Q 1425 3038 1878 3038 
Q 2478 3038 2890 2622 
Q 3303 2206 3303 1553 
Q 3303 931 2941 478 
Q 2500 -78 1738 -78 
Q 1113 -78 717 272 
Q 322 622 266 1200 
z
" transform="scale(0.015625)"/>
       </defs>
       <use xlink:href="#ArialMT-30"/>
       <use xlink:href="#ArialMT-35" x="55.615234"/>
       <use xlink:href="#ArialMT-2e" x="111.230469"/>
       <use xlink:href="#ArialMT-30" x="139.013672"/>
       <use xlink:href="#ArialMT-38" x="194.628906"/>
       <use xlink:href="#ArialMT-2e" x="250.244141"/>
       <use xlink:href="#ArialMT-32" x="278.027344"/>
       <use xlink:href="#ArialMT-32" x="333.642578"/>
      </g>
      <!-- 00:00 -->
      <g transform="translate(289.203996 386.24279) scale(0.1 -0.1)">
       <use xlink:href="#ArialMT-30"/>
       <use xlink:href="#ArialMT-30" x="55.615234"/>
       <use xlink:href="#ArialMT-3a" x="111.230469"/>
       <use xlink:href="#ArialMT-30" x="139.013672"/>
       <use xlink:href="#ArialMT-30" x="194.628906"/>
      </g>
     </g>
    </g>
    <g id="xtick_4">
     <g id="line2d_7">
      <path d="M 426.88779 355.508103 
L 426.88779 30.119531 
" clip-path="url(#p25845db2b5)" style="fill: none; stroke: #a9dffc; stroke-linecap: square"/>
     </g>
     <g id="line2d_8">
      <g>
       <use xlink:href="#me68125c6f4" x="426.88779" y="355.508103" style="fill: #07a8ff; stroke: #07a8ff"/>
      </g>
     </g>
     <g id="text_4">
      <!-- 05.08.22 -->
      <g transform="translate(407.426853 375.665915) scale(0.1 -0.1)">
       <use xlink:href="#ArialMT-30"/>
       <use xlink:href="#ArialMT-35" x="55.615234"/>
       <use xlink:href="#ArialMT-2e" x="111.230469"/>
       <use xlink:href="#ArialMT-30" x="139.013672"/>
       <use xlink:href="#ArialMT-38" x="194.628906"/>
       <use xlink:href="#ArialMT-2e" x="250.244141"/>
       <use xlink:href="#ArialMT-32" x="278.027344"/>
       <use xlink:href="#ArialMT-32" x="333.642578"/>
      </g>
      <!-- 02:00 -->
      <g transform="translate(414.376853 386.24279) scale(0.1 -0.1)">
       <use xlink:href="#ArialMT-30"/>
       <use xlink:href="#ArialMT-32" x="55.615234"/>
       <use xlink:href="#ArialMT-3a" x="111.230469"/>
       <use xlink:href="#ArialMT-30" x="139.013672"/>
       <use xlink:href="#ArialMT-30" x="194.628906"/>
      </g>
     </g>
    </g>
    <g id="xtick_5">
     <g id="line2d_9">
      <path d="M 552.060647 355.508103 
L 552.060647 30.119531 
" clip-path="url(#p25845db2b5)" style="fill: none; stroke: #a9dffc; stroke-linecap: square"/>
     </g>
     <g id="line2d_10">
      <g>
       <use xlink:href="#me68125c6f4" x="552.060647" y="355.508103" style="fill: #07a8ff; stroke: #07a8ff"/>
      </g>
     </g>
     <g id="text_5">
      <!-- 05.08.22 -->
      <g transform="translate(532.59971 375.665915) scale(0.1 -0.1)">
       <use xlink:href="#ArialMT-30"/>
       <use xlink:href="#ArialMT-35" x="55.615234"/>
       <use xlink:href="#ArialMT-2e" x="111.230469"/>
       <use xlink:href="#ArialMT-30" x="139.013672"/>
       <use xlink:href="#ArialMT-38" x="194.628906"/>
       <use xlink:href="#ArialMT-2e" x="250.244141"/>
       <use xlink:href="#ArialMT-32" x="278.027344"/>
       <use xlink:href="#ArialMT-32" x="333.642578"/>
      </g>
      <!-- 04:00 -->
      <g transform="translate(539.54971 386.24279) scale(0.1 -0.1)">
       <use xlink:href="#ArialMT-30"/>
       <use xlink:href="#ArialMT-34" x="55.615234"/>
       <use xlink:href="#ArialMT-3a" x="111.230469"/>
       <use xlink:href="#ArialMT-30" x="139.013672"/>
       <use xlink:href="#ArialMT-30" x="194.628906"/>
      </g>
     </g>
    </g>
    <g id="xtick_6">
     <g id="line2d_11">
      <path d="M 677.233504 355.508103 
L 677.233504 30.119531 
" clip-path="url(#p25845db2b5)" style="fill: none; stroke: #a9dffc; stroke-linecap: square"/>
     </g>
     <g id="line2d_12">
      <g>
       <use xlink:href="#me68125c6f4" x="677.233504" y="355.508103" style="fill: #07a8ff; stroke: #07a8ff"/>
      </g>
     </g>
     <g id="text_6">
      <!-- 05.08.22 -->
      <g transform="translate(657.772567 375.665915) scale(0.1 -0.1)">
       <use xlink:href="#ArialMT-30"/>
       <use xlink:href="#ArialMT-35" x="55.615234"/>
       <use xlink:href="#ArialMT-2e" x="111.230469"/>
       <use xlink:href="#ArialMT-30" x="139.013672"/>
       <use xlink:href="#ArialMT-38" x="194.628906"/>
       <use xlink:href="#ArialMT-2e" x="250.244141"/>
       <use xlink:href="#ArialMT-32" x="278.027344"/>
       <use xlink:href="#ArialMT-32" x="333.642578"/>
      </g>
      <!-- 06:00 -->
      <g transform="translate(664.722567 386.24279) scale(0.1 -0.1)">
       <defs>
        <path id="ArialMT-36" d="M 3184 3459 
L 2625 3416 
Q 2550 3747 2413 3897 
Q 2184 4138 1850 4138 
Q 1581 4138 1378 3988 
Q 1113 3794 959 3422 
Q 806 3050 800 2363 
Q 1003 2672 1297 2822 
Q 1591 2972 1913 2972 
Q 2475 2972 2870 2558 
Q 3266 2144 3266 1488 
Q 3266 1056 3080 686 
Q 2894 316 2569 119 
Q 2244 -78 1831 -78 
Q 1128 -78 684 439 
Q 241 956 241 2144 
Q 241 3472 731 4075 
Q 1159 4600 1884 4600 
Q 2425 4600 2770 4297 
Q 3116 3994 3184 3459 
z
M 888 1484 
Q 888 1194 1011 928 
Q 1134 663 1356 523 
Q 1578 384 1822 384 
Q 2178 384 2434 671 
Q 2691 959 2691 1453 
Q 2691 1928 2437 2201 
Q 2184 2475 1800 2475 
Q 1419 2475 1153 2201 
Q 888 1928 888 1484 
z
" transform="scale(0.015625)"/>
       </defs>
       <use xlink:href="#ArialMT-30"/>
       <use xlink:href="#ArialMT-36" x="55.615234"/>
       <use xlink:href="#ArialMT-3a" x="111.230469"/>
       <use xlink:href="#ArialMT-30" x="139.013672"/>
       <use xlink:href="#ArialMT-30" x="194.628906"/>
      </g>
     </g>
    </g>
    <g id="xtick_7">
     <g id="line2d_13">
      <defs>
       <path id="m70c019ad12" d="M 0 0 
L 0 2 
" style="stroke: #07a8ff"/>
      </defs>
      <g>
       <use xlink:href="#m70c019ad12" x="82.662433" y="355.508103" style="fill: #07a8ff; stroke: #07a8ff"/>
      </g>
     </g>
    </g>
    <g id="xtick_8">
     <g id="line2d_14">
      <g>
       <use xlink:href="#m70c019ad12" x="113.955647" y="355.508103" style="fill: #07a8ff; stroke: #07a8ff"/>
      </g>
     </g>
    </g>
    <g id="xtick_9">
     <g id="line2d_15">
      <g>
       <use xlink:href="#m70c019ad12" x="145.248862" y="355.508103" style="fill: #07a8ff; stroke: #07a8ff"/>
      </g>
     </g>
    </g>
    <g id="xtick_10">
     <g id="line2d_16">
      <g>
       <use xlink:href="#m70c019ad12" x="207.83529" y="355.508103" style="fill: #07a8ff; stroke: #07a8ff"/>
      </g>
     </g>
    </g>
    <g id="xtick_11">
     <g id="line2d_17">
      <g>
       <use xlink:href="#m70c019ad12" x="239.128504" y="355.508103" style="fill: #07a8ff; stroke: #07a8ff"/>
      </g>
     </g>
    </g>
    <g id="xtick_12">
     <g id="line2d_18">
      <g>
       <use xlink:href="#m70c019ad12" x="270.421719" y="355.508103" style="fill: #07a8ff; stroke: #07a8ff"/>
      </g>
     </g>
    </g>
    <g id="xtick_13">
     <g id="line2d_19">
      <g>
       <use xlink:href="#m70c019ad12" x="333.008147" y="355.508103" style="fill: #07a8ff; stroke: #07a8ff"/>
      </g>
     </g>
    </g>
    <g id="xtick_14">
     <g id="line2d_20">
      <g>
       <use xlink:href="#m70c019ad12" x="364.301362" y="355.508103" style="fill: #07a8ff; stroke: #07a8ff"/>
      </g>
     </g>
    </g>
    <g id="xtick_15">
     <g id="line2d_21">
      <g>
       <use xlink:href="#m70c019ad12" x="395.594576" y="355.508103" style="fill: #07a8ff; stroke: #07a8ff"/>
      </g>
     </g>
    </g>
    <g id="xtick_16">
     <g id="line2d_22">
      <g>
       <use xlink:href="#m70c019ad12" x="458.181004" y="355.508103" style="fill: #07a8ff; stroke: #07a8ff"/>
      </g>
     </g>
    </g>
    <g id="xtick_17">
     <g id="line2d_23">
      <g>
       <use xlink:href="#m70c019ad12" x="489.474219" y="355.508103" style="fill: #07a8ff; stroke: #07a8ff"/>
      </g>
     </g>
    </g>
    <g id="xtick_18">
     <g id="line2d_24">
      <g>
       <use xlink:href="#m70c019ad12" x="520.767433" y="355.508103" style="fill: #07a8ff; stroke: #07a8ff"/>
      </g>
     </g>
    </g>
    <g id="xtick_19">
     <g id="line2d_25">
      <g>
       <use xlink:href="#m70c019ad12" x="583.353862" y="355.508103" style="fill: #07a8ff; stroke: #07a8ff"/>
      </g>
     </g>
    </g>
    <g id="xtick_20">
     <g id="line2d_26">
      <g>
       <use xlink:href="#m70c019ad12" x="614.647076" y="355.508103" style="fill: #07a8ff; stroke: #07a8ff"/>
      </g>
     </g>
    </g>
    <g id="xtick_21">
     <g id="line2d_27">
      <g>
       <use xlink:href="#m70c019ad12" x="645.94029" y="355.508103" style="fill: #07a8ff; stroke: #07a8ff"/>
      </g>
     </g>
    </g>
    <g id="text_7">
     <!-- Datum/Zeit (MESZ) -->
     <g style="fill: #262626" transform="translate(308.327221 405.693884) scale(0.13 -0.13)">
      <defs>
       <path id="ArialMT-44" d="M 494 0 
L 494 4581 
L 2072 4581 
Q 2606 4581 2888 4516 
Q 3281 4425 3559 4188 
Q 3922 3881 4101 3404 
Q 4281 2928 4281 2316 
Q 4281 1794 4159 1391 
Q 4038 988 3847 723 
Q 3656 459 3429 307 
Q 3203 156 2883 78 
Q 2563 0 2147 0 
L 494 0 
z
M 1100 541 
L 2078 541 
Q 2531 541 2789 625 
Q 3047 709 3200 863 
Q 3416 1078 3536 1442 
Q 3656 1806 3656 2325 
Q 3656 3044 3420 3430 
Q 3184 3816 2847 3947 
Q 2603 4041 2063 4041 
L 1100 4041 
L 1100 541 
z
" transform="scale(0.015625)"/>
       <path id="ArialMT-61" d="M 2588 409 
Q 2275 144 1986 34 
Q 1697 -75 1366 -75 
Q 819 -75 525 192 
Q 231 459 231 875 
Q 231 1119 342 1320 
Q 453 1522 633 1644 
Q 813 1766 1038 1828 
Q 1203 1872 1538 1913 
Q 2219 1994 2541 2106 
Q 2544 2222 2544 2253 
Q 2544 2597 2384 2738 
Q 2169 2928 1744 2928 
Q 1347 2928 1158 2789 
Q 969 2650 878 2297 
L 328 2372 
Q 403 2725 575 2942 
Q 747 3159 1072 3276 
Q 1397 3394 1825 3394 
Q 2250 3394 2515 3294 
Q 2781 3194 2906 3042 
Q 3031 2891 3081 2659 
Q 3109 2516 3109 2141 
L 3109 1391 
Q 3109 606 3145 398 
Q 3181 191 3288 0 
L 2700 0 
Q 2613 175 2588 409 
z
M 2541 1666 
Q 2234 1541 1622 1453 
Q 1275 1403 1131 1340 
Q 988 1278 909 1158 
Q 831 1038 831 891 
Q 831 666 1001 516 
Q 1172 366 1500 366 
Q 1825 366 2078 508 
Q 2331 650 2450 897 
Q 2541 1088 2541 1459 
L 2541 1666 
z
" transform="scale(0.015625)"/>
       <path id="ArialMT-74" d="M 1650 503 
L 1731 6 
Q 1494 -44 1306 -44 
Q 1000 -44 831 53 
Q 663 150 594 308 
Q 525 466 525 972 
L 525 2881 
L 113 2881 
L 113 3319 
L 525 3319 
L 525 4141 
L 1084 4478 
L 1084 3319 
L 1650 3319 
L 1650 2881 
L 1084 2881 
L 1084 941 
Q 1084 700 1114 631 
Q 1144 563 1211 522 
Q 1278 481 1403 481 
Q 1497 481 1650 503 
z
" transform="scale(0.015625)"/>
       <path id="ArialMT-75" d="M 2597 0 
L 2597 488 
Q 2209 -75 1544 -75 
Q 1250 -75 995 37 
Q 741 150 617 320 
Q 494 491 444 738 
Q 409 903 409 1263 
L 409 3319 
L 972 3319 
L 972 1478 
Q 972 1038 1006 884 
Q 1059 663 1231 536 
Q 1403 409 1656 409 
Q 1909 409 2131 539 
Q 2353 669 2445 892 
Q 2538 1116 2538 1541 
L 2538 3319 
L 3100 3319 
L 3100 0 
L 2597 0 
z
" transform="scale(0.015625)"/>
       <path id="ArialMT-6d" d="M 422 0 
L 422 3319 
L 925 3319 
L 925 2853 
Q 1081 3097 1340 3245 
Q 1600 3394 1931 3394 
Q 2300 3394 2536 3241 
Q 2772 3088 2869 2813 
Q 3263 3394 3894 3394 
Q 4388 3394 4653 3120 
Q 4919 2847 4919 2278 
L 4919 0 
L 4359 0 
L 4359 2091 
Q 4359 2428 4304 2576 
Q 4250 2725 4106 2815 
Q 3963 2906 3769 2906 
Q 3419 2906 3187 2673 
Q 2956 2441 2956 1928 
L 2956 0 
L 2394 0 
L 2394 2156 
Q 2394 2531 2256 2718 
Q 2119 2906 1806 2906 
Q 1569 2906 1367 2781 
Q 1166 2656 1075 2415 
Q 984 2175 984 1722 
L 984 0 
L 422 0 
z
" transform="scale(0.015625)"/>
       <path id="ArialMT-2f" d="M 0 -78 
L 1328 4659 
L 1778 4659 
L 453 -78 
L 0 -78 
z
" transform="scale(0.015625)"/>
       <path id="ArialMT-5a" d="M 128 0 
L 128 563 
L 2475 3497 
Q 2725 3809 2950 4041 
L 394 4041 
L 394 4581 
L 3675 4581 
L 3675 4041 
L 1103 863 
L 825 541 
L 3750 541 
L 3750 0 
L 128 0 
z
" transform="scale(0.015625)"/>
       <path id="ArialMT-65" d="M 2694 1069 
L 3275 997 
Q 3138 488 2766 206 
Q 2394 -75 1816 -75 
Q 1088 -75 661 373 
Q 234 822 234 1631 
Q 234 2469 665 2931 
Q 1097 3394 1784 3394 
Q 2450 3394 2872 2941 
Q 3294 2488 3294 1666 
Q 3294 1616 3291 1516 
L 816 1516 
Q 847 969 1125 678 
Q 1403 388 1819 388 
Q 2128 388 2347 550 
Q 2566 713 2694 1069 
z
M 847 1978 
L 2700 1978 
Q 2663 2397 2488 2606 
Q 2219 2931 1791 2931 
Q 1403 2931 1139 2672 
Q 875 2413 847 1978 
z
" transform="scale(0.015625)"/>
       <path id="ArialMT-69" d="M 425 3934 
L 425 4581 
L 988 4581 
L 988 3934 
L 425 3934 
z
M 425 0 
L 425 3319 
L 988 3319 
L 988 0 
L 425 0 
z
" transform="scale(0.015625)"/>
       <path id="ArialMT-20" transform="scale(0.015625)"/>
       <path id="ArialMT-28" d="M 1497 -1347 
Q 1031 -759 709 28 
Q 388 816 388 1659 
Q 388 2403 628 3084 
Q 909 3875 1497 4659 
L 1900 4659 
Q 1522 4009 1400 3731 
Q 1209 3300 1100 2831 
Q 966 2247 966 1656 
Q 966 153 1900 -1347 
L 1497 -1347 
z
" transform="scale(0.015625)"/>
       <path id="ArialMT-4d" d="M 475 0 
L 475 4581 
L 1388 4581 
L 2472 1338 
Q 2622 884 2691 659 
Q 2769 909 2934 1394 
L 4031 4581 
L 4847 4581 
L 4847 0 
L 4263 0 
L 4263 3834 
L 2931 0 
L 2384 0 
L 1059 3900 
L 1059 0 
L 475 0 
z
" transform="scale(0.015625)"/>
       <path id="ArialMT-45" d="M 506 0 
L 506 4581 
L 3819 4581 
L 3819 4041 
L 1113 4041 
L 1113 2638 
L 3647 2638 
L 3647 2100 
L 1113 2100 
L 1113 541 
L 3925 541 
L 3925 0 
L 506 0 
z
" transform="scale(0.015625)"/>
       <path id="ArialMT-53" d="M 288 1472 
L 859 1522 
Q 900 1178 1048 958 
Q 1197 738 1509 602 
Q 1822 466 2213 466 
Q 2559 466 2825 569 
Q 3091 672 3220 851 
Q 3350 1031 3350 1244 
Q 3350 1459 3225 1620 
Q 3100 1781 2813 1891 
Q 2628 1963 1997 2114 
Q 1366 2266 1113 2400 
Q 784 2572 623 2826 
Q 463 3081 463 3397 
Q 463 3744 659 4045 
Q 856 4347 1234 4503 
Q 1613 4659 2075 4659 
Q 2584 4659 2973 4495 
Q 3363 4331 3572 4012 
Q 3781 3694 3797 3291 
L 3216 3247 
Q 3169 3681 2898 3903 
Q 2628 4125 2100 4125 
Q 1550 4125 1298 3923 
Q 1047 3722 1047 3438 
Q 1047 3191 1225 3031 
Q 1400 2872 2139 2705 
Q 2878 2538 3153 2413 
Q 3553 2228 3743 1945 
Q 3934 1663 3934 1294 
Q 3934 928 3725 604 
Q 3516 281 3123 101 
Q 2731 -78 2241 -78 
Q 1619 -78 1198 103 
Q 778 284 539 648 
Q 300 1013 288 1472 
z
" transform="scale(0.015625)"/>
       <path id="ArialMT-29" d="M 791 -1347 
L 388 -1347 
Q 1322 153 1322 1656 
Q 1322 2244 1188 2822 
Q 1081 3291 891 3722 
Q 769 4003 388 4659 
L 791 4659 
Q 1378 3875 1659 3084 
Q 1900 2403 1900 1659 
Q 1900 816 1576 28 
Q 1253 -759 791 -1347 
z
" transform="scale(0.015625)"/>
      </defs>
      <use xlink:href="#ArialMT-44"/>
      <use xlink:href="#ArialMT-61" x="72.216797"/>
      <use xlink:href="#ArialMT-74" x="127.832031"/>
      <use xlink:href="#ArialMT-75" x="155.615234"/>
      <use xlink:href="#ArialMT-6d" x="211.230469"/>
      <use xlink:href="#ArialMT-2f" x="294.53125"/>
      <use xlink:href="#ArialMT-5a" x="322.314453"/>
      <use xlink:href="#ArialMT-65" x="383.398438"/>
      <use xlink:href="#ArialMT-69" x="439.013672"/>
      <use xlink:href="#ArialMT-74" x="461.230469"/>
      <use xlink:href="#ArialMT-20" x="489.013672"/>
      <use xlink:href="#ArialMT-28" x="516.796875"/>
      <use xlink:href="#ArialMT-4d" x="550.097656"/>
      <use xlink:href="#ArialMT-45" x="633.398438"/>
      <use xlink:href="#ArialMT-53" x="700.097656"/>
      <use xlink:href="#ArialMT-5a" x="766.796875"/>
      <use xlink:href="#ArialMT-29" x="827.880859"/>
     </g>
    </g>
   </g>
   <g id="matplotlib.axis_2">
    <g id="ytick_1">
     <g id="line2d_28">
      <path d="M 51.369219 355.508103 
L 677.233504 355.508103 
" clip-path="url(#p25845db2b5)" style="fill: none; stroke: #a9dffc; stroke-linecap: square"/>
     </g>
     <g id="line2d_29">
      <defs>
       <path id="m736ecfee0d" d="M 0 0 
L -6 0 
" style="stroke: #07a8ff"/>
      </defs>
      <g>
       <use xlink:href="#m736ecfee0d" x="51.369219" y="355.508103" style="fill: #07a8ff; stroke: #07a8ff"/>
      </g>
     </g>
     <g id="text_8">
      <!-- 22 -->
      <g transform="translate(27.247344 359.087009) scale(0.1 -0.1)">
       <use xlink:href="#ArialMT-32"/>
       <use xlink:href="#ArialMT-32" x="55.615234"/>
      </g>
     </g>
    </g>
    <g id="ytick_2">
     <g id="line2d_30">
      <path d="M 51.369219 319.353817 
L 677.233504 319.353817 
" clip-path="url(#p25845db2b5)" style="fill: none; stroke: #a9dffc; stroke-linecap: square"/>
     </g>
     <g id="line2d_31">
      <g>
       <use xlink:href="#m736ecfee0d" x="51.369219" y="319.353817" style="fill: #07a8ff; stroke: #07a8ff"/>
      </g>
     </g>
     <g id="text_9">
      <!-- 23 -->
      <g transform="translate(27.247344 322.932723) scale(0.1 -0.1)">
       <defs>
        <path id="ArialMT-33" d="M 269 1209 
L 831 1284 
Q 928 806 1161 595 
Q 1394 384 1728 384 
Q 2125 384 2398 659 
Q 2672 934 2672 1341 
Q 2672 1728 2419 1979 
Q 2166 2231 1775 2231 
Q 1616 2231 1378 2169 
L 1441 2663 
Q 1497 2656 1531 2656 
Q 1891 2656 2178 2843 
Q 2466 3031 2466 3422 
Q 2466 3731 2256 3934 
Q 2047 4138 1716 4138 
Q 1388 4138 1169 3931 
Q 950 3725 888 3313 
L 325 3413 
Q 428 3978 793 4289 
Q 1159 4600 1703 4600 
Q 2078 4600 2393 4439 
Q 2709 4278 2876 4000 
Q 3044 3722 3044 3409 
Q 3044 3113 2884 2869 
Q 2725 2625 2413 2481 
Q 2819 2388 3044 2092 
Q 3269 1797 3269 1353 
Q 3269 753 2831 336 
Q 2394 -81 1725 -81 
Q 1122 -81 723 278 
Q 325 638 269 1209 
z
" transform="scale(0.015625)"/>
       </defs>
       <use xlink:href="#ArialMT-32"/>
       <use xlink:href="#ArialMT-33" x="55.615234"/>
      </g>
     </g>
    </g>
    <g id="ytick_3">
     <g id="line2d_32">
      <path d="M 51.369219 283.199531 
L 677.233504 283.199531 
" clip-path="url(#p25845db2b5)" style="fill: none; stroke: #a9dffc; stroke-linecap: square"/>
     </g>
     <g id="line2d_33">
      <g>
       <use xlink:href="#m736ecfee0d" x="51.369219" y="283.199531" style="fill: #07a8ff; stroke: #07a8ff"/>
      </g>
     </g>
     <g id="text_10">
      <!-- 24 -->
      <g transform="translate(27.247344 286.778437) scale(0.1 -0.1)">
       <use xlink:href="#ArialMT-32"/>
       <use xlink:href="#ArialMT-34" x="55.615234"/>
      </g>
     </g>
    </g>
    <g id="ytick_4">
     <g id="line2d_34">
      <path d="M 51.369219 247.045246 
L 677.233504 247.045246 
" clip-path="url(#p25845db2b5)" style="fill: none; stroke: #a9dffc; stroke-linecap: square"/>
     </g>
     <g id="line2d_35">
      <g>
       <use xlink:href="#m736ecfee0d" x="51.369219" y="247.045246" style="fill: #07a8ff; stroke: #07a8ff"/>
      </g>
     </g>
     <g id="text_11">
      <!-- 25 -->
      <g transform="translate(27.247344 250.624152) scale(0.1 -0.1)">
       <use xlink:href="#ArialMT-32"/>
       <use xlink:href="#ArialMT-35" x="55.615234"/>
      </g>
     </g>
    </g>
    <g id="ytick_5">
     <g id="line2d_36">
      <path d="M 51.369219 210.89096 
L 677.233504 210.89096 
" clip-path="url(#p25845db2b5)" style="fill: none; stroke: #a9dffc; stroke-linecap: square"/>
     </g>
     <g id="line2d_37">
      <g>
       <use xlink:href="#m736ecfee0d" x="51.369219" y="210.89096" style="fill: #07a8ff; stroke: #07a8ff"/>
      </g>
     </g>
     <g id="text_12">
      <!-- 26 -->
      <g transform="translate(27.247344 214.469866) scale(0.1 -0.1)">
       <use xlink:href="#ArialMT-32"/>
       <use xlink:href="#ArialMT-36" x="55.615234"/>
      </g>
     </g>
    </g>
    <g id="ytick_6">
     <g id="line2d_38">
      <path d="M 51.369219 174.736674 
L 677.233504 174.736674 
" clip-path="url(#p25845db2b5)" style="fill: none; stroke: #a9dffc; stroke-linecap: square"/>
     </g>
     <g id="line2d_39">
      <g>
       <use xlink:href="#m736ecfee0d" x="51.369219" y="174.736674" style="fill: #07a8ff; stroke: #07a8ff"/>
      </g>
     </g>
     <g id="text_13">
      <!-- 27 -->
      <g transform="translate(27.247344 178.31558) scale(0.1 -0.1)">
       <defs>
        <path id="ArialMT-37" d="M 303 3981 
L 303 4522 
L 3269 4522 
L 3269 4084 
Q 2831 3619 2401 2847 
Q 1972 2075 1738 1259 
Q 1569 684 1522 0 
L 944 0 
Q 953 541 1156 1306 
Q 1359 2072 1739 2783 
Q 2119 3494 2547 3981 
L 303 3981 
z
" transform="scale(0.015625)"/>
       </defs>
       <use xlink:href="#ArialMT-32"/>
       <use xlink:href="#ArialMT-37" x="55.615234"/>
      </g>
     </g>
    </g>
    <g id="ytick_7">
     <g id="line2d_40">
      <path d="M 51.369219 138.582388 
L 677.233504 138.582388 
" clip-path="url(#p25845db2b5)" style="fill: none; stroke: #a9dffc; stroke-linecap: square"/>
     </g>
     <g id="line2d_41">
      <g>
       <use xlink:href="#m736ecfee0d" x="51.369219" y="138.582388" style="fill: #07a8ff; stroke: #07a8ff"/>
      </g>
     </g>
     <g id="text_14">
      <!-- 28 -->
      <g transform="translate(27.247344 142.161295) scale(0.1 -0.1)">
       <use xlink:href="#ArialMT-32"/>
       <use xlink:href="#ArialMT-38" x="55.615234"/>
      </g>
     </g>
    </g>
    <g id="ytick_8">
     <g id="line2d_42">
      <path d="M 51.369219 102.428103 
L 677.233504 102.428103 
" clip-path="url(#p25845db2b5)" style="fill: none; stroke: #a9dffc; stroke-linecap: square"/>
     </g>
     <g id="line2d_43">
      <g>
       <use xlink:href="#m736ecfee0d" x="51.369219" y="102.428103" style="fill: #07a8ff; stroke: #07a8ff"/>
      </g>
     </g>
     <g id="text_15">
      <!-- 29 -->
      <g transform="translate(27.247344 106.007009) scale(0.1 -0.1)">
       <defs>
        <path id="ArialMT-39" d="M 350 1059 
L 891 1109 
Q 959 728 1153 556 
Q 1347 384 1650 384 
Q 1909 384 2104 503 
Q 2300 622 2425 820 
Q 2550 1019 2634 1356 
Q 2719 1694 2719 2044 
Q 2719 2081 2716 2156 
Q 2547 1888 2255 1720 
Q 1963 1553 1622 1553 
Q 1053 1553 659 1965 
Q 266 2378 266 3053 
Q 266 3750 677 4175 
Q 1088 4600 1706 4600 
Q 2153 4600 2523 4359 
Q 2894 4119 3086 3673 
Q 3278 3228 3278 2384 
Q 3278 1506 3087 986 
Q 2897 466 2520 194 
Q 2144 -78 1638 -78 
Q 1100 -78 759 220 
Q 419 519 350 1059 
z
M 2653 3081 
Q 2653 3566 2395 3850 
Q 2138 4134 1775 4134 
Q 1400 4134 1122 3828 
Q 844 3522 844 3034 
Q 844 2597 1108 2323 
Q 1372 2050 1759 2050 
Q 2150 2050 2401 2323 
Q 2653 2597 2653 3081 
z
" transform="scale(0.015625)"/>
       </defs>
       <use xlink:href="#ArialMT-32"/>
       <use xlink:href="#ArialMT-39" x="55.615234"/>
      </g>
     </g>
    </g>
    <g id="ytick_9">
     <g id="line2d_44">
      <path d="M 51.369219 66.273817 
L 677.233504 66.273817 
" clip-path="url(#p25845db2b5)" style="fill: none; stroke: #a9dffc; stroke-linecap: square"/>
     </g>
     <g id="line2d_45">
      <g>
       <use xlink:href="#m736ecfee0d" x="51.369219" y="66.273817" style="fill: #07a8ff; stroke: #07a8ff"/>
      </g>
     </g>
     <g id="text_16">
      <!-- 30 -->
      <g transform="translate(27.247344 69.852723) scale(0.1 -0.1)">
       <use xlink:href="#ArialMT-33"/>
       <use xlink:href="#ArialMT-30" x="55.615234"/>
      </g>
     </g>
    </g>
    <g id="ytick_10">
     <g id="line2d_46">
      <path d="M 51.369219 30.119531 
L 677.233504 30.119531 
" clip-path="url(#p25845db2b5)" style="fill: none; stroke: #a9dffc; stroke-linecap: square"/>
     </g>
     <g id="line2d_47">
      <g>
       <use xlink:href="#m736ecfee0d" x="51.369219" y="30.119531" style="fill: #07a8ff; stroke: #07a8ff"/>
      </g>
     </g>
     <g id="text_17">
      <!-- 31 -->
      <g transform="translate(27.247344 33.698437) scale(0.1 -0.1)">
       <defs>
        <path id="ArialMT-31" d="M 2384 0 
L 1822 0 
L 1822 3584 
Q 1619 3391 1289 3197 
Q 959 3003 697 2906 
L 697 3450 
Q 1169 3672 1522 3987 
Q 1875 4303 2022 4600 
L 2384 4600 
L 2384 0 
z
" transform="scale(0.015625)"/>
       </defs>
       <use xlink:href="#ArialMT-33"/>
       <use xlink:href="#ArialMT-31" x="55.615234"/>
      </g>
     </g>
    </g>
    <g id="ytick_11">
     <g id="line2d_48">
      <defs>
       <path id="md098abdde1" d="M 0 0 
L -2 0 
" style="stroke: #07a8ff"/>
      </defs>
      <g>
       <use xlink:href="#md098abdde1" x="51.369219" y="348.277246" style="fill: #07a8ff; stroke: #07a8ff"/>
      </g>
     </g>
    </g>
    <g id="ytick_12">
     <g id="line2d_49">
      <g>
       <use xlink:href="#md098abdde1" x="51.369219" y="341.046388" style="fill: #07a8ff; stroke: #07a8ff"/>
      </g>
     </g>
    </g>
    <g id="ytick_13">
     <g id="line2d_50">
      <g>
       <use xlink:href="#md098abdde1" x="51.369219" y="333.815531" style="fill: #07a8ff; stroke: #07a8ff"/>
      </g>
     </g>
    </g>
    <g id="ytick_14">
     <g id="line2d_51">
      <g>
       <use xlink:href="#md098abdde1" x="51.369219" y="326.584674" style="fill: #07a8ff; stroke: #07a8ff"/>
      </g>
     </g>
    </g>
    <g id="ytick_15">
     <g id="line2d_52">
      <g>
       <use xlink:href="#md098abdde1" x="51.369219" y="312.12296" style="fill: #07a8ff; stroke: #07a8ff"/>
      </g>
     </g>
    </g>
    <g id="ytick_16">
     <g id="line2d_53">
      <g>
       <use xlink:href="#md098abdde1" x="51.369219" y="304.892103" style="fill: #07a8ff; stroke: #07a8ff"/>
      </g>
     </g>
    </g>
    <g id="ytick_17">
     <g id="line2d_54">
      <g>
       <use xlink:href="#md098abdde1" x="51.369219" y="297.661246" style="fill: #07a8ff; stroke: #07a8ff"/>
      </g>
     </g>
    </g>
    <g id="ytick_18">
     <g id="line2d_55">
      <g>
       <use xlink:href="#md098abdde1" x="51.369219" y="290.430388" style="fill: #07a8ff; stroke: #07a8ff"/>
      </g>
     </g>
    </g>
    <g id="ytick_19">
     <g id="line2d_56">
      <g>
       <use xlink:href="#md098abdde1" x="51.369219" y="275.968674" style="fill: #07a8ff; stroke: #07a8ff"/>
      </g>
     </g>
    </g>
    <g id="ytick_20">
     <g id="line2d_57">
      <g>
       <use xlink:href="#md098abdde1" x="51.369219" y="268.737817" style="fill: #07a8ff; stroke: #07a8ff"/>
      </g>
     </g>
    </g>
    <g id="ytick_21">
     <g id="line2d_58">
      <g>
       <use xlink:href="#md098abdde1" x="51.369219" y="261.50696" style="fill: #07a8ff; stroke: #07a8ff"/>
      </g>
     </g>
    </g>
    <g id="ytick_22">
     <g id="line2d_59">
      <g>
       <use xlink:href="#md098abdde1" x="51.369219" y="254.276103" style="fill: #07a8ff; stroke: #07a8ff"/>
      </g>
     </g>
    </g>
    <g id="ytick_23">
     <g id="line2d_60">
      <g>
       <use xlink:href="#md098abdde1" x="51.369219" y="239.814388" style="fill: #07a8ff; stroke: #07a8ff"/>
      </g>
     </g>
    </g>
    <g id="ytick_24">
     <g id="line2d_61">
      <g>
       <use xlink:href="#md098abdde1" x="51.369219" y="232.583531" style="fill: #07a8ff; stroke: #07a8ff"/>
      </g>
     </g>
    </g>
    <g id="ytick_25">
     <g id="line2d_62">
      <g>
       <use xlink:href="#md098abdde1" x="51.369219" y="225.352674" style="fill: #07a8ff; stroke: #07a8ff"/>
      </g>
     </g>
    </g>
    <g id="ytick_26">
     <g id="line2d_63">
      <g>
       <use xlink:href="#md098abdde1" x="51.369219" y="218.121817" style="fill: #07a8ff; stroke: #07a8ff"/>
      </g>
     </g>
    </g>
    <g id="ytick_27">
     <g id="line2d_64">
      <g>
       <use xlink:href="#md098abdde1" x="51.369219" y="203.660103" style="fill: #07a8ff; stroke: #07a8ff"/>
      </g>
     </g>
    </g>
    <g id="ytick_28">
     <g id="line2d_65">
      <g>
       <use xlink:href="#md098abdde1" x="51.369219" y="196.429246" style="fill: #07a8ff; stroke: #07a8ff"/>
      </g>
     </g>
    </g>
    <g id="ytick_29">
     <g id="line2d_66">
      <g>
       <use xlink:href="#md098abdde1" x="51.369219" y="189.198388" style="fill: #07a8ff; stroke: #07a8ff"/>
      </g>
     </g>
    </g>
    <g id="ytick_30">
     <g id="line2d_67">
      <g>
       <use xlink:href="#md098abdde1" x="51.369219" y="181.967531" style="fill: #07a8ff; stroke: #07a8ff"/>
      </g>
     </g>
    </g>
    <g id="ytick_31">
     <g id="line2d_68">
      <g>
       <use xlink:href="#md098abdde1" x="51.369219" y="167.505817" style="fill: #07a8ff; stroke: #07a8ff"/>
      </g>
     </g>
    </g>
    <g id="ytick_32">
     <g id="line2d_69">
      <g>
       <use xlink:href="#md098abdde1" x="51.369219" y="160.27496" style="fill: #07a8ff; stroke: #07a8ff"/>
      </g>
     </g>
    </g>
    <g id="ytick_33">
     <g id="line2d_70">
      <g>
       <use xlink:href="#md098abdde1" x="51.369219" y="153.044103" style="fill: #07a8ff; stroke: #07a8ff"/>
      </g>
     </g>
    </g>
    <g id="ytick_34">
     <g id="line2d_71">
      <g>
       <use xlink:href="#md098abdde1" x="51.369219" y="145.813246" style="fill: #07a8ff; stroke: #07a8ff"/>
      </g>
     </g>
    </g>
    <g id="ytick_35">
     <g id="line2d_72">
      <g>
       <use xlink:href="#md098abdde1" x="51.369219" y="131.351531" style="fill: #07a8ff; stroke: #07a8ff"/>
      </g>
     </g>
    </g>
    <g id="ytick_36">
     <g id="line2d_73">
      <g>
       <use xlink:href="#md098abdde1" x="51.369219" y="124.120674" style="fill: #07a8ff; stroke: #07a8ff"/>
      </g>
     </g>
    </g>
    <g id="ytick_37">
     <g id="line2d_74">
      <g>
       <use xlink:href="#md098abdde1" x="51.369219" y="116.889817" style="fill: #07a8ff; stroke: #07a8ff"/>
      </g>
     </g>
    </g>
    <g id="ytick_38">
     <g id="line2d_75">
      <g>
       <use xlink:href="#md098abdde1" x="51.369219" y="109.65896" style="fill: #07a8ff; stroke: #07a8ff"/>
      </g>
     </g>
    </g>
    <g id="ytick_39">
     <g id="line2d_76">
      <g>
       <use xlink:href="#md098abdde1" x="51.369219" y="95.197246" style="fill: #07a8ff; stroke: #07a8ff"/>
      </g>
     </g>
    </g>
    <g id="ytick_40">
     <g id="line2d_77">
      <g>
       <use xlink:href="#md098abdde1" x="51.369219" y="87.966388" style="fill: #07a8ff; stroke: #07a8ff"/>
      </g>
     </g>
    </g>
    <g id="ytick_41">
     <g id="line2d_78">
      <g>
       <use xlink:href="#md098abdde1" x="51.369219" y="80.735531" style="fill: #07a8ff; stroke: #07a8ff"/>
      </g>
     </g>
    </g>
    <g id="ytick_42">
     <g id="line2d_79">
      <g>
       <use xlink:href="#md098abdde1" x="51.369219" y="73.504674" style="fill: #07a8ff; stroke: #07a8ff"/>
      </g>
     </g>
    </g>
    <g id="ytick_43">
     <g id="line2d_80">
      <g>
       <use xlink:href="#md098abdde1" x="51.369219" y="59.04296" style="fill: #07a8ff; stroke: #07a8ff"/>
      </g>
     </g>
    </g>
    <g id="ytick_44">
     <g id="line2d_81">
      <g>
       <use xlink:href="#md098abdde1" x="51.369219" y="51.812103" style="fill: #07a8ff; stroke: #07a8ff"/>
      </g>
     </g>
    </g>
    <g id="ytick_45">
     <g id="line2d_82">
      <g>
       <use xlink:href="#md098abdde1" x="51.369219" y="44.581246" style="fill: #07a8ff; stroke: #07a8ff"/>
      </g>
     </g>
    </g>
    <g id="ytick_46">
     <g id="line2d_83">
      <g>
       <use xlink:href="#md098abdde1" x="51.369219" y="37.350388" style="fill: #07a8ff; stroke: #07a8ff"/>
      </g>
     </g>
    </g>
    <g id="text_18">
     <!-- Temperatur / °C -->
     <g style="fill: #262626" transform="translate(16.663594 238.393036) rotate(-90) scale(0.13 -0.13)">
      <defs>
       <path id="ArialMT-54" d="M 1659 0 
L 1659 4041 
L 150 4041 
L 150 4581 
L 3781 4581 
L 3781 4041 
L 2266 4041 
L 2266 0 
L 1659 0 
z
" transform="scale(0.015625)"/>
       <path id="ArialMT-70" d="M 422 -1272 
L 422 3319 
L 934 3319 
L 934 2888 
Q 1116 3141 1344 3267 
Q 1572 3394 1897 3394 
Q 2322 3394 2647 3175 
Q 2972 2956 3137 2557 
Q 3303 2159 3303 1684 
Q 3303 1175 3120 767 
Q 2938 359 2589 142 
Q 2241 -75 1856 -75 
Q 1575 -75 1351 44 
Q 1128 163 984 344 
L 984 -1272 
L 422 -1272 
z
M 931 1641 
Q 931 1000 1190 694 
Q 1450 388 1819 388 
Q 2194 388 2461 705 
Q 2728 1022 2728 1688 
Q 2728 2322 2467 2637 
Q 2206 2953 1844 2953 
Q 1484 2953 1207 2617 
Q 931 2281 931 1641 
z
" transform="scale(0.015625)"/>
       <path id="ArialMT-72" d="M 416 0 
L 416 3319 
L 922 3319 
L 922 2816 
Q 1116 3169 1280 3281 
Q 1444 3394 1641 3394 
Q 1925 3394 2219 3213 
L 2025 2691 
Q 1819 2813 1613 2813 
Q 1428 2813 1281 2702 
Q 1134 2591 1072 2394 
Q 978 2094 978 1738 
L 978 0 
L 416 0 
z
" transform="scale(0.015625)"/>
       <path id="ArialMT-b0" d="M 400 3794 
Q 400 4153 654 4406 
Q 909 4659 1266 4659 
Q 1628 4659 1881 4406 
Q 2134 4153 2134 3794 
Q 2134 3434 1879 3179 
Q 1625 2925 1266 2925 
Q 909 2925 654 3178 
Q 400 3431 400 3794 
z
M 741 3794 
Q 741 3575 895 3420 
Q 1050 3266 1269 3266 
Q 1484 3266 1639 3420 
Q 1794 3575 1794 3794 
Q 1794 4013 1639 4167 
Q 1484 4322 1269 4322 
Q 1050 4322 895 4167 
Q 741 4013 741 3794 
z
" transform="scale(0.015625)"/>
       <path id="ArialMT-43" d="M 3763 1606 
L 4369 1453 
Q 4178 706 3683 314 
Q 3188 -78 2472 -78 
Q 1731 -78 1267 223 
Q 803 525 561 1097 
Q 319 1669 319 2325 
Q 319 3041 592 3573 
Q 866 4106 1370 4382 
Q 1875 4659 2481 4659 
Q 3169 4659 3637 4309 
Q 4106 3959 4291 3325 
L 3694 3184 
Q 3534 3684 3231 3912 
Q 2928 4141 2469 4141 
Q 1941 4141 1586 3887 
Q 1231 3634 1087 3207 
Q 944 2781 944 2328 
Q 944 1744 1114 1308 
Q 1284 872 1643 656 
Q 2003 441 2422 441 
Q 2931 441 3284 734 
Q 3638 1028 3763 1606 
z
" transform="scale(0.015625)"/>
      </defs>
      <use xlink:href="#ArialMT-54"/>
      <use xlink:href="#ArialMT-65" x="49.958984"/>
      <use xlink:href="#ArialMT-6d" x="105.574219"/>
      <use xlink:href="#ArialMT-70" x="188.875"/>
      <use xlink:href="#ArialMT-65" x="244.490234"/>
      <use xlink:href="#ArialMT-72" x="300.105469"/>
      <use xlink:href="#ArialMT-61" x="333.40625"/>
      <use xlink:href="#ArialMT-74" x="389.021484"/>
      <use xlink:href="#ArialMT-75" x="416.804688"/>
      <use xlink:href="#ArialMT-72" x="472.419922"/>
      <use xlink:href="#ArialMT-20" x="505.720703"/>
      <use xlink:href="#ArialMT-2f" x="533.503906"/>
      <use xlink:href="#ArialMT-20" x="561.287109"/>
      <use xlink:href="#ArialMT-b0" x="589.070312"/>
      <use xlink:href="#ArialMT-43" x="629.060547"/>
     </g>
    </g>
   </g>
   <g id="patch_3">
    <path d="M 113.955647 355.508103 
L 113.955647 30.119531 
L 176.542076 30.119531 
L 176.542076 355.508103 
z
" clip-path="url(#p25845db2b5)" style="fill: #ffc9ff; opacity: 0.6; stroke: #ffc9ff; stroke-width: 0.3; stroke-linejoin: miter"/>
   </g>
   <g id="line2d_84">
    <path d="M 50.326112 75.312388 
L 53.455433 75.312388 
L 56.584754 79.831674 
L 59.714076 82.07324 
L 62.843397 82.07324 
L 65.972719 84.35096 
L 69.10204 84.35096 
L 72.231362 86.592526 
L 75.360683 86.592526 
L 78.490004 88.870246 
L 81.619326 88.870246 
L 84.748647 91.111811 
L 87.877969 95.631097 
L 97.265933 102.428103 
L 103.524576 111.466674 
L 106.653897 113.70824 
L 116.041862 113.70824 
L 119.171183 118.227526 
L 122.300504 120.505246 
L 125.429826 120.505246 
L 128.559147 122.746811 
L 134.81779 131.785383 
L 137.947112 131.785383 
L 141.076433 134.063103 
L 144.205754 134.063103 
L 147.335076 131.785383 
L 150.464397 131.785383 
L 153.593719 134.063103 
L 156.72304 134.063103 
L 159.852362 136.304668 
L 162.981683 136.304668 
L 166.111004 140.823954 
L 169.240326 147.62096 
L 172.369647 152.140246 
L 178.62829 156.659531 
L 181.757612 161.178817 
L 188.016254 165.698103 
L 191.145576 165.698103 
L 194.274897 163.420383 
L 197.404219 163.420383 
L 203.662862 167.939668 
L 206.792183 172.458954 
L 225.568112 186.016811 
L 228.697433 190.536097 
L 234.956076 195.055383 
L 238.085397 199.574668 
L 244.34404 204.093954 
L 247.473362 208.61324 
L 250.602683 210.89096 
L 253.732004 210.89096 
L 263.119969 217.651811 
L 266.24929 222.171097 
L 275.637254 222.171097 
L 278.766576 219.929531 
L 285.025219 219.929531 
L 288.15454 222.171097 
L 291.283862 222.171097 
L 294.413183 224.448817 
L 297.542504 224.448817 
L 300.671826 226.690383 
L 316.318433 226.690383 
L 322.577076 231.209668 
L 325.706397 231.209668 
L 328.835719 233.487388 
L 335.094362 233.487388 
L 338.223683 231.209668 
L 341.353004 233.487388 
L 344.482326 233.487388 
L 347.611647 235.728954 
L 350.740969 240.24824 
L 353.87029 242.52596 
L 356.999612 247.045246 
L 363.258254 251.564531 
L 391.422147 251.564531 
L 394.551469 249.286811 
L 400.810112 249.286811 
L 407.068754 253.806097 
L 416.456719 253.806097 
L 419.58604 251.564531 
L 422.715362 251.564531 
L 425.844683 249.286811 
L 447.749933 249.286811 
L 450.879254 251.564531 
L 454.008576 249.286811 
L 457.137897 251.564531 
L 479.043147 251.564531 
L 482.172469 247.045246 
L 485.30179 247.045246 
L 488.431112 249.286811 
L 491.560433 249.286811 
L 494.689754 247.045246 
L 497.819076 251.564531 
L 500.948397 251.564531 
L 504.077719 256.083817 
L 513.465683 262.844668 
L 516.595004 262.844668 
L 519.724326 260.603103 
L 522.853647 260.603103 
L 535.370933 269.641674 
L 538.500254 274.16096 
L 547.888219 274.16096 
L 551.01754 278.680246 
L 572.92279 294.479668 
L 576.052112 294.479668 
L 585.440076 301.276674 
L 588.569397 301.276674 
L 591.698719 303.51824 
L 601.086683 303.51824 
L 604.216004 301.276674 
L 619.862612 301.276674 
L 622.991933 303.51824 
L 629.250576 303.51824 
L 632.379897 305.79596 
L 635.509219 305.79596 
L 638.63854 308.037526 
L 641.767862 312.556811 
L 651.155826 319.353817 
L 654.285147 319.353817 
L 657.414469 323.873103 
L 660.54379 323.873103 
L 663.673112 326.114668 
L 666.802433 330.633954 
L 676.190397 337.43096 
L 679.319719 341.950246 
L 679.319719 341.950246 
" clip-path="url(#p25845db2b5)" style="fill: none; stroke: #006ba4; stroke-width: 1.75; stroke-linecap: square"/>
   </g>
   <g id="line2d_85">
    <path d="M 49.283004 39.158103 
L 55.541647 43.677388 
L 64.929612 43.677388 
L 68.058933 48.196674 
L 71.188254 48.196674 
L 74.317576 50.43824 
L 77.446897 48.196674 
L 80.576219 48.196674 
L 83.70554 50.43824 
L 86.834862 54.957526 
L 93.093504 59.476811 
L 96.222826 59.476811 
L 99.352147 63.996097 
L 102.481469 70.793103 
L 105.61079 73.034668 
L 108.740112 73.034668 
L 111.869433 75.312388 
L 114.998754 75.312388 
L 118.128076 84.35096 
L 121.257397 91.111811 
L 127.51604 91.111811 
L 130.645362 93.389531 
L 133.774683 100.150383 
L 136.904004 104.669668 
L 140.033326 104.669668 
L 143.162647 102.428103 
L 149.42129 102.428103 
L 152.550612 104.669668 
L 155.679933 111.466674 
L 158.809254 113.70824 
L 161.938576 118.227526 
L 165.067897 120.505246 
L 168.197219 125.024531 
L 171.32654 131.785383 
L 183.843826 131.785383 
L 186.973147 134.063103 
L 190.102469 131.785383 
L 193.23179 131.785383 
L 202.619754 138.582388 
L 205.749076 143.101674 
L 212.007719 143.101674 
L 221.395683 149.862526 
L 224.525004 149.862526 
L 227.654326 154.381811 
L 230.783647 156.659531 
L 233.912969 156.659531 
L 240.171612 161.178817 
L 243.300933 165.698103 
L 249.559576 170.217388 
L 252.688897 170.217388 
L 258.94754 174.736674 
L 262.076862 179.25596 
L 265.206183 186.016811 
L 268.335504 190.536097 
L 271.464826 190.536097 
L 274.594147 188.294531 
L 277.723469 188.294531 
L 280.85279 190.536097 
L 287.111433 190.536097 
L 290.240754 192.813817 
L 312.146004 192.813817 
L 334.051254 208.61324 
L 337.180576 206.371674 
L 343.439219 210.89096 
L 346.56854 217.651811 
L 349.697862 219.929531 
L 352.827183 217.651811 
L 355.956504 217.651811 
L 359.085826 219.929531 
L 362.215147 219.929531 
L 365.344469 222.171097 
L 368.47379 219.929531 
L 371.603112 222.171097 
L 377.861754 222.171097 
L 380.991076 224.448817 
L 384.120397 224.448817 
L 387.249719 228.968103 
L 406.025647 228.968103 
L 415.413612 222.171097 
L 418.542933 222.171097 
L 424.801576 217.651811 
L 427.930897 217.651811 
L 431.060219 215.410246 
L 434.18954 215.410246 
L 437.318862 213.132526 
L 440.448183 213.132526 
L 449.836147 219.929531 
L 452.965469 219.929531 
L 456.09479 222.171097 
L 478.00004 222.171097 
L 481.129362 224.448817 
L 484.258683 224.448817 
L 487.388004 226.690383 
L 490.517326 226.690383 
L 493.646647 231.209668 
L 496.775969 233.487388 
L 506.163933 233.487388 
L 509.293254 235.728954 
L 524.939862 235.728954 
L 531.198504 244.767526 
L 537.457147 249.286811 
L 540.586469 253.806097 
L 553.103754 262.844668 
L 556.233076 262.844668 
L 571.879683 274.16096 
L 575.009004 274.16096 
L 581.267647 278.680246 
L 584.396969 278.680246 
L 590.655612 283.199531 
L 593.784933 283.199531 
L 596.914254 285.441097 
L 600.043576 285.441097 
L 603.172897 283.199531 
L 606.302219 283.199531 
L 609.43154 280.921811 
L 612.560862 280.921811 
L 615.690183 283.199531 
L 618.819504 283.199531 
L 621.948826 285.441097 
L 631.33679 285.441097 
L 634.466112 287.718817 
L 640.724754 287.718817 
L 643.854076 294.479668 
L 650.112719 294.479668 
L 662.630004 303.51824 
L 665.759326 308.037526 
L 668.888647 310.315246 
L 672.017969 310.315246 
L 675.14729 312.556811 
L 678.276612 312.556811 
L 678.276612 312.556811 
" clip-path="url(#p25845db2b5)" style="fill: none; stroke: #ff800e; stroke-width: 1.75; stroke-linecap: square"/>
   </g>
   <g id="line2d_86">
    <path d="M 49.283004 86.592526 
L 52.412326 91.111811 
L 58.670969 95.631097 
L 61.80029 100.150383 
L 64.929612 102.428103 
L 68.058933 106.947388 
L 71.188254 109.188954 
L 74.317576 113.70824 
L 83.70554 120.505246 
L 86.834862 125.024531 
L 93.093504 129.543817 
L 99.352147 138.582388 
L 102.481469 138.582388 
L 105.61079 143.101674 
L 108.740112 145.34324 
L 118.128076 158.901097 
L 121.257397 161.178817 
L 124.386719 161.178817 
L 127.51604 165.698103 
L 133.774683 170.217388 
L 136.904004 174.736674 
L 140.033326 176.97824 
L 143.162647 176.97824 
L 161.938576 190.536097 
L 165.067897 190.536097 
L 168.197219 195.055383 
L 171.32654 197.333103 
L 174.455862 197.333103 
L 177.585183 199.574668 
L 180.714504 204.093954 
L 193.23179 204.093954 
L 196.361112 206.371674 
L 199.490433 206.371674 
L 202.619754 208.61324 
L 205.749076 208.61324 
L 208.878397 213.132526 
L 215.13704 213.132526 
L 221.395683 217.651811 
L 224.525004 222.171097 
L 230.783647 226.690383 
L 233.912969 226.690383 
L 237.04229 228.968103 
L 240.171612 228.968103 
L 249.559576 235.728954 
L 252.688897 235.728954 
L 255.818219 240.24824 
L 258.94754 240.24824 
L 262.076862 242.52596 
L 268.335504 251.564531 
L 271.464826 251.564531 
L 274.594147 249.286811 
L 277.723469 249.286811 
L 280.85279 247.045246 
L 283.982112 249.286811 
L 287.111433 249.286811 
L 293.370076 253.806097 
L 296.499397 251.564531 
L 302.75804 256.083817 
L 305.887362 253.806097 
L 309.016683 253.806097 
L 315.275326 258.325383 
L 318.404647 258.325383 
L 321.533969 262.844668 
L 327.792612 262.844668 
L 330.921933 265.122388 
L 334.051254 265.122388 
L 337.180576 262.844668 
L 340.309897 265.122388 
L 343.439219 269.641674 
L 349.697862 274.16096 
L 355.956504 274.16096 
L 362.215147 278.680246 
L 371.603112 278.680246 
L 374.732433 280.921811 
L 377.861754 280.921811 
L 380.991076 283.199531 
L 384.120397 283.199531 
L 387.249719 285.441097 
L 393.508362 285.441097 
L 396.637683 287.718817 
L 402.896326 287.718817 
L 406.025647 289.960383 
L 409.154969 289.960383 
L 412.28429 287.718817 
L 415.413612 287.718817 
L 418.542933 285.441097 
L 421.672254 285.441097 
L 431.060219 278.680246 
L 434.18954 278.680246 
L 440.448183 274.16096 
L 446.706826 274.16096 
L 449.836147 276.402526 
L 452.965469 274.16096 
L 459.224112 274.16096 
L 462.353433 271.88324 
L 471.741397 271.88324 
L 474.870719 274.16096 
L 496.775969 274.16096 
L 503.034612 269.641674 
L 506.163933 269.641674 
L 509.293254 271.88324 
L 512.422576 271.88324 
L 515.551897 274.16096 
L 518.681219 274.16096 
L 521.81054 271.88324 
L 534.327826 271.88324 
L 537.457147 274.16096 
L 543.71579 274.16096 
L 549.974433 278.680246 
L 553.103754 278.680246 
L 556.233076 280.921811 
L 559.362397 280.921811 
L 565.62104 285.441097 
L 568.750362 285.441097 
L 571.879683 287.718817 
L 575.009004 287.718817 
L 581.267647 292.238103 
L 584.396969 292.238103 
L 590.655612 296.757388 
L 596.914254 296.757388 
L 600.043576 298.998954 
L 603.172897 298.998954 
L 606.302219 296.757388 
L 612.560862 296.757388 
L 618.819504 301.276674 
L 628.207469 301.276674 
L 631.33679 303.51824 
L 634.466112 301.276674 
L 646.983397 310.315246 
L 650.112719 314.834531 
L 656.371362 319.353817 
L 659.500683 323.873103 
L 675.14729 335.15324 
L 678.276612 335.15324 
L 678.276612 335.15324 
" clip-path="url(#p25845db2b5)" style="fill: none; stroke: #ababab; stroke-width: 1.75; stroke-linecap: square"/>
   </g>
   <g id="line2d_87">
    <path d="M 49.283004 63.996097 
L 52.412326 68.515383 
L 61.80029 75.312388 
L 71.188254 75.312388 
L 74.317576 73.034668 
L 77.446897 75.312388 
L 83.70554 75.312388 
L 93.093504 88.870246 
L 96.222826 95.631097 
L 102.481469 100.150383 
L 108.740112 100.150383 
L 127.51604 113.70824 
L 130.645362 113.70824 
L 133.774683 111.466674 
L 140.033326 111.466674 
L 146.291969 115.98596 
L 149.42129 115.98596 
L 152.550612 118.227526 
L 155.679933 118.227526 
L 161.938576 122.746811 
L 165.067897 122.746811 
L 168.197219 125.024531 
L 171.32654 129.543817 
L 177.585183 134.063103 
L 180.714504 134.063103 
L 183.843826 136.304668 
L 190.102469 136.304668 
L 193.23179 138.582388 
L 202.619754 138.582388 
L 205.749076 140.823954 
L 208.878397 140.823954 
L 212.007719 145.34324 
L 218.266362 149.862526 
L 221.395683 149.862526 
L 224.525004 152.140246 
L 227.654326 152.140246 
L 230.783647 154.381811 
L 233.912969 154.381811 
L 240.171612 158.901097 
L 246.430254 167.939668 
L 249.559576 170.217388 
L 252.688897 174.736674 
L 258.94754 179.25596 
L 262.076862 183.775246 
L 265.206183 186.016811 
L 268.335504 190.536097 
L 290.240754 206.371674 
L 299.628719 213.132526 
L 302.75804 213.132526 
L 305.887362 210.89096 
L 309.016683 210.89096 
L 312.146004 208.61324 
L 315.275326 210.89096 
L 318.404647 208.61324 
L 321.533969 210.89096 
L 324.66329 210.89096 
L 334.051254 217.651811 
L 337.180576 217.651811 
L 349.697862 226.690383 
L 355.956504 226.690383 
L 359.085826 228.968103 
L 362.215147 228.968103 
L 365.344469 231.209668 
L 371.603112 231.209668 
L 374.732433 233.487388 
L 377.861754 233.487388 
L 380.991076 235.728954 
L 384.120397 233.487388 
L 387.249719 233.487388 
L 390.37904 231.209668 
L 393.508362 233.487388 
L 396.637683 233.487388 
L 402.896326 238.006674 
L 412.28429 238.006674 
L 415.413612 235.728954 
L 418.542933 235.728954 
L 421.672254 233.487388 
L 427.930897 238.006674 
L 437.318862 238.006674 
L 440.448183 240.24824 
L 446.706826 240.24824 
L 449.836147 242.52596 
L 452.965469 242.52596 
L 456.09479 244.767526 
L 462.353433 244.767526 
L 465.482754 247.045246 
L 468.612076 247.045246 
L 471.741397 249.286811 
L 478.00004 249.286811 
L 484.258683 253.806097 
L 487.388004 253.806097 
L 490.517326 256.083817 
L 493.646647 256.083817 
L 496.775969 258.325383 
L 503.034612 258.325383 
L 506.163933 260.603103 
L 524.939862 260.603103 
L 528.069183 262.844668 
L 531.198504 262.844668 
L 534.327826 265.122388 
L 537.457147 269.641674 
L 549.974433 278.680246 
L 553.103754 283.199531 
L 556.233076 283.199531 
L 575.009004 296.757388 
L 578.138326 296.757388 
L 584.396969 301.276674 
L 590.655612 301.276674 
L 593.784933 303.51824 
L 596.914254 303.51824 
L 600.043576 305.79596 
L 615.690183 305.79596 
L 628.207469 314.834531 
L 631.33679 314.834531 
L 640.724754 321.595383 
L 646.983397 321.595383 
L 650.112719 326.114668 
L 656.371362 330.633954 
L 665.759326 330.633954 
L 672.017969 335.15324 
L 678.276612 335.15324 
L 678.276612 335.15324 
" clip-path="url(#p25845db2b5)" style="fill: none; stroke: #595959; stroke-width: 1.75; stroke-linecap: square"/>
   </g>
   <g id="line2d_88">
    <path d="M 51.369219 133.008301 
L 145.248862 133.008301 
" clip-path="url(#p25845db2b5)" style="fill: none; stroke-dasharray: 6.475,2.8; stroke-dashoffset: 0; stroke: #ff05ff; stroke-width: 1.75"/>
   </g>
   <g id="line2d_89">
    <defs>
     <path id="mf02ce81ad7" d="M -3 3 
L 3 -3 
M -3 -3 
L 3 3 
" style="stroke: #006ba4"/>
    </defs>
    <g clip-path="url(#p25845db2b5)">
     <use xlink:href="#mf02ce81ad7" x="145.248862" y="132.696471" style="fill: #006ba4; stroke: #006ba4"/>
    </g>
   </g>
   <g id="line2d_90">
    <defs>
     <path id="m58b7ee4362" d="M -3 3 
L 3 -3 
M -3 -3 
L 3 3 
" style="stroke: #ff800e"/>
    </defs>
    <g clip-path="url(#p25845db2b5)">
     <use xlink:href="#m58b7ee4362" x="145.248862" y="105.01675" style="fill: #ff800e; stroke: #ff800e"/>
    </g>
   </g>
   <g id="line2d_91">
    <defs>
     <path id="ma1f0bdffd3" d="M -3 3 
L 3 -3 
M -3 -3 
L 3 3 
" style="stroke: #ababab"/>
    </defs>
    <g clip-path="url(#p25845db2b5)">
     <use xlink:href="#ma1f0bdffd3" x="145.248862" y="177.891136" style="fill: #ababab; stroke: #ababab"/>
    </g>
   </g>
   <g id="line2d_92">
    <defs>
     <path id="m3fcb5b9c44" d="M -3 3 
L 3 -3 
M -3 -3 
L 3 3 
" style="stroke: #595959"/>
    </defs>
    <g clip-path="url(#p25845db2b5)">
     <use xlink:href="#m3fcb5b9c44" x="145.248862" y="116.42885" style="fill: #595959; stroke: #595959"/>
    </g>
   </g>
   <g id="line2d_93">
    <defs>
     <path id="me70292e6ea" d="M 0 3 
C 0.795609 3 1.55874 2.683901 2.12132 2.12132 
C 2.683901 1.55874 3 0.795609 3 0 
C 3 -0.795609 2.683901 -1.55874 2.12132 -2.12132 
C 1.55874 -2.683901 0.795609 -3 0 -3 
C -0.795609 -3 -1.55874 -2.683901 -2.12132 -2.12132 
C -2.683901 -1.55874 -3 -0.795609 -3 0 
C -3 0.795609 -2.683901 1.55874 -2.12132 2.12132 
C -1.55874 2.683901 -0.795609 3 0 3 
z
" style="stroke: #ff05ff"/>
    </defs>
    <g clip-path="url(#p25845db2b5)">
     <use xlink:href="#me70292e6ea" x="145.248862" y="133.008301" style="fill: #ff05ff; stroke: #ff05ff"/>
    </g>
   </g>
   <g id="patch_4">
    <path d="M 51.369219 355.508103 
L 51.369219 30.119531 
" style="fill: none; stroke: #07a8ff; stroke-width: 0.8; stroke-linejoin: miter; stroke-linecap: square"/>
   </g>
   <g id="patch_5">
    <path d="M 51.369219 355.508103 
L 677.233504 355.508103 
" style="fill: none; stroke: #07a8ff; stroke-width: 0.8; stroke-linejoin: miter; stroke-linecap: square"/>
   </g>
   <g id="text_19">
    <!-- Tropennacht 4. August 2022: Ermittlung Tages-Referenztemperatur -->
    <g style="fill: #262626" transform="translate(51.369219 18.119531) scale(0.15 -0.15)">
     <defs>
      <path id="ArialMT-6f" d="M 213 1659 
Q 213 2581 725 3025 
Q 1153 3394 1769 3394 
Q 2453 3394 2887 2945 
Q 3322 2497 3322 1706 
Q 3322 1066 3130 698 
Q 2938 331 2570 128 
Q 2203 -75 1769 -75 
Q 1072 -75 642 372 
Q 213 819 213 1659 
z
M 791 1659 
Q 791 1022 1069 705 
Q 1347 388 1769 388 
Q 2188 388 2466 706 
Q 2744 1025 2744 1678 
Q 2744 2294 2464 2611 
Q 2184 2928 1769 2928 
Q 1347 2928 1069 2612 
Q 791 2297 791 1659 
z
" transform="scale(0.015625)"/>
      <path id="ArialMT-6e" d="M 422 0 
L 422 3319 
L 928 3319 
L 928 2847 
Q 1294 3394 1984 3394 
Q 2284 3394 2536 3286 
Q 2788 3178 2913 3003 
Q 3038 2828 3088 2588 
Q 3119 2431 3119 2041 
L 3119 0 
L 2556 0 
L 2556 2019 
Q 2556 2363 2490 2533 
Q 2425 2703 2258 2804 
Q 2091 2906 1866 2906 
Q 1506 2906 1245 2678 
Q 984 2450 984 1813 
L 984 0 
L 422 0 
z
" transform="scale(0.015625)"/>
      <path id="ArialMT-63" d="M 2588 1216 
L 3141 1144 
Q 3050 572 2676 248 
Q 2303 -75 1759 -75 
Q 1078 -75 664 370 
Q 250 816 250 1647 
Q 250 2184 428 2587 
Q 606 2991 970 3192 
Q 1334 3394 1763 3394 
Q 2303 3394 2647 3120 
Q 2991 2847 3088 2344 
L 2541 2259 
Q 2463 2594 2264 2762 
Q 2066 2931 1784 2931 
Q 1359 2931 1093 2626 
Q 828 2322 828 1663 
Q 828 994 1084 691 
Q 1341 388 1753 388 
Q 2084 388 2306 591 
Q 2528 794 2588 1216 
z
" transform="scale(0.015625)"/>
      <path id="ArialMT-68" d="M 422 0 
L 422 4581 
L 984 4581 
L 984 2938 
Q 1378 3394 1978 3394 
Q 2347 3394 2619 3248 
Q 2891 3103 3008 2847 
Q 3125 2591 3125 2103 
L 3125 0 
L 2563 0 
L 2563 2103 
Q 2563 2525 2380 2717 
Q 2197 2909 1863 2909 
Q 1613 2909 1392 2779 
Q 1172 2650 1078 2428 
Q 984 2206 984 1816 
L 984 0 
L 422 0 
z
" transform="scale(0.015625)"/>
      <path id="ArialMT-41" d="M -9 0 
L 1750 4581 
L 2403 4581 
L 4278 0 
L 3588 0 
L 3053 1388 
L 1138 1388 
L 634 0 
L -9 0 
z
M 1313 1881 
L 2866 1881 
L 2388 3150 
Q 2169 3728 2063 4100 
Q 1975 3659 1816 3225 
L 1313 1881 
z
" transform="scale(0.015625)"/>
      <path id="ArialMT-67" d="M 319 -275 
L 866 -356 
Q 900 -609 1056 -725 
Q 1266 -881 1628 -881 
Q 2019 -881 2231 -725 
Q 2444 -569 2519 -288 
Q 2563 -116 2559 434 
Q 2191 0 1641 0 
Q 956 0 581 494 
Q 206 988 206 1678 
Q 206 2153 378 2554 
Q 550 2956 876 3175 
Q 1203 3394 1644 3394 
Q 2231 3394 2613 2919 
L 2613 3319 
L 3131 3319 
L 3131 450 
Q 3131 -325 2973 -648 
Q 2816 -972 2473 -1159 
Q 2131 -1347 1631 -1347 
Q 1038 -1347 672 -1080 
Q 306 -813 319 -275 
z
M 784 1719 
Q 784 1066 1043 766 
Q 1303 466 1694 466 
Q 2081 466 2343 764 
Q 2606 1063 2606 1700 
Q 2606 2309 2336 2618 
Q 2066 2928 1684 2928 
Q 1309 2928 1046 2623 
Q 784 2319 784 1719 
z
" transform="scale(0.015625)"/>
      <path id="ArialMT-73" d="M 197 991 
L 753 1078 
Q 800 744 1014 566 
Q 1228 388 1613 388 
Q 2000 388 2187 545 
Q 2375 703 2375 916 
Q 2375 1106 2209 1216 
Q 2094 1291 1634 1406 
Q 1016 1563 777 1677 
Q 538 1791 414 1992 
Q 291 2194 291 2438 
Q 291 2659 392 2848 
Q 494 3038 669 3163 
Q 800 3259 1026 3326 
Q 1253 3394 1513 3394 
Q 1903 3394 2198 3281 
Q 2494 3169 2634 2976 
Q 2775 2784 2828 2463 
L 2278 2388 
Q 2241 2644 2061 2787 
Q 1881 2931 1553 2931 
Q 1166 2931 1000 2803 
Q 834 2675 834 2503 
Q 834 2394 903 2306 
Q 972 2216 1119 2156 
Q 1203 2125 1616 2013 
Q 2213 1853 2448 1751 
Q 2684 1650 2818 1456 
Q 2953 1263 2953 975 
Q 2953 694 2789 445 
Q 2625 197 2315 61 
Q 2006 -75 1616 -75 
Q 969 -75 630 194 
Q 291 463 197 991 
z
" transform="scale(0.015625)"/>
      <path id="ArialMT-6c" d="M 409 0 
L 409 4581 
L 972 4581 
L 972 0 
L 409 0 
z
" transform="scale(0.015625)"/>
      <path id="ArialMT-2d" d="M 203 1375 
L 203 1941 
L 1931 1941 
L 1931 1375 
L 203 1375 
z
" transform="scale(0.015625)"/>
      <path id="ArialMT-52" d="M 503 0 
L 503 4581 
L 2534 4581 
Q 3147 4581 3465 4457 
Q 3784 4334 3975 4021 
Q 4166 3709 4166 3331 
Q 4166 2844 3850 2509 
Q 3534 2175 2875 2084 
Q 3116 1969 3241 1856 
Q 3506 1613 3744 1247 
L 4541 0 
L 3778 0 
L 3172 953 
Q 2906 1366 2734 1584 
Q 2563 1803 2427 1890 
Q 2291 1978 2150 2013 
Q 2047 2034 1813 2034 
L 1109 2034 
L 1109 0 
L 503 0 
z
M 1109 2559 
L 2413 2559 
Q 2828 2559 3062 2645 
Q 3297 2731 3419 2920 
Q 3541 3109 3541 3331 
Q 3541 3656 3305 3865 
Q 3069 4075 2559 4075 
L 1109 4075 
L 1109 2559 
z
" transform="scale(0.015625)"/>
      <path id="ArialMT-66" d="M 556 0 
L 556 2881 
L 59 2881 
L 59 3319 
L 556 3319 
L 556 3672 
Q 556 4006 616 4169 
Q 697 4388 901 4523 
Q 1106 4659 1475 4659 
Q 1713 4659 2000 4603 
L 1916 4113 
Q 1741 4144 1584 4144 
Q 1328 4144 1222 4034 
Q 1116 3925 1116 3625 
L 1116 3319 
L 1763 3319 
L 1763 2881 
L 1116 2881 
L 1116 0 
L 556 0 
z
" transform="scale(0.015625)"/>
      <path id="ArialMT-7a" d="M 125 0 
L 125 456 
L 2238 2881 
Q 1878 2863 1603 2863 
L 250 2863 
L 250 3319 
L 2963 3319 
L 2963 2947 
L 1166 841 
L 819 456 
Q 1197 484 1528 484 
L 3063 484 
L 3063 0 
L 125 0 
z
" transform="scale(0.015625)"/>
     </defs>
     <use xlink:href="#ArialMT-54"/>
     <use xlink:href="#ArialMT-72" x="57.333984"/>
     <use xlink:href="#ArialMT-6f" x="90.634766"/>
     <use xlink:href="#ArialMT-70" x="146.25"/>
     <use xlink:href="#ArialMT-65" x="201.865234"/>
     <use xlink:href="#ArialMT-6e" x="257.480469"/>
     <use xlink:href="#ArialMT-6e" x="313.095703"/>
     <use xlink:href="#ArialMT-61" x="368.710938"/>
     <use xlink:href="#ArialMT-63" x="424.326172"/>
     <use xlink:href="#ArialMT-68" x="474.326172"/>
     <use xlink:href="#ArialMT-74" x="529.941406"/>
     <use xlink:href="#ArialMT-20" x="557.724609"/>
     <use xlink:href="#ArialMT-34" x="585.507812"/>
     <use xlink:href="#ArialMT-2e" x="641.123047"/>
     <use xlink:href="#ArialMT-20" x="668.90625"/>
     <use xlink:href="#ArialMT-41" x="691.189453"/>
     <use xlink:href="#ArialMT-75" x="757.888672"/>
     <use xlink:href="#ArialMT-67" x="813.503906"/>
     <use xlink:href="#ArialMT-75" x="869.119141"/>
     <use xlink:href="#ArialMT-73" x="924.734375"/>
     <use xlink:href="#ArialMT-74" x="974.734375"/>
     <use xlink:href="#ArialMT-20" x="1002.517578"/>
     <use xlink:href="#ArialMT-32" x="1030.300781"/>
     <use xlink:href="#ArialMT-30" x="1085.916016"/>
     <use xlink:href="#ArialMT-32" x="1141.53125"/>
     <use xlink:href="#ArialMT-32" x="1197.146484"/>
     <use xlink:href="#ArialMT-3a" x="1252.761719"/>
     <use xlink:href="#ArialMT-20" x="1280.544922"/>
     <use xlink:href="#ArialMT-45" x="1308.328125"/>
     <use xlink:href="#ArialMT-72" x="1375.027344"/>
     <use xlink:href="#ArialMT-6d" x="1408.328125"/>
     <use xlink:href="#ArialMT-69" x="1491.628906"/>
     <use xlink:href="#ArialMT-74" x="1513.845703"/>
     <use xlink:href="#ArialMT-74" x="1541.628906"/>
     <use xlink:href="#ArialMT-6c" x="1569.412109"/>
     <use xlink:href="#ArialMT-75" x="1591.628906"/>
     <use xlink:href="#ArialMT-6e" x="1647.244141"/>
     <use xlink:href="#ArialMT-67" x="1702.859375"/>
     <use xlink:href="#ArialMT-20" x="1758.474609"/>
     <use xlink:href="#ArialMT-54" x="1784.507812"/>
     <use xlink:href="#ArialMT-61" x="1834.466797"/>
     <use xlink:href="#ArialMT-67" x="1890.082031"/>
     <use xlink:href="#ArialMT-65" x="1945.697266"/>
     <use xlink:href="#ArialMT-73" x="2001.3125"/>
     <use xlink:href="#ArialMT-2d" x="2051.3125"/>
     <use xlink:href="#ArialMT-52" x="2084.613281"/>
     <use xlink:href="#ArialMT-65" x="2156.830078"/>
     <use xlink:href="#ArialMT-66" x="2212.445312"/>
     <use xlink:href="#ArialMT-65" x="2240.228516"/>
     <use xlink:href="#ArialMT-72" x="2295.84375"/>
     <use xlink:href="#ArialMT-65" x="2329.144531"/>
     <use xlink:href="#ArialMT-6e" x="2384.759766"/>
     <use xlink:href="#ArialMT-7a" x="2440.375"/>
     <use xlink:href="#ArialMT-74" x="2490.375"/>
     <use xlink:href="#ArialMT-65" x="2518.158203"/>
     <use xlink:href="#ArialMT-6d" x="2573.773438"/>
     <use xlink:href="#ArialMT-70" x="2657.074219"/>
     <use xlink:href="#ArialMT-65" x="2712.689453"/>
     <use xlink:href="#ArialMT-72" x="2768.304688"/>
     <use xlink:href="#ArialMT-61" x="2801.605469"/>
     <use xlink:href="#ArialMT-74" x="2857.220703"/>
     <use xlink:href="#ArialMT-75" x="2885.003906"/>
     <use xlink:href="#ArialMT-72" x="2940.619141"/>
    </g>
   </g>
   <g id="legend_1">
    <g id="patch_6">
     <path d="M 545.800692 94.700781 
L 670.233504 94.700781 
Q 672.233504 94.700781 672.233504 92.700781 
L 672.233504 37.119531 
Q 672.233504 35.119531 670.233504 35.119531 
L 545.800692 35.119531 
Q 543.800692 35.119531 543.800692 37.119531 
L 543.800692 92.700781 
Q 543.800692 94.700781 545.800692 94.700781 
z
" style="fill: #ffffff; opacity: 0.9; stroke: #07a8ff; stroke-width: 0.3; stroke-linejoin: miter"/>
    </g>
    <g id="line2d_94">
     <path d="M 547.800692 42.777344 
L 557.800692 42.777344 
L 567.800692 42.777344 
" style="fill: none; stroke: #006ba4; stroke-width: 1.75; stroke-linecap: square"/>
    </g>
    <g id="text_20">
     <!-- W6: Ref. Waldrand 1 -->
     <g style="fill: #262626" transform="translate(575.800692 46.277344) scale(0.1 -0.1)">
      <defs>
       <path id="ArialMT-57" d="M 1294 0 
L 78 4581 
L 700 4581 
L 1397 1578 
Q 1509 1106 1591 641 
Q 1766 1375 1797 1488 
L 2669 4581 
L 3400 4581 
L 4056 2263 
Q 4303 1400 4413 641 
Q 4500 1075 4641 1638 
L 5359 4581 
L 5969 4581 
L 4713 0 
L 4128 0 
L 3163 3491 
Q 3041 3928 3019 4028 
Q 2947 3713 2884 3491 
L 1913 0 
L 1294 0 
z
" transform="scale(0.015625)"/>
       <path id="ArialMT-64" d="M 2575 0 
L 2575 419 
Q 2259 -75 1647 -75 
Q 1250 -75 917 144 
Q 584 363 401 755 
Q 219 1147 219 1656 
Q 219 2153 384 2558 
Q 550 2963 881 3178 
Q 1213 3394 1622 3394 
Q 1922 3394 2156 3267 
Q 2391 3141 2538 2938 
L 2538 4581 
L 3097 4581 
L 3097 0 
L 2575 0 
z
M 797 1656 
Q 797 1019 1065 703 
Q 1334 388 1700 388 
Q 2069 388 2326 689 
Q 2584 991 2584 1609 
Q 2584 2291 2321 2609 
Q 2059 2928 1675 2928 
Q 1300 2928 1048 2622 
Q 797 2316 797 1656 
z
" transform="scale(0.015625)"/>
      </defs>
      <use xlink:href="#ArialMT-57"/>
      <use xlink:href="#ArialMT-36" x="94.384766"/>
      <use xlink:href="#ArialMT-3a" x="150"/>
      <use xlink:href="#ArialMT-20" x="177.783203"/>
      <use xlink:href="#ArialMT-52" x="205.566406"/>
      <use xlink:href="#ArialMT-65" x="277.783203"/>
      <use xlink:href="#ArialMT-66" x="333.398438"/>
      <use xlink:href="#ArialMT-2e" x="361.181641"/>
      <use xlink:href="#ArialMT-20" x="388.964844"/>
      <use xlink:href="#ArialMT-57" x="416.748047"/>
      <use xlink:href="#ArialMT-61" x="507.382812"/>
      <use xlink:href="#ArialMT-6c" x="562.998047"/>
      <use xlink:href="#ArialMT-64" x="585.214844"/>
      <use xlink:href="#ArialMT-72" x="640.830078"/>
      <use xlink:href="#ArialMT-61" x="674.130859"/>
      <use xlink:href="#ArialMT-6e" x="729.746094"/>
      <use xlink:href="#ArialMT-64" x="785.361328"/>
      <use xlink:href="#ArialMT-20" x="840.976562"/>
      <use xlink:href="#ArialMT-31" x="868.759766"/>
     </g>
    </g>
    <g id="line2d_95">
     <path d="M 547.800692 56.922656 
L 557.800692 56.922656 
L 567.800692 56.922656 
" style="fill: none; stroke: #ff800e; stroke-width: 1.75; stroke-linecap: square"/>
    </g>
    <g id="text_21">
     <!-- W7: Ref. Waldrand 2 -->
     <g style="fill: #262626" transform="translate(575.800692 60.422656) scale(0.1 -0.1)">
      <use xlink:href="#ArialMT-57"/>
      <use xlink:href="#ArialMT-37" x="94.384766"/>
      <use xlink:href="#ArialMT-3a" x="150"/>
      <use xlink:href="#ArialMT-20" x="177.783203"/>
      <use xlink:href="#ArialMT-52" x="205.566406"/>
      <use xlink:href="#ArialMT-65" x="277.783203"/>
      <use xlink:href="#ArialMT-66" x="333.398438"/>
      <use xlink:href="#ArialMT-2e" x="361.181641"/>
      <use xlink:href="#ArialMT-20" x="388.964844"/>
      <use xlink:href="#ArialMT-57" x="416.748047"/>
      <use xlink:href="#ArialMT-61" x="507.382812"/>
      <use xlink:href="#ArialMT-6c" x="562.998047"/>
      <use xlink:href="#ArialMT-64" x="585.214844"/>
      <use xlink:href="#ArialMT-72" x="640.830078"/>
      <use xlink:href="#ArialMT-61" x="674.130859"/>
      <use xlink:href="#ArialMT-6e" x="729.746094"/>
      <use xlink:href="#ArialMT-64" x="785.361328"/>
      <use xlink:href="#ArialMT-20" x="840.976562"/>
      <use xlink:href="#ArialMT-32" x="868.759766"/>
     </g>
    </g>
    <g id="line2d_96">
     <path d="M 547.800692 71.067969 
L 557.800692 71.067969 
L 567.800692 71.067969 
" style="fill: none; stroke: #ababab; stroke-width: 1.75; stroke-linecap: square"/>
    </g>
    <g id="text_22">
     <!-- W8: Ref. Quartier -->
     <g style="fill: #262626" transform="translate(575.800692 74.567969) scale(0.1 -0.1)">
      <defs>
       <path id="ArialMT-51" d="M 3966 491 
Q 4388 200 4744 66 
L 4566 -356 
Q 4072 -178 3581 206 
Q 3072 -78 2456 -78 
Q 1834 -78 1328 222 
Q 822 522 548 1065 
Q 275 1609 275 2291 
Q 275 2969 550 3525 
Q 825 4081 1333 4372 
Q 1841 4663 2469 4663 
Q 3103 4663 3612 4361 
Q 4122 4059 4389 3517 
Q 4656 2975 4656 2294 
Q 4656 1728 4484 1276 
Q 4313 825 3966 491 
z
M 2631 1266 
Q 3156 1119 3497 828 
Q 4031 1316 4031 2294 
Q 4031 2850 3842 3265 
Q 3653 3681 3289 3911 
Q 2925 4141 2472 4141 
Q 1794 4141 1347 3677 
Q 900 3213 900 2291 
Q 900 1397 1342 919 
Q 1784 441 2472 441 
Q 2797 441 3084 563 
Q 2800 747 2484 825 
L 2631 1266 
z
" transform="scale(0.015625)"/>
      </defs>
      <use xlink:href="#ArialMT-57"/>
      <use xlink:href="#ArialMT-38" x="94.384766"/>
      <use xlink:href="#ArialMT-3a" x="150"/>
      <use xlink:href="#ArialMT-20" x="177.783203"/>
      <use xlink:href="#ArialMT-52" x="205.566406"/>
      <use xlink:href="#ArialMT-65" x="277.783203"/>
      <use xlink:href="#ArialMT-66" x="333.398438"/>
      <use xlink:href="#ArialMT-2e" x="361.181641"/>
      <use xlink:href="#ArialMT-20" x="388.964844"/>
      <use xlink:href="#ArialMT-51" x="416.748047"/>
      <use xlink:href="#ArialMT-75" x="494.53125"/>
      <use xlink:href="#ArialMT-61" x="550.146484"/>
      <use xlink:href="#ArialMT-72" x="605.761719"/>
      <use xlink:href="#ArialMT-74" x="639.0625"/>
      <use xlink:href="#ArialMT-69" x="666.845703"/>
      <use xlink:href="#ArialMT-65" x="689.0625"/>
      <use xlink:href="#ArialMT-72" x="744.677734"/>
     </g>
    </g>
    <g id="line2d_97">
     <path d="M 547.800692 85.213281 
L 557.800692 85.213281 
L 567.800692 85.213281 
" style="fill: none; stroke: #595959; stroke-width: 1.75; stroke-linecap: square"/>
    </g>
    <g id="text_23">
     <!-- W9: Ref. Wald -->
     <g style="fill: #262626" transform="translate(575.800692 88.713281) scale(0.1 -0.1)">
      <use xlink:href="#ArialMT-57"/>
      <use xlink:href="#ArialMT-39" x="94.384766"/>
      <use xlink:href="#ArialMT-3a" x="150"/>
      <use xlink:href="#ArialMT-20" x="177.783203"/>
      <use xlink:href="#ArialMT-52" x="205.566406"/>
      <use xlink:href="#ArialMT-65" x="277.783203"/>
      <use xlink:href="#ArialMT-66" x="333.398438"/>
      <use xlink:href="#ArialMT-2e" x="361.181641"/>
      <use xlink:href="#ArialMT-20" x="388.964844"/>
      <use xlink:href="#ArialMT-57" x="416.748047"/>
      <use xlink:href="#ArialMT-61" x="507.382812"/>
      <use xlink:href="#ArialMT-6c" x="562.998047"/>
      <use xlink:href="#ArialMT-64" x="585.214844"/>
     </g>
    </g>
   </g>
  </g>
 </g>
 <defs>
  <clipPath id="p25845db2b5">
   <rect x="51.369219" y="30.119531" width="625.864286" height="325.388571"/>
  </clipPath>
 </defs>
</svg>
