<?xml version="1.0" encoding="utf-8" standalone="no"?>
<!DOCTYPE svg PUBLIC "-//W3C//DTD SVG 1.1//EN"
  "http://www.w3.org/Graphics/SVG/1.1/DTD/svg11.dtd">
<!-- Created with matplotlib (https://matplotlib.org/) -->
<svg height="415.629978pt" version="1.1" viewBox="0 0 703.894442 415.629978" width="703.894442pt" xmlns="http://www.w3.org/2000/svg" xmlns:xlink="http://www.w3.org/1999/xlink">
 <metadata>
  <rdf:RDF xmlns:cc="http://creativecommons.org/ns#" xmlns:dc="http://purl.org/dc/elements/1.1/" xmlns:rdf="http://www.w3.org/1999/02/22-rdf-syntax-ns#">
   <cc:Work>
    <dc:type rdf:resource="http://purl.org/dc/dcmitype/StillImage"/>
    <dc:date>2022-12-20T22:25:14.757575</dc:date>
    <dc:format>image/svg+xml</dc:format>
    <dc:creator>
     <cc:Agent>
      <dc:title>Matplotlib v3.3.2, https://matplotlib.org/</dc:title>
     </cc:Agent>
    </dc:creator>
   </cc:Work>
  </rdf:RDF>
 </metadata>
 <defs>
  <style type="text/css">*{stroke-linecap:butt;stroke-linejoin:round;}</style>
 </defs>
 <g id="figure_1">
  <g id="patch_1">
   <path d="M 0 415.629978 
L 703.894442 415.629978 
L 703.894442 0 
L 0 0 
z
" style="fill:#ffffff;"/>
  </g>
  <g id="axes_1">
   <g id="patch_2">
    <path d="M 51.369219 355.508103 
L 677.233504 355.508103 
L 677.233504 30.119531 
L 51.369219 30.119531 
z
" style="fill:#ffffff;"/>
   </g>
   <g id="matplotlib.axis_1">
    <g id="xtick_1">
     <g id="line2d_1">
      <path clip-path="url(#pb683fb1223)" d="M 51.369219 355.508103 
L 51.369219 30.119531 
" style="fill:none;stroke:#a9dffc;stroke-linecap:square;"/>
     </g>
     <g id="line2d_2">
      <defs>
       <path d="M 0 0 
L 0 6 
" id="m34034f8126" style="stroke:#07a8ff;"/>
      </defs>
      <g>
       <use style="fill:#07a8ff;stroke:#07a8ff;" x="51.369219" xlink:href="#m34034f8126" y="355.508103"/>
      </g>
     </g>
     <g id="text_1">
      <!-- 04.08.22 -->
      <g style="fill:#07a8ff;" transform="translate(31.908281 375.665915)scale(0.1 -0.1)">
       <defs>
        <path d="M 4.15625 35.296875 
Q 4.15625 48 6.765625 55.734375 
Q 9.375 63.484375 14.515625 67.671875 
Q 19.671875 71.875 27.484375 71.875 
Q 33.25 71.875 37.59375 69.546875 
Q 41.9375 67.234375 44.765625 62.859375 
Q 47.609375 58.5 49.21875 52.21875 
Q 50.828125 45.953125 50.828125 35.296875 
Q 50.828125 22.703125 48.234375 14.96875 
Q 45.65625 7.234375 40.5 3 
Q 35.359375 -1.21875 27.484375 -1.21875 
Q 17.140625 -1.21875 11.234375 6.203125 
Q 4.15625 15.140625 4.15625 35.296875 
z
M 13.1875 35.296875 
Q 13.1875 17.671875 17.3125 11.828125 
Q 21.4375 6 27.484375 6 
Q 33.546875 6 37.671875 11.859375 
Q 41.796875 17.71875 41.796875 35.296875 
Q 41.796875 52.984375 37.671875 58.78125 
Q 33.546875 64.59375 27.390625 64.59375 
Q 21.34375 64.59375 17.71875 59.46875 
Q 13.1875 52.9375 13.1875 35.296875 
z
" id="ArialMT-48"/>
        <path d="M 32.328125 0 
L 32.328125 17.140625 
L 1.265625 17.140625 
L 1.265625 25.203125 
L 33.9375 71.578125 
L 41.109375 71.578125 
L 41.109375 25.203125 
L 50.78125 25.203125 
L 50.78125 17.140625 
L 41.109375 17.140625 
L 41.109375 0 
z
M 32.328125 25.203125 
L 32.328125 57.46875 
L 9.90625 25.203125 
z
" id="ArialMT-52"/>
        <path d="M 9.078125 0 
L 9.078125 10.015625 
L 19.09375 10.015625 
L 19.09375 0 
z
" id="ArialMT-46"/>
        <path d="M 17.671875 38.8125 
Q 12.203125 40.828125 9.5625 44.53125 
Q 6.9375 48.25 6.9375 53.421875 
Q 6.9375 61.234375 12.546875 66.546875 
Q 18.171875 71.875 27.484375 71.875 
Q 36.859375 71.875 42.578125 66.421875 
Q 48.296875 60.984375 48.296875 53.171875 
Q 48.296875 48.1875 45.671875 44.5 
Q 43.0625 40.828125 37.75 38.8125 
Q 44.34375 36.671875 47.78125 31.875 
Q 51.21875 27.09375 51.21875 20.453125 
Q 51.21875 11.28125 44.71875 5.03125 
Q 38.234375 -1.21875 27.640625 -1.21875 
Q 17.046875 -1.21875 10.546875 5.046875 
Q 4.046875 11.328125 4.046875 20.703125 
Q 4.046875 27.6875 7.59375 32.390625 
Q 11.140625 37.109375 17.671875 38.8125 
z
M 15.921875 53.71875 
Q 15.921875 48.640625 19.1875 45.40625 
Q 22.46875 42.1875 27.6875 42.1875 
Q 32.765625 42.1875 36.015625 45.375 
Q 39.265625 48.578125 39.265625 53.21875 
Q 39.265625 58.0625 35.90625 61.359375 
Q 32.5625 64.65625 27.59375 64.65625 
Q 22.5625 64.65625 19.234375 61.421875 
Q 15.921875 58.203125 15.921875 53.71875 
z
M 13.09375 20.65625 
Q 13.09375 16.890625 14.875 13.375 
Q 16.65625 9.859375 20.171875 7.921875 
Q 23.6875 6 27.734375 6 
Q 34.03125 6 38.125 10.046875 
Q 42.234375 14.109375 42.234375 20.359375 
Q 42.234375 26.703125 38.015625 30.859375 
Q 33.796875 35.015625 27.4375 35.015625 
Q 21.234375 35.015625 17.15625 30.90625 
Q 13.09375 26.8125 13.09375 20.65625 
z
" id="ArialMT-56"/>
        <path d="M 50.34375 8.453125 
L 50.34375 0 
L 3.03125 0 
Q 2.9375 3.171875 4.046875 6.109375 
Q 5.859375 10.9375 9.828125 15.625 
Q 13.8125 20.3125 21.34375 26.46875 
Q 33.015625 36.03125 37.109375 41.625 
Q 41.21875 47.21875 41.21875 52.203125 
Q 41.21875 57.421875 37.46875 61 
Q 33.734375 64.59375 27.734375 64.59375 
Q 21.390625 64.59375 17.578125 60.78125 
Q 13.765625 56.984375 13.71875 50.25 
L 4.6875 51.171875 
Q 5.609375 61.28125 11.65625 66.578125 
Q 17.71875 71.875 27.9375 71.875 
Q 38.234375 71.875 44.234375 66.15625 
Q 50.25 60.453125 50.25 52 
Q 50.25 47.703125 48.484375 43.546875 
Q 46.734375 39.40625 42.65625 34.8125 
Q 38.578125 30.21875 29.109375 22.21875 
Q 21.1875 15.578125 18.9375 13.203125 
Q 16.703125 10.84375 15.234375 8.453125 
z
" id="ArialMT-50"/>
       </defs>
       <use xlink:href="#ArialMT-48"/>
       <use x="55.615234" xlink:href="#ArialMT-52"/>
       <use x="111.230469" xlink:href="#ArialMT-46"/>
       <use x="139.013672" xlink:href="#ArialMT-48"/>
       <use x="194.628906" xlink:href="#ArialMT-56"/>
       <use x="250.244141" xlink:href="#ArialMT-46"/>
       <use x="278.027344" xlink:href="#ArialMT-50"/>
       <use x="333.642578" xlink:href="#ArialMT-50"/>
      </g>
      <!-- 20:00 -->
      <g style="fill:#07a8ff;" transform="translate(38.858281 386.24279)scale(0.1 -0.1)">
       <defs>
        <path d="M 9.03125 41.84375 
L 9.03125 51.859375 
L 19.046875 51.859375 
L 19.046875 41.84375 
z
M 9.03125 0 
L 9.03125 10.015625 
L 19.046875 10.015625 
L 19.046875 0 
z
" id="ArialMT-58"/>
       </defs>
       <use xlink:href="#ArialMT-50"/>
       <use x="55.615234" xlink:href="#ArialMT-48"/>
       <use x="111.230469" xlink:href="#ArialMT-58"/>
       <use x="139.013672" xlink:href="#ArialMT-48"/>
       <use x="194.628906" xlink:href="#ArialMT-48"/>
      </g>
     </g>
    </g>
    <g id="xtick_2">
     <g id="line2d_3">
      <path clip-path="url(#pb683fb1223)" d="M 176.542076 355.508103 
L 176.542076 30.119531 
" style="fill:none;stroke:#a9dffc;stroke-linecap:square;"/>
     </g>
     <g id="line2d_4">
      <g>
       <use style="fill:#07a8ff;stroke:#07a8ff;" x="176.542076" xlink:href="#m34034f8126" y="355.508103"/>
      </g>
     </g>
     <g id="text_2">
      <!-- 04.08.22 -->
      <g style="fill:#07a8ff;" transform="translate(157.081138 375.665915)scale(0.1 -0.1)">
       <use xlink:href="#ArialMT-48"/>
       <use x="55.615234" xlink:href="#ArialMT-52"/>
       <use x="111.230469" xlink:href="#ArialMT-46"/>
       <use x="139.013672" xlink:href="#ArialMT-48"/>
       <use x="194.628906" xlink:href="#ArialMT-56"/>
       <use x="250.244141" xlink:href="#ArialMT-46"/>
       <use x="278.027344" xlink:href="#ArialMT-50"/>
       <use x="333.642578" xlink:href="#ArialMT-50"/>
      </g>
      <!-- 22:00 -->
      <g style="fill:#07a8ff;" transform="translate(164.031138 386.24279)scale(0.1 -0.1)">
       <use xlink:href="#ArialMT-50"/>
       <use x="55.615234" xlink:href="#ArialMT-50"/>
       <use x="111.230469" xlink:href="#ArialMT-58"/>
       <use x="139.013672" xlink:href="#ArialMT-48"/>
       <use x="194.628906" xlink:href="#ArialMT-48"/>
      </g>
     </g>
    </g>
    <g id="xtick_3">
     <g id="line2d_5">
      <path clip-path="url(#pb683fb1223)" d="M 301.714933 355.508103 
L 301.714933 30.119531 
" style="fill:none;stroke:#a9dffc;stroke-linecap:square;"/>
     </g>
     <g id="line2d_6">
      <g>
       <use style="fill:#07a8ff;stroke:#07a8ff;" x="301.714933" xlink:href="#m34034f8126" y="355.508103"/>
      </g>
     </g>
     <g id="text_3">
      <!-- 05.08.22 -->
      <g style="fill:#07a8ff;" transform="translate(282.253996 375.665915)scale(0.1 -0.1)">
       <defs>
        <path d="M 4.15625 18.75 
L 13.375 19.53125 
Q 14.40625 12.796875 18.140625 9.390625 
Q 21.875 6 27.15625 6 
Q 33.5 6 37.890625 10.78125 
Q 42.28125 15.578125 42.28125 23.484375 
Q 42.28125 31 38.0625 35.34375 
Q 33.84375 39.703125 27 39.703125 
Q 22.75 39.703125 19.328125 37.765625 
Q 15.921875 35.84375 13.96875 32.765625 
L 5.71875 33.84375 
L 12.640625 70.609375 
L 48.25 70.609375 
L 48.25 62.203125 
L 19.671875 62.203125 
L 15.828125 42.96875 
Q 22.265625 47.46875 29.34375 47.46875 
Q 38.71875 47.46875 45.15625 40.96875 
Q 51.609375 34.46875 51.609375 24.265625 
Q 51.609375 14.546875 45.953125 7.46875 
Q 39.0625 -1.21875 27.15625 -1.21875 
Q 17.390625 -1.21875 11.203125 4.25 
Q 5.03125 9.71875 4.15625 18.75 
z
" id="ArialMT-53"/>
       </defs>
       <use xlink:href="#ArialMT-48"/>
       <use x="55.615234" xlink:href="#ArialMT-53"/>
       <use x="111.230469" xlink:href="#ArialMT-46"/>
       <use x="139.013672" xlink:href="#ArialMT-48"/>
       <use x="194.628906" xlink:href="#ArialMT-56"/>
       <use x="250.244141" xlink:href="#ArialMT-46"/>
       <use x="278.027344" xlink:href="#ArialMT-50"/>
       <use x="333.642578" xlink:href="#ArialMT-50"/>
      </g>
      <!-- 00:00 -->
      <g style="fill:#07a8ff;" transform="translate(289.203996 386.24279)scale(0.1 -0.1)">
       <use xlink:href="#ArialMT-48"/>
       <use x="55.615234" xlink:href="#ArialMT-48"/>
       <use x="111.230469" xlink:href="#ArialMT-58"/>
       <use x="139.013672" xlink:href="#ArialMT-48"/>
       <use x="194.628906" xlink:href="#ArialMT-48"/>
      </g>
     </g>
    </g>
    <g id="xtick_4">
     <g id="line2d_7">
      <path clip-path="url(#pb683fb1223)" d="M 426.88779 355.508103 
L 426.88779 30.119531 
" style="fill:none;stroke:#a9dffc;stroke-linecap:square;"/>
     </g>
     <g id="line2d_8">
      <g>
       <use style="fill:#07a8ff;stroke:#07a8ff;" x="426.88779" xlink:href="#m34034f8126" y="355.508103"/>
      </g>
     </g>
     <g id="text_4">
      <!-- 05.08.22 -->
      <g style="fill:#07a8ff;" transform="translate(407.426853 375.665915)scale(0.1 -0.1)">
       <use xlink:href="#ArialMT-48"/>
       <use x="55.615234" xlink:href="#ArialMT-53"/>
       <use x="111.230469" xlink:href="#ArialMT-46"/>
       <use x="139.013672" xlink:href="#ArialMT-48"/>
       <use x="194.628906" xlink:href="#ArialMT-56"/>
       <use x="250.244141" xlink:href="#ArialMT-46"/>
       <use x="278.027344" xlink:href="#ArialMT-50"/>
       <use x="333.642578" xlink:href="#ArialMT-50"/>
      </g>
      <!-- 02:00 -->
      <g style="fill:#07a8ff;" transform="translate(414.376853 386.24279)scale(0.1 -0.1)">
       <use xlink:href="#ArialMT-48"/>
       <use x="55.615234" xlink:href="#ArialMT-50"/>
       <use x="111.230469" xlink:href="#ArialMT-58"/>
       <use x="139.013672" xlink:href="#ArialMT-48"/>
       <use x="194.628906" xlink:href="#ArialMT-48"/>
      </g>
     </g>
    </g>
    <g id="xtick_5">
     <g id="line2d_9">
      <path clip-path="url(#pb683fb1223)" d="M 552.060647 355.508103 
L 552.060647 30.119531 
" style="fill:none;stroke:#a9dffc;stroke-linecap:square;"/>
     </g>
     <g id="line2d_10">
      <g>
       <use style="fill:#07a8ff;stroke:#07a8ff;" x="552.060647" xlink:href="#m34034f8126" y="355.508103"/>
      </g>
     </g>
     <g id="text_5">
      <!-- 05.08.22 -->
      <g style="fill:#07a8ff;" transform="translate(532.59971 375.665915)scale(0.1 -0.1)">
       <use xlink:href="#ArialMT-48"/>
       <use x="55.615234" xlink:href="#ArialMT-53"/>
       <use x="111.230469" xlink:href="#ArialMT-46"/>
       <use x="139.013672" xlink:href="#ArialMT-48"/>
       <use x="194.628906" xlink:href="#ArialMT-56"/>
       <use x="250.244141" xlink:href="#ArialMT-46"/>
       <use x="278.027344" xlink:href="#ArialMT-50"/>
       <use x="333.642578" xlink:href="#ArialMT-50"/>
      </g>
      <!-- 04:00 -->
      <g style="fill:#07a8ff;" transform="translate(539.54971 386.24279)scale(0.1 -0.1)">
       <use xlink:href="#ArialMT-48"/>
       <use x="55.615234" xlink:href="#ArialMT-52"/>
       <use x="111.230469" xlink:href="#ArialMT-58"/>
       <use x="139.013672" xlink:href="#ArialMT-48"/>
       <use x="194.628906" xlink:href="#ArialMT-48"/>
      </g>
     </g>
    </g>
    <g id="xtick_6">
     <g id="line2d_11">
      <path clip-path="url(#pb683fb1223)" d="M 677.233504 355.508103 
L 677.233504 30.119531 
" style="fill:none;stroke:#a9dffc;stroke-linecap:square;"/>
     </g>
     <g id="line2d_12">
      <g>
       <use style="fill:#07a8ff;stroke:#07a8ff;" x="677.233504" xlink:href="#m34034f8126" y="355.508103"/>
      </g>
     </g>
     <g id="text_6">
      <!-- 05.08.22 -->
      <g style="fill:#07a8ff;" transform="translate(657.772567 375.665915)scale(0.1 -0.1)">
       <use xlink:href="#ArialMT-48"/>
       <use x="55.615234" xlink:href="#ArialMT-53"/>
       <use x="111.230469" xlink:href="#ArialMT-46"/>
       <use x="139.013672" xlink:href="#ArialMT-48"/>
       <use x="194.628906" xlink:href="#ArialMT-56"/>
       <use x="250.244141" xlink:href="#ArialMT-46"/>
       <use x="278.027344" xlink:href="#ArialMT-50"/>
       <use x="333.642578" xlink:href="#ArialMT-50"/>
      </g>
      <!-- 06:00 -->
      <g style="fill:#07a8ff;" transform="translate(664.722567 386.24279)scale(0.1 -0.1)">
       <defs>
        <path d="M 49.75 54.046875 
L 41.015625 53.375 
Q 39.84375 58.546875 37.703125 60.890625 
Q 34.125 64.65625 28.90625 64.65625 
Q 24.703125 64.65625 21.53125 62.3125 
Q 17.390625 59.28125 14.984375 53.46875 
Q 12.59375 47.65625 12.5 36.921875 
Q 15.671875 41.75 20.265625 44.09375 
Q 24.859375 46.4375 29.890625 46.4375 
Q 38.671875 46.4375 44.84375 39.96875 
Q 51.03125 33.5 51.03125 23.25 
Q 51.03125 16.5 48.125 10.71875 
Q 45.21875 4.9375 40.140625 1.859375 
Q 35.0625 -1.21875 28.609375 -1.21875 
Q 17.625 -1.21875 10.6875 6.859375 
Q 3.765625 14.9375 3.765625 33.5 
Q 3.765625 54.25 11.421875 63.671875 
Q 18.109375 71.875 29.4375 71.875 
Q 37.890625 71.875 43.28125 67.140625 
Q 48.6875 62.40625 49.75 54.046875 
z
M 13.875 23.1875 
Q 13.875 18.65625 15.796875 14.5 
Q 17.71875 10.359375 21.1875 8.171875 
Q 24.65625 6 28.46875 6 
Q 34.03125 6 38.03125 10.484375 
Q 42.046875 14.984375 42.046875 22.703125 
Q 42.046875 30.125 38.078125 34.390625 
Q 34.125 38.671875 28.125 38.671875 
Q 22.171875 38.671875 18.015625 34.390625 
Q 13.875 30.125 13.875 23.1875 
z
" id="ArialMT-54"/>
       </defs>
       <use xlink:href="#ArialMT-48"/>
       <use x="55.615234" xlink:href="#ArialMT-54"/>
       <use x="111.230469" xlink:href="#ArialMT-58"/>
       <use x="139.013672" xlink:href="#ArialMT-48"/>
       <use x="194.628906" xlink:href="#ArialMT-48"/>
      </g>
     </g>
    </g>
    <g id="xtick_7">
     <g id="line2d_13">
      <defs>
       <path d="M 0 0 
L 0 2 
" id="mde40d8da8a" style="stroke:#07a8ff;"/>
      </defs>
      <g>
       <use style="fill:#07a8ff;stroke:#07a8ff;" x="82.662433" xlink:href="#mde40d8da8a" y="355.508103"/>
      </g>
     </g>
    </g>
    <g id="xtick_8">
     <g id="line2d_14">
      <g>
       <use style="fill:#07a8ff;stroke:#07a8ff;" x="113.955647" xlink:href="#mde40d8da8a" y="355.508103"/>
      </g>
     </g>
    </g>
    <g id="xtick_9">
     <g id="line2d_15">
      <g>
       <use style="fill:#07a8ff;stroke:#07a8ff;" x="145.248862" xlink:href="#mde40d8da8a" y="355.508103"/>
      </g>
     </g>
    </g>
    <g id="xtick_10">
     <g id="line2d_16">
      <g>
       <use style="fill:#07a8ff;stroke:#07a8ff;" x="207.83529" xlink:href="#mde40d8da8a" y="355.508103"/>
      </g>
     </g>
    </g>
    <g id="xtick_11">
     <g id="line2d_17">
      <g>
       <use style="fill:#07a8ff;stroke:#07a8ff;" x="239.128504" xlink:href="#mde40d8da8a" y="355.508103"/>
      </g>
     </g>
    </g>
    <g id="xtick_12">
     <g id="line2d_18">
      <g>
       <use style="fill:#07a8ff;stroke:#07a8ff;" x="270.421719" xlink:href="#mde40d8da8a" y="355.508103"/>
      </g>
     </g>
    </g>
    <g id="xtick_13">
     <g id="line2d_19">
      <g>
       <use style="fill:#07a8ff;stroke:#07a8ff;" x="333.008147" xlink:href="#mde40d8da8a" y="355.508103"/>
      </g>
     </g>
    </g>
    <g id="xtick_14">
     <g id="line2d_20">
      <g>
       <use style="fill:#07a8ff;stroke:#07a8ff;" x="364.301362" xlink:href="#mde40d8da8a" y="355.508103"/>
      </g>
     </g>
    </g>
    <g id="xtick_15">
     <g id="line2d_21">
      <g>
       <use style="fill:#07a8ff;stroke:#07a8ff;" x="395.594576" xlink:href="#mde40d8da8a" y="355.508103"/>
      </g>
     </g>
    </g>
    <g id="xtick_16">
     <g id="line2d_22">
      <g>
       <use style="fill:#07a8ff;stroke:#07a8ff;" x="458.181004" xlink:href="#mde40d8da8a" y="355.508103"/>
      </g>
     </g>
    </g>
    <g id="xtick_17">
     <g id="line2d_23">
      <g>
       <use style="fill:#07a8ff;stroke:#07a8ff;" x="489.474219" xlink:href="#mde40d8da8a" y="355.508103"/>
      </g>
     </g>
    </g>
    <g id="xtick_18">
     <g id="line2d_24">
      <g>
       <use style="fill:#07a8ff;stroke:#07a8ff;" x="520.767433" xlink:href="#mde40d8da8a" y="355.508103"/>
      </g>
     </g>
    </g>
    <g id="xtick_19">
     <g id="line2d_25">
      <g>
       <use style="fill:#07a8ff;stroke:#07a8ff;" x="583.353862" xlink:href="#mde40d8da8a" y="355.508103"/>
      </g>
     </g>
    </g>
    <g id="xtick_20">
     <g id="line2d_26">
      <g>
       <use style="fill:#07a8ff;stroke:#07a8ff;" x="614.647076" xlink:href="#mde40d8da8a" y="355.508103"/>
      </g>
     </g>
    </g>
    <g id="xtick_21">
     <g id="line2d_27">
      <g>
       <use style="fill:#07a8ff;stroke:#07a8ff;" x="645.94029" xlink:href="#mde40d8da8a" y="355.508103"/>
      </g>
     </g>
    </g>
    <g id="text_7">
     <!-- Datum/Zeit (MESZ) -->
     <g style="fill:#262626;" transform="translate(308.327221 405.693884)scale(0.13 -0.13)">
      <defs>
       <path d="M 7.71875 0 
L 7.71875 71.578125 
L 32.375 71.578125 
Q 40.71875 71.578125 45.125 70.5625 
Q 51.265625 69.140625 55.609375 65.4375 
Q 61.28125 60.640625 64.078125 53.1875 
Q 66.890625 45.75 66.890625 36.1875 
Q 66.890625 28.03125 64.984375 21.734375 
Q 63.09375 15.4375 60.109375 11.296875 
Q 57.125 7.171875 53.578125 4.796875 
Q 50.046875 2.4375 45.046875 1.21875 
Q 40.046875 0 33.546875 0 
z
M 17.1875 8.453125 
L 32.46875 8.453125 
Q 39.546875 8.453125 43.578125 9.765625 
Q 47.609375 11.078125 50 13.484375 
Q 53.375 16.84375 55.25 22.53125 
Q 57.125 28.21875 57.125 36.328125 
Q 57.125 47.5625 53.4375 53.59375 
Q 49.75 59.625 44.484375 61.671875 
Q 40.671875 63.140625 32.234375 63.140625 
L 17.1875 63.140625 
z
" id="ArialMT-68"/>
       <path d="M 40.4375 6.390625 
Q 35.546875 2.25 31.03125 0.53125 
Q 26.515625 -1.171875 21.34375 -1.171875 
Q 12.796875 -1.171875 8.203125 3 
Q 3.609375 7.171875 3.609375 13.671875 
Q 3.609375 17.484375 5.34375 20.625 
Q 7.078125 23.78125 9.890625 25.6875 
Q 12.703125 27.59375 16.21875 28.5625 
Q 18.796875 29.25 24.03125 29.890625 
Q 34.671875 31.15625 39.703125 32.90625 
Q 39.75 34.71875 39.75 35.203125 
Q 39.75 40.578125 37.25 42.78125 
Q 33.890625 45.75 27.25 45.75 
Q 21.046875 45.75 18.09375 43.578125 
Q 15.140625 41.40625 13.71875 35.890625 
L 5.125 37.0625 
Q 6.296875 42.578125 8.984375 45.96875 
Q 11.671875 49.359375 16.75 51.1875 
Q 21.828125 53.03125 28.515625 53.03125 
Q 35.15625 53.03125 39.296875 51.46875 
Q 43.453125 49.90625 45.40625 47.53125 
Q 47.359375 45.171875 48.140625 41.546875 
Q 48.578125 39.3125 48.578125 33.453125 
L 48.578125 21.734375 
Q 48.578125 9.46875 49.140625 6.21875 
Q 49.703125 2.984375 51.375 0 
L 42.1875 0 
Q 40.828125 2.734375 40.4375 6.390625 
z
M 39.703125 26.03125 
Q 34.90625 24.078125 25.34375 22.703125 
Q 19.921875 21.921875 17.671875 20.9375 
Q 15.4375 19.96875 14.203125 18.09375 
Q 12.984375 16.21875 12.984375 13.921875 
Q 12.984375 10.40625 15.640625 8.0625 
Q 18.3125 5.71875 23.4375 5.71875 
Q 28.515625 5.71875 32.46875 7.9375 
Q 36.421875 10.15625 38.28125 14.015625 
Q 39.703125 17 39.703125 22.796875 
z
" id="ArialMT-97"/>
       <path d="M 25.78125 7.859375 
L 27.046875 0.09375 
Q 23.34375 -0.6875 20.40625 -0.6875 
Q 15.625 -0.6875 12.984375 0.828125 
Q 10.359375 2.34375 9.28125 4.8125 
Q 8.203125 7.28125 8.203125 15.1875 
L 8.203125 45.015625 
L 1.765625 45.015625 
L 1.765625 51.859375 
L 8.203125 51.859375 
L 8.203125 64.703125 
L 16.9375 69.96875 
L 16.9375 51.859375 
L 25.78125 51.859375 
L 25.78125 45.015625 
L 16.9375 45.015625 
L 16.9375 14.703125 
Q 16.9375 10.9375 17.40625 9.859375 
Q 17.875 8.796875 18.921875 8.15625 
Q 19.96875 7.515625 21.921875 7.515625 
Q 23.390625 7.515625 25.78125 7.859375 
z
" id="ArialMT-116"/>
       <path d="M 40.578125 0 
L 40.578125 7.625 
Q 34.515625 -1.171875 24.125 -1.171875 
Q 19.53125 -1.171875 15.546875 0.578125 
Q 11.578125 2.34375 9.640625 5 
Q 7.71875 7.671875 6.9375 11.53125 
Q 6.390625 14.109375 6.390625 19.734375 
L 6.390625 51.859375 
L 15.1875 51.859375 
L 15.1875 23.09375 
Q 15.1875 16.21875 15.71875 13.8125 
Q 16.546875 10.359375 19.234375 8.375 
Q 21.921875 6.390625 25.875 6.390625 
Q 29.828125 6.390625 33.296875 8.421875 
Q 36.765625 10.453125 38.203125 13.9375 
Q 39.65625 17.4375 39.65625 24.078125 
L 39.65625 51.859375 
L 48.4375 51.859375 
L 48.4375 0 
z
" id="ArialMT-117"/>
       <path d="M 6.59375 0 
L 6.59375 51.859375 
L 14.453125 51.859375 
L 14.453125 44.578125 
Q 16.890625 48.390625 20.9375 50.703125 
Q 25 53.03125 30.171875 53.03125 
Q 35.9375 53.03125 39.625 50.640625 
Q 43.3125 48.25 44.828125 43.953125 
Q 50.984375 53.03125 60.84375 53.03125 
Q 68.5625 53.03125 72.703125 48.75 
Q 76.859375 44.484375 76.859375 35.59375 
L 76.859375 0 
L 68.109375 0 
L 68.109375 32.671875 
Q 68.109375 37.9375 67.25 40.25 
Q 66.40625 42.578125 64.15625 43.984375 
Q 61.921875 45.40625 58.890625 45.40625 
Q 53.421875 45.40625 49.796875 41.765625 
Q 46.1875 38.140625 46.1875 30.125 
L 46.1875 0 
L 37.40625 0 
L 37.40625 33.6875 
Q 37.40625 39.546875 35.25 42.46875 
Q 33.109375 45.40625 28.21875 45.40625 
Q 24.515625 45.40625 21.359375 43.453125 
Q 18.21875 41.5 16.796875 37.734375 
Q 15.375 33.984375 15.375 26.90625 
L 15.375 0 
z
" id="ArialMT-109"/>
       <path d="M 0 -1.21875 
L 20.75 72.796875 
L 27.78125 72.796875 
L 7.078125 -1.21875 
z
" id="ArialMT-47"/>
       <path d="M 2 0 
L 2 8.796875 
L 38.671875 54.640625 
Q 42.578125 59.515625 46.09375 63.140625 
L 6.15625 63.140625 
L 6.15625 71.578125 
L 57.421875 71.578125 
L 57.421875 63.140625 
L 17.234375 13.484375 
L 12.890625 8.453125 
L 58.59375 8.453125 
L 58.59375 0 
z
" id="ArialMT-90"/>
       <path d="M 42.09375 16.703125 
L 51.171875 15.578125 
Q 49.03125 7.625 43.21875 3.21875 
Q 37.40625 -1.171875 28.375 -1.171875 
Q 17 -1.171875 10.328125 5.828125 
Q 3.65625 12.84375 3.65625 25.484375 
Q 3.65625 38.578125 10.390625 45.796875 
Q 17.140625 53.03125 27.875 53.03125 
Q 38.28125 53.03125 44.875 45.953125 
Q 51.46875 38.875 51.46875 26.03125 
Q 51.46875 25.25 51.421875 23.6875 
L 12.75 23.6875 
Q 13.234375 15.140625 17.578125 10.59375 
Q 21.921875 6.0625 28.421875 6.0625 
Q 33.25 6.0625 36.671875 8.59375 
Q 40.09375 11.140625 42.09375 16.703125 
z
M 13.234375 30.90625 
L 42.1875 30.90625 
Q 41.609375 37.453125 38.875 40.71875 
Q 34.671875 45.796875 27.984375 45.796875 
Q 21.921875 45.796875 17.796875 41.75 
Q 13.671875 37.703125 13.234375 30.90625 
z
" id="ArialMT-101"/>
       <path d="M 6.640625 61.46875 
L 6.640625 71.578125 
L 15.4375 71.578125 
L 15.4375 61.46875 
z
M 6.640625 0 
L 6.640625 51.859375 
L 15.4375 51.859375 
L 15.4375 0 
z
" id="ArialMT-105"/>
       <path id="ArialMT-32"/>
       <path d="M 23.390625 -21.046875 
Q 16.109375 -11.859375 11.078125 0.4375 
Q 6.0625 12.75 6.0625 25.921875 
Q 6.0625 37.546875 9.8125 48.1875 
Q 14.203125 60.546875 23.390625 72.796875 
L 29.6875 72.796875 
Q 23.78125 62.640625 21.875 58.296875 
Q 18.890625 51.5625 17.1875 44.234375 
Q 15.09375 35.109375 15.09375 25.875 
Q 15.09375 2.390625 29.6875 -21.046875 
z
" id="ArialMT-40"/>
       <path d="M 7.421875 0 
L 7.421875 71.578125 
L 21.6875 71.578125 
L 38.625 20.90625 
Q 40.96875 13.8125 42.046875 10.296875 
Q 43.265625 14.203125 45.84375 21.78125 
L 62.984375 71.578125 
L 75.734375 71.578125 
L 75.734375 0 
L 66.609375 0 
L 66.609375 59.90625 
L 45.796875 0 
L 37.25 0 
L 16.546875 60.9375 
L 16.546875 0 
z
" id="ArialMT-77"/>
       <path d="M 7.90625 0 
L 7.90625 71.578125 
L 59.671875 71.578125 
L 59.671875 63.140625 
L 17.390625 63.140625 
L 17.390625 41.21875 
L 56.984375 41.21875 
L 56.984375 32.8125 
L 17.390625 32.8125 
L 17.390625 8.453125 
L 61.328125 8.453125 
L 61.328125 0 
z
" id="ArialMT-69"/>
       <path d="M 4.5 23 
L 13.421875 23.78125 
Q 14.0625 18.40625 16.375 14.96875 
Q 18.703125 11.53125 23.578125 9.40625 
Q 28.46875 7.28125 34.578125 7.28125 
Q 39.984375 7.28125 44.140625 8.890625 
Q 48.296875 10.5 50.3125 13.296875 
Q 52.34375 16.109375 52.34375 19.4375 
Q 52.34375 22.796875 50.390625 25.3125 
Q 48.4375 27.828125 43.953125 29.546875 
Q 41.0625 30.671875 31.203125 33.03125 
Q 21.34375 35.40625 17.390625 37.5 
Q 12.25 40.1875 9.734375 44.15625 
Q 7.234375 48.140625 7.234375 53.078125 
Q 7.234375 58.5 10.296875 63.203125 
Q 13.375 67.921875 19.28125 70.359375 
Q 25.203125 72.796875 32.421875 72.796875 
Q 40.375 72.796875 46.453125 70.234375 
Q 52.546875 67.671875 55.8125 62.6875 
Q 59.078125 57.71875 59.328125 51.421875 
L 50.25 50.734375 
Q 49.515625 57.515625 45.28125 60.984375 
Q 41.0625 64.453125 32.8125 64.453125 
Q 24.21875 64.453125 20.28125 61.296875 
Q 16.359375 58.15625 16.359375 53.71875 
Q 16.359375 49.859375 19.140625 47.359375 
Q 21.875 44.875 33.421875 42.265625 
Q 44.96875 39.65625 49.265625 37.703125 
Q 55.515625 34.8125 58.484375 30.390625 
Q 61.46875 25.984375 61.46875 20.21875 
Q 61.46875 14.5 58.203125 9.4375 
Q 54.9375 4.390625 48.796875 1.578125 
Q 42.671875 -1.21875 35.015625 -1.21875 
Q 25.296875 -1.21875 18.71875 1.609375 
Q 12.15625 4.4375 8.421875 10.125 
Q 4.6875 15.828125 4.5 23 
z
" id="ArialMT-83"/>
       <path d="M 12.359375 -21.046875 
L 6.0625 -21.046875 
Q 20.65625 2.390625 20.65625 25.875 
Q 20.65625 35.0625 18.5625 44.09375 
Q 16.890625 51.421875 13.921875 58.15625 
Q 12.015625 62.546875 6.0625 72.796875 
L 12.359375 72.796875 
Q 21.53125 60.546875 25.921875 48.1875 
Q 29.6875 37.546875 29.6875 25.921875 
Q 29.6875 12.75 24.625 0.4375 
Q 19.578125 -11.859375 12.359375 -21.046875 
z
" id="ArialMT-41"/>
      </defs>
      <use xlink:href="#ArialMT-68"/>
      <use x="72.216797" xlink:href="#ArialMT-97"/>
      <use x="127.832031" xlink:href="#ArialMT-116"/>
      <use x="155.615234" xlink:href="#ArialMT-117"/>
      <use x="211.230469" xlink:href="#ArialMT-109"/>
      <use x="294.53125" xlink:href="#ArialMT-47"/>
      <use x="322.314453" xlink:href="#ArialMT-90"/>
      <use x="383.398438" xlink:href="#ArialMT-101"/>
      <use x="439.013672" xlink:href="#ArialMT-105"/>
      <use x="461.230469" xlink:href="#ArialMT-116"/>
      <use x="489.013672" xlink:href="#ArialMT-32"/>
      <use x="516.796875" xlink:href="#ArialMT-40"/>
      <use x="550.097656" xlink:href="#ArialMT-77"/>
      <use x="633.398438" xlink:href="#ArialMT-69"/>
      <use x="700.097656" xlink:href="#ArialMT-83"/>
      <use x="766.796875" xlink:href="#ArialMT-90"/>
      <use x="827.880859" xlink:href="#ArialMT-41"/>
     </g>
    </g>
   </g>
   <g id="matplotlib.axis_2">
    <g id="ytick_1">
     <g id="line2d_28">
      <path clip-path="url(#pb683fb1223)" d="M 51.369219 355.508103 
L 677.233504 355.508103 
" style="fill:none;stroke:#a9dffc;stroke-linecap:square;"/>
     </g>
     <g id="line2d_29">
      <defs>
       <path d="M 0 0 
L -6 0 
" id="maff3b4f2b6" style="stroke:#07a8ff;"/>
      </defs>
      <g>
       <use style="fill:#07a8ff;stroke:#07a8ff;" x="51.369219" xlink:href="#maff3b4f2b6" y="355.508103"/>
      </g>
     </g>
     <g id="text_8">
      <!-- 22 -->
      <g style="fill:#07a8ff;" transform="translate(27.247344 359.087009)scale(0.1 -0.1)">
       <use xlink:href="#ArialMT-50"/>
       <use x="55.615234" xlink:href="#ArialMT-50"/>
      </g>
     </g>
    </g>
    <g id="ytick_2">
     <g id="line2d_30">
      <path clip-path="url(#pb683fb1223)" d="M 51.369219 319.353817 
L 677.233504 319.353817 
" style="fill:none;stroke:#a9dffc;stroke-linecap:square;"/>
     </g>
     <g id="line2d_31">
      <g>
       <use style="fill:#07a8ff;stroke:#07a8ff;" x="51.369219" xlink:href="#maff3b4f2b6" y="319.353817"/>
      </g>
     </g>
     <g id="text_9">
      <!-- 23 -->
      <g style="fill:#07a8ff;" transform="translate(27.247344 322.932723)scale(0.1 -0.1)">
       <defs>
        <path d="M 4.203125 18.890625 
L 12.984375 20.0625 
Q 14.5 12.59375 18.140625 9.296875 
Q 21.78125 6 27 6 
Q 33.203125 6 37.46875 10.296875 
Q 41.75 14.59375 41.75 20.953125 
Q 41.75 27 37.796875 30.921875 
Q 33.84375 34.859375 27.734375 34.859375 
Q 25.25 34.859375 21.53125 33.890625 
L 22.515625 41.609375 
Q 23.390625 41.5 23.921875 41.5 
Q 29.546875 41.5 34.03125 44.421875 
Q 38.53125 47.359375 38.53125 53.46875 
Q 38.53125 58.296875 35.25 61.46875 
Q 31.984375 64.65625 26.8125 64.65625 
Q 21.6875 64.65625 18.265625 61.421875 
Q 14.84375 58.203125 13.875 51.765625 
L 5.078125 53.328125 
Q 6.6875 62.15625 12.390625 67.015625 
Q 18.109375 71.875 26.609375 71.875 
Q 32.46875 71.875 37.390625 69.359375 
Q 42.328125 66.84375 44.9375 62.5 
Q 47.5625 58.15625 47.5625 53.265625 
Q 47.5625 48.640625 45.0625 44.828125 
Q 42.578125 41.015625 37.703125 38.765625 
Q 44.046875 37.3125 47.5625 32.6875 
Q 51.078125 28.078125 51.078125 21.140625 
Q 51.078125 11.765625 44.234375 5.25 
Q 37.40625 -1.265625 26.953125 -1.265625 
Q 17.53125 -1.265625 11.296875 4.34375 
Q 5.078125 9.96875 4.203125 18.890625 
z
" id="ArialMT-51"/>
       </defs>
       <use xlink:href="#ArialMT-50"/>
       <use x="55.615234" xlink:href="#ArialMT-51"/>
      </g>
     </g>
    </g>
    <g id="ytick_3">
     <g id="line2d_32">
      <path clip-path="url(#pb683fb1223)" d="M 51.369219 283.199531 
L 677.233504 283.199531 
" style="fill:none;stroke:#a9dffc;stroke-linecap:square;"/>
     </g>
     <g id="line2d_33">
      <g>
       <use style="fill:#07a8ff;stroke:#07a8ff;" x="51.369219" xlink:href="#maff3b4f2b6" y="283.199531"/>
      </g>
     </g>
     <g id="text_10">
      <!-- 24 -->
      <g style="fill:#07a8ff;" transform="translate(27.247344 286.778437)scale(0.1 -0.1)">
       <use xlink:href="#ArialMT-50"/>
       <use x="55.615234" xlink:href="#ArialMT-52"/>
      </g>
     </g>
    </g>
    <g id="ytick_4">
     <g id="line2d_34">
      <path clip-path="url(#pb683fb1223)" d="M 51.369219 247.045246 
L 677.233504 247.045246 
" style="fill:none;stroke:#a9dffc;stroke-linecap:square;"/>
     </g>
     <g id="line2d_35">
      <g>
       <use style="fill:#07a8ff;stroke:#07a8ff;" x="51.369219" xlink:href="#maff3b4f2b6" y="247.045246"/>
      </g>
     </g>
     <g id="text_11">
      <!-- 25 -->
      <g style="fill:#07a8ff;" transform="translate(27.247344 250.624152)scale(0.1 -0.1)">
       <use xlink:href="#ArialMT-50"/>
       <use x="55.615234" xlink:href="#ArialMT-53"/>
      </g>
     </g>
    </g>
    <g id="ytick_5">
     <g id="line2d_36">
      <path clip-path="url(#pb683fb1223)" d="M 51.369219 210.89096 
L 677.233504 210.89096 
" style="fill:none;stroke:#a9dffc;stroke-linecap:square;"/>
     </g>
     <g id="line2d_37">
      <g>
       <use style="fill:#07a8ff;stroke:#07a8ff;" x="51.369219" xlink:href="#maff3b4f2b6" y="210.89096"/>
      </g>
     </g>
     <g id="text_12">
      <!-- 26 -->
      <g style="fill:#07a8ff;" transform="translate(27.247344 214.469866)scale(0.1 -0.1)">
       <use xlink:href="#ArialMT-50"/>
       <use x="55.615234" xlink:href="#ArialMT-54"/>
      </g>
     </g>
    </g>
    <g id="ytick_6">
     <g id="line2d_38">
      <path clip-path="url(#pb683fb1223)" d="M 51.369219 174.736674 
L 677.233504 174.736674 
" style="fill:none;stroke:#a9dffc;stroke-linecap:square;"/>
     </g>
     <g id="line2d_39">
      <g>
       <use style="fill:#07a8ff;stroke:#07a8ff;" x="51.369219" xlink:href="#maff3b4f2b6" y="174.736674"/>
      </g>
     </g>
     <g id="text_13">
      <!-- 27 -->
      <g style="fill:#07a8ff;" transform="translate(27.247344 178.31558)scale(0.1 -0.1)">
       <defs>
        <path d="M 4.734375 62.203125 
L 4.734375 70.65625 
L 51.078125 70.65625 
L 51.078125 63.8125 
Q 44.234375 56.546875 37.515625 44.484375 
Q 30.8125 32.421875 27.15625 19.671875 
Q 24.515625 10.6875 23.78125 0 
L 14.75 0 
Q 14.890625 8.453125 18.0625 20.40625 
Q 21.234375 32.375 27.171875 43.484375 
Q 33.109375 54.59375 39.796875 62.203125 
z
" id="ArialMT-55"/>
       </defs>
       <use xlink:href="#ArialMT-50"/>
       <use x="55.615234" xlink:href="#ArialMT-55"/>
      </g>
     </g>
    </g>
    <g id="ytick_7">
     <g id="line2d_40">
      <path clip-path="url(#pb683fb1223)" d="M 51.369219 138.582388 
L 677.233504 138.582388 
" style="fill:none;stroke:#a9dffc;stroke-linecap:square;"/>
     </g>
     <g id="line2d_41">
      <g>
       <use style="fill:#07a8ff;stroke:#07a8ff;" x="51.369219" xlink:href="#maff3b4f2b6" y="138.582388"/>
      </g>
     </g>
     <g id="text_14">
      <!-- 28 -->
      <g style="fill:#07a8ff;" transform="translate(27.247344 142.161295)scale(0.1 -0.1)">
       <use xlink:href="#ArialMT-50"/>
       <use x="55.615234" xlink:href="#ArialMT-56"/>
      </g>
     </g>
    </g>
    <g id="ytick_8">
     <g id="line2d_42">
      <path clip-path="url(#pb683fb1223)" d="M 51.369219 102.428103 
L 677.233504 102.428103 
" style="fill:none;stroke:#a9dffc;stroke-linecap:square;"/>
     </g>
     <g id="line2d_43">
      <g>
       <use style="fill:#07a8ff;stroke:#07a8ff;" x="51.369219" xlink:href="#maff3b4f2b6" y="102.428103"/>
      </g>
     </g>
     <g id="text_15">
      <!-- 29 -->
      <g style="fill:#07a8ff;" transform="translate(27.247344 106.007009)scale(0.1 -0.1)">
       <defs>
        <path d="M 5.46875 16.546875 
L 13.921875 17.328125 
Q 14.984375 11.375 18.015625 8.6875 
Q 21.046875 6 25.78125 6 
Q 29.828125 6 32.875 7.859375 
Q 35.9375 9.71875 37.890625 12.8125 
Q 39.84375 15.921875 41.15625 21.1875 
Q 42.484375 26.46875 42.484375 31.9375 
Q 42.484375 32.515625 42.4375 33.6875 
Q 39.796875 29.5 35.234375 26.875 
Q 30.671875 24.265625 25.34375 24.265625 
Q 16.453125 24.265625 10.296875 30.703125 
Q 4.15625 37.15625 4.15625 47.703125 
Q 4.15625 58.59375 10.578125 65.234375 
Q 17 71.875 26.65625 71.875 
Q 33.640625 71.875 39.421875 68.109375 
Q 45.21875 64.359375 48.21875 57.390625 
Q 51.21875 50.4375 51.21875 37.25 
Q 51.21875 23.53125 48.234375 15.40625 
Q 45.265625 7.28125 39.375 3.03125 
Q 33.5 -1.21875 25.59375 -1.21875 
Q 17.1875 -1.21875 11.859375 3.4375 
Q 6.546875 8.109375 5.46875 16.546875 
z
M 41.453125 48.140625 
Q 41.453125 55.71875 37.421875 60.15625 
Q 33.40625 64.59375 27.734375 64.59375 
Q 21.875 64.59375 17.53125 59.8125 
Q 13.1875 55.03125 13.1875 47.40625 
Q 13.1875 40.578125 17.3125 36.296875 
Q 21.4375 32.03125 27.484375 32.03125 
Q 33.59375 32.03125 37.515625 36.296875 
Q 41.453125 40.578125 41.453125 48.140625 
z
" id="ArialMT-57"/>
       </defs>
       <use xlink:href="#ArialMT-50"/>
       <use x="55.615234" xlink:href="#ArialMT-57"/>
      </g>
     </g>
    </g>
    <g id="ytick_9">
     <g id="line2d_44">
      <path clip-path="url(#pb683fb1223)" d="M 51.369219 66.273817 
L 677.233504 66.273817 
" style="fill:none;stroke:#a9dffc;stroke-linecap:square;"/>
     </g>
     <g id="line2d_45">
      <g>
       <use style="fill:#07a8ff;stroke:#07a8ff;" x="51.369219" xlink:href="#maff3b4f2b6" y="66.273817"/>
      </g>
     </g>
     <g id="text_16">
      <!-- 30 -->
      <g style="fill:#07a8ff;" transform="translate(27.247344 69.852723)scale(0.1 -0.1)">
       <use xlink:href="#ArialMT-51"/>
       <use x="55.615234" xlink:href="#ArialMT-48"/>
      </g>
     </g>
    </g>
    <g id="ytick_10">
     <g id="line2d_46">
      <path clip-path="url(#pb683fb1223)" d="M 51.369219 30.119531 
L 677.233504 30.119531 
" style="fill:none;stroke:#a9dffc;stroke-linecap:square;"/>
     </g>
     <g id="line2d_47">
      <g>
       <use style="fill:#07a8ff;stroke:#07a8ff;" x="51.369219" xlink:href="#maff3b4f2b6" y="30.119531"/>
      </g>
     </g>
     <g id="text_17">
      <!-- 31 -->
      <g style="fill:#07a8ff;" transform="translate(27.247344 33.698437)scale(0.1 -0.1)">
       <defs>
        <path d="M 37.25 0 
L 28.46875 0 
L 28.46875 56 
Q 25.296875 52.984375 20.140625 49.953125 
Q 14.984375 46.921875 10.890625 45.40625 
L 10.890625 53.90625 
Q 18.265625 57.375 23.78125 62.296875 
Q 29.296875 67.234375 31.59375 71.875 
L 37.25 71.875 
z
" id="ArialMT-49"/>
       </defs>
       <use xlink:href="#ArialMT-51"/>
       <use x="55.615234" xlink:href="#ArialMT-49"/>
      </g>
     </g>
    </g>
    <g id="ytick_11">
     <g id="line2d_48">
      <defs>
       <path d="M 0 0 
L -2 0 
" id="m368db2d614" style="stroke:#07a8ff;"/>
      </defs>
      <g>
       <use style="fill:#07a8ff;stroke:#07a8ff;" x="51.369219" xlink:href="#m368db2d614" y="348.277246"/>
      </g>
     </g>
    </g>
    <g id="ytick_12">
     <g id="line2d_49">
      <g>
       <use style="fill:#07a8ff;stroke:#07a8ff;" x="51.369219" xlink:href="#m368db2d614" y="341.046388"/>
      </g>
     </g>
    </g>
    <g id="ytick_13">
     <g id="line2d_50">
      <g>
       <use style="fill:#07a8ff;stroke:#07a8ff;" x="51.369219" xlink:href="#m368db2d614" y="333.815531"/>
      </g>
     </g>
    </g>
    <g id="ytick_14">
     <g id="line2d_51">
      <g>
       <use style="fill:#07a8ff;stroke:#07a8ff;" x="51.369219" xlink:href="#m368db2d614" y="326.584674"/>
      </g>
     </g>
    </g>
    <g id="ytick_15">
     <g id="line2d_52">
      <g>
       <use style="fill:#07a8ff;stroke:#07a8ff;" x="51.369219" xlink:href="#m368db2d614" y="312.12296"/>
      </g>
     </g>
    </g>
    <g id="ytick_16">
     <g id="line2d_53">
      <g>
       <use style="fill:#07a8ff;stroke:#07a8ff;" x="51.369219" xlink:href="#m368db2d614" y="304.892103"/>
      </g>
     </g>
    </g>
    <g id="ytick_17">
     <g id="line2d_54">
      <g>
       <use style="fill:#07a8ff;stroke:#07a8ff;" x="51.369219" xlink:href="#m368db2d614" y="297.661246"/>
      </g>
     </g>
    </g>
    <g id="ytick_18">
     <g id="line2d_55">
      <g>
       <use style="fill:#07a8ff;stroke:#07a8ff;" x="51.369219" xlink:href="#m368db2d614" y="290.430388"/>
      </g>
     </g>
    </g>
    <g id="ytick_19">
     <g id="line2d_56">
      <g>
       <use style="fill:#07a8ff;stroke:#07a8ff;" x="51.369219" xlink:href="#m368db2d614" y="275.968674"/>
      </g>
     </g>
    </g>
    <g id="ytick_20">
     <g id="line2d_57">
      <g>
       <use style="fill:#07a8ff;stroke:#07a8ff;" x="51.369219" xlink:href="#m368db2d614" y="268.737817"/>
      </g>
     </g>
    </g>
    <g id="ytick_21">
     <g id="line2d_58">
      <g>
       <use style="fill:#07a8ff;stroke:#07a8ff;" x="51.369219" xlink:href="#m368db2d614" y="261.50696"/>
      </g>
     </g>
    </g>
    <g id="ytick_22">
     <g id="line2d_59">
      <g>
       <use style="fill:#07a8ff;stroke:#07a8ff;" x="51.369219" xlink:href="#m368db2d614" y="254.276103"/>
      </g>
     </g>
    </g>
    <g id="ytick_23">
     <g id="line2d_60">
      <g>
       <use style="fill:#07a8ff;stroke:#07a8ff;" x="51.369219" xlink:href="#m368db2d614" y="239.814388"/>
      </g>
     </g>
    </g>
    <g id="ytick_24">
     <g id="line2d_61">
      <g>
       <use style="fill:#07a8ff;stroke:#07a8ff;" x="51.369219" xlink:href="#m368db2d614" y="232.583531"/>
      </g>
     </g>
    </g>
    <g id="ytick_25">
     <g id="line2d_62">
      <g>
       <use style="fill:#07a8ff;stroke:#07a8ff;" x="51.369219" xlink:href="#m368db2d614" y="225.352674"/>
      </g>
     </g>
    </g>
    <g id="ytick_26">
     <g id="line2d_63">
      <g>
       <use style="fill:#07a8ff;stroke:#07a8ff;" x="51.369219" xlink:href="#m368db2d614" y="218.121817"/>
      </g>
     </g>
    </g>
    <g id="ytick_27">
     <g id="line2d_64">
      <g>
       <use style="fill:#07a8ff;stroke:#07a8ff;" x="51.369219" xlink:href="#m368db2d614" y="203.660103"/>
      </g>
     </g>
    </g>
    <g id="ytick_28">
     <g id="line2d_65">
      <g>
       <use style="fill:#07a8ff;stroke:#07a8ff;" x="51.369219" xlink:href="#m368db2d614" y="196.429246"/>
      </g>
     </g>
    </g>
    <g id="ytick_29">
     <g id="line2d_66">
      <g>
       <use style="fill:#07a8ff;stroke:#07a8ff;" x="51.369219" xlink:href="#m368db2d614" y="189.198388"/>
      </g>
     </g>
    </g>
    <g id="ytick_30">
     <g id="line2d_67">
      <g>
       <use style="fill:#07a8ff;stroke:#07a8ff;" x="51.369219" xlink:href="#m368db2d614" y="181.967531"/>
      </g>
     </g>
    </g>
    <g id="ytick_31">
     <g id="line2d_68">
      <g>
       <use style="fill:#07a8ff;stroke:#07a8ff;" x="51.369219" xlink:href="#m368db2d614" y="167.505817"/>
      </g>
     </g>
    </g>
    <g id="ytick_32">
     <g id="line2d_69">
      <g>
       <use style="fill:#07a8ff;stroke:#07a8ff;" x="51.369219" xlink:href="#m368db2d614" y="160.27496"/>
      </g>
     </g>
    </g>
    <g id="ytick_33">
     <g id="line2d_70">
      <g>
       <use style="fill:#07a8ff;stroke:#07a8ff;" x="51.369219" xlink:href="#m368db2d614" y="153.044103"/>
      </g>
     </g>
    </g>
    <g id="ytick_34">
     <g id="line2d_71">
      <g>
       <use style="fill:#07a8ff;stroke:#07a8ff;" x="51.369219" xlink:href="#m368db2d614" y="145.813246"/>
      </g>
     </g>
    </g>
    <g id="ytick_35">
     <g id="line2d_72">
      <g>
       <use style="fill:#07a8ff;stroke:#07a8ff;" x="51.369219" xlink:href="#m368db2d614" y="131.351531"/>
      </g>
     </g>
    </g>
    <g id="ytick_36">
     <g id="line2d_73">
      <g>
       <use style="fill:#07a8ff;stroke:#07a8ff;" x="51.369219" xlink:href="#m368db2d614" y="124.120674"/>
      </g>
     </g>
    </g>
    <g id="ytick_37">
     <g id="line2d_74">
      <g>
       <use style="fill:#07a8ff;stroke:#07a8ff;" x="51.369219" xlink:href="#m368db2d614" y="116.889817"/>
      </g>
     </g>
    </g>
    <g id="ytick_38">
     <g id="line2d_75">
      <g>
       <use style="fill:#07a8ff;stroke:#07a8ff;" x="51.369219" xlink:href="#m368db2d614" y="109.65896"/>
      </g>
     </g>
    </g>
    <g id="ytick_39">
     <g id="line2d_76">
      <g>
       <use style="fill:#07a8ff;stroke:#07a8ff;" x="51.369219" xlink:href="#m368db2d614" y="95.197246"/>
      </g>
     </g>
    </g>
    <g id="ytick_40">
     <g id="line2d_77">
      <g>
       <use style="fill:#07a8ff;stroke:#07a8ff;" x="51.369219" xlink:href="#m368db2d614" y="87.966388"/>
      </g>
     </g>
    </g>
    <g id="ytick_41">
     <g id="line2d_78">
      <g>
       <use style="fill:#07a8ff;stroke:#07a8ff;" x="51.369219" xlink:href="#m368db2d614" y="80.735531"/>
      </g>
     </g>
    </g>
    <g id="ytick_42">
     <g id="line2d_79">
      <g>
       <use style="fill:#07a8ff;stroke:#07a8ff;" x="51.369219" xlink:href="#m368db2d614" y="73.504674"/>
      </g>
     </g>
    </g>
    <g id="ytick_43">
     <g id="line2d_80">
      <g>
       <use style="fill:#07a8ff;stroke:#07a8ff;" x="51.369219" xlink:href="#m368db2d614" y="59.04296"/>
      </g>
     </g>
    </g>
    <g id="ytick_44">
     <g id="line2d_81">
      <g>
       <use style="fill:#07a8ff;stroke:#07a8ff;" x="51.369219" xlink:href="#m368db2d614" y="51.812103"/>
      </g>
     </g>
    </g>
    <g id="ytick_45">
     <g id="line2d_82">
      <g>
       <use style="fill:#07a8ff;stroke:#07a8ff;" x="51.369219" xlink:href="#m368db2d614" y="44.581246"/>
      </g>
     </g>
    </g>
    <g id="ytick_46">
     <g id="line2d_83">
      <g>
       <use style="fill:#07a8ff;stroke:#07a8ff;" x="51.369219" xlink:href="#m368db2d614" y="37.350388"/>
      </g>
     </g>
    </g>
    <g id="text_18">
     <!-- Temperatur / °C -->
     <g style="fill:#262626;" transform="translate(16.663594 238.393036)rotate(-90)scale(0.13 -0.13)">
      <defs>
       <path d="M 25.921875 0 
L 25.921875 63.140625 
L 2.34375 63.140625 
L 2.34375 71.578125 
L 59.078125 71.578125 
L 59.078125 63.140625 
L 35.40625 63.140625 
L 35.40625 0 
z
" id="ArialMT-84"/>
       <path d="M 6.59375 -19.875 
L 6.59375 51.859375 
L 14.59375 51.859375 
L 14.59375 45.125 
Q 17.4375 49.078125 21 51.046875 
Q 24.5625 53.03125 29.640625 53.03125 
Q 36.28125 53.03125 41.359375 49.609375 
Q 46.4375 46.1875 49.015625 39.953125 
Q 51.609375 33.734375 51.609375 26.3125 
Q 51.609375 18.359375 48.75 11.984375 
Q 45.90625 5.609375 40.453125 2.21875 
Q 35.015625 -1.171875 29 -1.171875 
Q 24.609375 -1.171875 21.109375 0.6875 
Q 17.625 2.546875 15.375 5.375 
L 15.375 -19.875 
z
M 14.546875 25.640625 
Q 14.546875 15.625 18.59375 10.84375 
Q 22.65625 6.0625 28.421875 6.0625 
Q 34.28125 6.0625 38.453125 11.015625 
Q 42.625 15.96875 42.625 26.375 
Q 42.625 36.28125 38.546875 41.203125 
Q 34.46875 46.140625 28.8125 46.140625 
Q 23.1875 46.140625 18.859375 40.890625 
Q 14.546875 35.640625 14.546875 25.640625 
z
" id="ArialMT-112"/>
       <path d="M 6.5 0 
L 6.5 51.859375 
L 14.40625 51.859375 
L 14.40625 44 
Q 17.4375 49.515625 20 51.265625 
Q 22.5625 53.03125 25.640625 53.03125 
Q 30.078125 53.03125 34.671875 50.203125 
L 31.640625 42.046875 
Q 28.421875 43.953125 25.203125 43.953125 
Q 22.3125 43.953125 20.015625 42.21875 
Q 17.71875 40.484375 16.75 37.40625 
Q 15.28125 32.71875 15.28125 27.15625 
L 15.28125 0 
z
" id="ArialMT-114"/>
       <path d="M 6.25 59.28125 
Q 6.25 64.890625 10.21875 68.84375 
Q 14.203125 72.796875 19.78125 72.796875 
Q 25.4375 72.796875 29.390625 68.84375 
Q 33.34375 64.890625 33.34375 59.28125 
Q 33.34375 53.65625 29.359375 49.671875 
Q 25.390625 45.703125 19.78125 45.703125 
Q 14.203125 45.703125 10.21875 49.65625 
Q 6.25 53.609375 6.25 59.28125 
z
M 11.578125 59.28125 
Q 11.578125 55.859375 13.984375 53.4375 
Q 16.40625 51.03125 19.828125 51.03125 
Q 23.1875 51.03125 25.609375 53.4375 
Q 28.03125 55.859375 28.03125 59.28125 
Q 28.03125 62.703125 25.609375 65.109375 
Q 23.1875 67.53125 19.828125 67.53125 
Q 16.40625 67.53125 13.984375 65.109375 
Q 11.578125 62.703125 11.578125 59.28125 
z
" id="ArialMT-176"/>
       <path d="M 58.796875 25.09375 
L 68.265625 22.703125 
Q 65.28125 11.03125 57.546875 4.90625 
Q 49.8125 -1.21875 38.625 -1.21875 
Q 27.046875 -1.21875 19.796875 3.484375 
Q 12.546875 8.203125 8.765625 17.140625 
Q 4.984375 26.078125 4.984375 36.328125 
Q 4.984375 47.515625 9.25 55.828125 
Q 13.53125 64.15625 21.40625 68.46875 
Q 29.296875 72.796875 38.765625 72.796875 
Q 49.515625 72.796875 56.828125 67.328125 
Q 64.15625 61.859375 67.046875 51.953125 
L 57.71875 49.75 
Q 55.21875 57.5625 50.484375 61.125 
Q 45.75 64.703125 38.578125 64.703125 
Q 30.328125 64.703125 24.78125 60.734375 
Q 19.234375 56.78125 16.984375 50.109375 
Q 14.75 43.453125 14.75 36.375 
Q 14.75 27.25 17.40625 20.4375 
Q 20.0625 13.625 25.671875 10.25 
Q 31.296875 6.890625 37.84375 6.890625 
Q 45.796875 6.890625 51.3125 11.46875 
Q 56.84375 16.0625 58.796875 25.09375 
z
" id="ArialMT-67"/>
      </defs>
      <use xlink:href="#ArialMT-84"/>
      <use x="49.958984" xlink:href="#ArialMT-101"/>
      <use x="105.574219" xlink:href="#ArialMT-109"/>
      <use x="188.875" xlink:href="#ArialMT-112"/>
      <use x="244.490234" xlink:href="#ArialMT-101"/>
      <use x="300.105469" xlink:href="#ArialMT-114"/>
      <use x="333.40625" xlink:href="#ArialMT-97"/>
      <use x="389.021484" xlink:href="#ArialMT-116"/>
      <use x="416.804688" xlink:href="#ArialMT-117"/>
      <use x="472.419922" xlink:href="#ArialMT-114"/>
      <use x="505.720703" xlink:href="#ArialMT-32"/>
      <use x="533.503906" xlink:href="#ArialMT-47"/>
      <use x="561.287109" xlink:href="#ArialMT-32"/>
      <use x="589.070312" xlink:href="#ArialMT-176"/>
      <use x="629.060547" xlink:href="#ArialMT-67"/>
     </g>
    </g>
   </g>
   <g id="patch_3">
    <path clip-path="url(#pb683fb1223)" d="M 113.955647 355.508103 
L 113.955647 30.119531 
L 176.542076 30.119531 
L 176.542076 355.508103 
z
" style="fill:#ffc9ff;opacity:0.6;stroke:#ffc9ff;stroke-linejoin:miter;stroke-width:0.3;"/>
   </g>
   <g id="line2d_84">
    <path clip-path="url(#pb683fb1223)" d="M 50.326112 75.312388 
L 53.455433 75.312388 
L 56.584754 79.831674 
L 59.714076 82.07324 
L 62.843397 82.07324 
L 65.972719 84.35096 
L 69.10204 84.35096 
L 72.231362 86.592526 
L 75.360683 86.592526 
L 78.490004 88.870246 
L 81.619326 88.870246 
L 84.748647 91.111811 
L 87.877969 95.631097 
L 97.265933 102.428103 
L 103.524576 111.466674 
L 106.653897 113.70824 
L 116.041862 113.70824 
L 119.171183 118.227526 
L 122.300504 120.505246 
L 125.429826 120.505246 
L 128.559147 122.746811 
L 134.81779 131.785383 
L 137.947112 131.785383 
L 141.076433 134.063103 
L 144.205754 134.063103 
L 147.335076 131.785383 
L 150.464397 131.785383 
L 153.593719 134.063103 
L 156.72304 134.063103 
L 159.852362 136.304668 
L 162.981683 136.304668 
L 166.111004 140.823954 
L 169.240326 147.62096 
L 172.369647 152.140246 
L 178.62829 156.659531 
L 181.757612 161.178817 
L 188.016254 165.698103 
L 191.145576 165.698103 
L 194.274897 163.420383 
L 197.404219 163.420383 
L 203.662862 167.939668 
L 206.792183 172.458954 
L 225.568112 186.016811 
L 228.697433 190.536097 
L 234.956076 195.055383 
L 238.085397 199.574668 
L 244.34404 204.093954 
L 247.473362 208.61324 
L 250.602683 210.89096 
L 253.732004 210.89096 
L 263.119969 217.651811 
L 266.24929 222.171097 
L 275.637254 222.171097 
L 278.766576 219.929531 
L 285.025219 219.929531 
L 288.15454 222.171097 
L 291.283862 222.171097 
L 294.413183 224.448817 
L 297.542504 224.448817 
L 300.671826 226.690383 
L 316.318433 226.690383 
L 322.577076 231.209668 
L 325.706397 231.209668 
L 328.835719 233.487388 
L 335.094362 233.487388 
L 338.223683 231.209668 
L 341.353004 233.487388 
L 344.482326 233.487388 
L 347.611647 235.728954 
L 350.740969 240.24824 
L 353.87029 242.52596 
L 356.999612 247.045246 
L 363.258254 251.564531 
L 391.422147 251.564531 
L 394.551469 249.286811 
L 400.810112 249.286811 
L 407.068754 253.806097 
L 416.456719 253.806097 
L 419.58604 251.564531 
L 422.715362 251.564531 
L 425.844683 249.286811 
L 447.749933 249.286811 
L 450.879254 251.564531 
L 454.008576 249.286811 
L 457.137897 251.564531 
L 479.043147 251.564531 
L 482.172469 247.045246 
L 485.30179 247.045246 
L 488.431112 249.286811 
L 491.560433 249.286811 
L 494.689754 247.045246 
L 497.819076 251.564531 
L 500.948397 251.564531 
L 504.077719 256.083817 
L 513.465683 262.844668 
L 516.595004 262.844668 
L 519.724326 260.603103 
L 522.853647 260.603103 
L 535.370933 269.641674 
L 538.500254 274.16096 
L 547.888219 274.16096 
L 551.01754 278.680246 
L 572.92279 294.479668 
L 576.052112 294.479668 
L 585.440076 301.276674 
L 588.569397 301.276674 
L 591.698719 303.51824 
L 601.086683 303.51824 
L 604.216004 301.276674 
L 619.862612 301.276674 
L 622.991933 303.51824 
L 629.250576 303.51824 
L 632.379897 305.79596 
L 635.509219 305.79596 
L 638.63854 308.037526 
L 641.767862 312.556811 
L 651.155826 319.353817 
L 654.285147 319.353817 
L 657.414469 323.873103 
L 660.54379 323.873103 
L 663.673112 326.114668 
L 666.802433 330.633954 
L 676.190397 337.43096 
L 679.319719 341.950246 
L 679.319719 341.950246 
" style="fill:none;stroke:#006ba4;stroke-linecap:square;stroke-width:1.75;"/>
   </g>
   <g id="line2d_85">
    <path clip-path="url(#pb683fb1223)" d="M 49.283004 39.158103 
L 55.541647 43.677388 
L 64.929612 43.677388 
L 68.058933 48.196674 
L 71.188254 48.196674 
L 74.317576 50.43824 
L 77.446897 48.196674 
L 80.576219 48.196674 
L 83.70554 50.43824 
L 86.834862 54.957526 
L 93.093504 59.476811 
L 96.222826 59.476811 
L 99.352147 63.996097 
L 102.481469 70.793103 
L 105.61079 73.034668 
L 108.740112 73.034668 
L 111.869433 75.312388 
L 114.998754 75.312388 
L 118.128076 84.35096 
L 121.257397 91.111811 
L 127.51604 91.111811 
L 130.645362 93.389531 
L 133.774683 100.150383 
L 136.904004 104.669668 
L 140.033326 104.669668 
L 143.162647 102.428103 
L 149.42129 102.428103 
L 152.550612 104.669668 
L 155.679933 111.466674 
L 158.809254 113.70824 
L 161.938576 118.227526 
L 165.067897 120.505246 
L 168.197219 125.024531 
L 171.32654 131.785383 
L 183.843826 131.785383 
L 186.973147 134.063103 
L 190.102469 131.785383 
L 193.23179 131.785383 
L 202.619754 138.582388 
L 205.749076 143.101674 
L 212.007719 143.101674 
L 221.395683 149.862526 
L 224.525004 149.862526 
L 227.654326 154.381811 
L 230.783647 156.659531 
L 233.912969 156.659531 
L 240.171612 161.178817 
L 243.300933 165.698103 
L 249.559576 170.217388 
L 252.688897 170.217388 
L 258.94754 174.736674 
L 262.076862 179.25596 
L 265.206183 186.016811 
L 268.335504 190.536097 
L 271.464826 190.536097 
L 274.594147 188.294531 
L 277.723469 188.294531 
L 280.85279 190.536097 
L 287.111433 190.536097 
L 290.240754 192.813817 
L 312.146004 192.813817 
L 334.051254 208.61324 
L 337.180576 206.371674 
L 343.439219 210.89096 
L 346.56854 217.651811 
L 349.697862 219.929531 
L 352.827183 217.651811 
L 355.956504 217.651811 
L 359.085826 219.929531 
L 362.215147 219.929531 
L 365.344469 222.171097 
L 368.47379 219.929531 
L 371.603112 222.171097 
L 377.861754 222.171097 
L 380.991076 224.448817 
L 384.120397 224.448817 
L 387.249719 228.968103 
L 406.025647 228.968103 
L 415.413612 222.171097 
L 418.542933 222.171097 
L 424.801576 217.651811 
L 427.930897 217.651811 
L 431.060219 215.410246 
L 434.18954 215.410246 
L 437.318862 213.132526 
L 440.448183 213.132526 
L 449.836147 219.929531 
L 452.965469 219.929531 
L 456.09479 222.171097 
L 478.00004 222.171097 
L 481.129362 224.448817 
L 484.258683 224.448817 
L 487.388004 226.690383 
L 490.517326 226.690383 
L 493.646647 231.209668 
L 496.775969 233.487388 
L 506.163933 233.487388 
L 509.293254 235.728954 
L 524.939862 235.728954 
L 531.198504 244.767526 
L 537.457147 249.286811 
L 540.586469 253.806097 
L 553.103754 262.844668 
L 556.233076 262.844668 
L 571.879683 274.16096 
L 575.009004 274.16096 
L 581.267647 278.680246 
L 584.396969 278.680246 
L 590.655612 283.199531 
L 593.784933 283.199531 
L 596.914254 285.441097 
L 600.043576 285.441097 
L 603.172897 283.199531 
L 606.302219 283.199531 
L 609.43154 280.921811 
L 612.560862 280.921811 
L 615.690183 283.199531 
L 618.819504 283.199531 
L 621.948826 285.441097 
L 631.33679 285.441097 
L 634.466112 287.718817 
L 640.724754 287.718817 
L 643.854076 294.479668 
L 650.112719 294.479668 
L 662.630004 303.51824 
L 665.759326 308.037526 
L 668.888647 310.315246 
L 672.017969 310.315246 
L 675.14729 312.556811 
L 678.276612 312.556811 
L 678.276612 312.556811 
" style="fill:none;stroke:#ff800e;stroke-linecap:square;stroke-width:1.75;"/>
   </g>
   <g id="line2d_86">
    <path clip-path="url(#pb683fb1223)" d="M 49.283004 86.592526 
L 52.412326 91.111811 
L 58.670969 95.631097 
L 61.80029 100.150383 
L 64.929612 102.428103 
L 68.058933 106.947388 
L 71.188254 109.188954 
L 74.317576 113.70824 
L 83.70554 120.505246 
L 86.834862 125.024531 
L 93.093504 129.543817 
L 99.352147 138.582388 
L 102.481469 138.582388 
L 105.61079 143.101674 
L 108.740112 145.34324 
L 118.128076 158.901097 
L 121.257397 161.178817 
L 124.386719 161.178817 
L 127.51604 165.698103 
L 133.774683 170.217388 
L 136.904004 174.736674 
L 140.033326 176.97824 
L 143.162647 176.97824 
L 161.938576 190.536097 
L 165.067897 190.536097 
L 168.197219 195.055383 
L 171.32654 197.333103 
L 174.455862 197.333103 
L 177.585183 199.574668 
L 180.714504 204.093954 
L 193.23179 204.093954 
L 196.361112 206.371674 
L 199.490433 206.371674 
L 202.619754 208.61324 
L 205.749076 208.61324 
L 208.878397 213.132526 
L 215.13704 213.132526 
L 221.395683 217.651811 
L 224.525004 222.171097 
L 230.783647 226.690383 
L 233.912969 226.690383 
L 237.04229 228.968103 
L 240.171612 228.968103 
L 249.559576 235.728954 
L 252.688897 235.728954 
L 255.818219 240.24824 
L 258.94754 240.24824 
L 262.076862 242.52596 
L 268.335504 251.564531 
L 271.464826 251.564531 
L 274.594147 249.286811 
L 277.723469 249.286811 
L 280.85279 247.045246 
L 283.982112 249.286811 
L 287.111433 249.286811 
L 293.370076 253.806097 
L 296.499397 251.564531 
L 302.75804 256.083817 
L 305.887362 253.806097 
L 309.016683 253.806097 
L 315.275326 258.325383 
L 318.404647 258.325383 
L 321.533969 262.844668 
L 327.792612 262.844668 
L 330.921933 265.122388 
L 334.051254 265.122388 
L 337.180576 262.844668 
L 340.309897 265.122388 
L 343.439219 269.641674 
L 349.697862 274.16096 
L 355.956504 274.16096 
L 362.215147 278.680246 
L 371.603112 278.680246 
L 374.732433 280.921811 
L 377.861754 280.921811 
L 380.991076 283.199531 
L 384.120397 283.199531 
L 387.249719 285.441097 
L 393.508362 285.441097 
L 396.637683 287.718817 
L 402.896326 287.718817 
L 406.025647 289.960383 
L 409.154969 289.960383 
L 412.28429 287.718817 
L 415.413612 287.718817 
L 418.542933 285.441097 
L 421.672254 285.441097 
L 431.060219 278.680246 
L 434.18954 278.680246 
L 440.448183 274.16096 
L 446.706826 274.16096 
L 449.836147 276.402526 
L 452.965469 274.16096 
L 459.224112 274.16096 
L 462.353433 271.88324 
L 471.741397 271.88324 
L 474.870719 274.16096 
L 496.775969 274.16096 
L 503.034612 269.641674 
L 506.163933 269.641674 
L 509.293254 271.88324 
L 512.422576 271.88324 
L 515.551897 274.16096 
L 518.681219 274.16096 
L 521.81054 271.88324 
L 534.327826 271.88324 
L 537.457147 274.16096 
L 543.71579 274.16096 
L 549.974433 278.680246 
L 553.103754 278.680246 
L 556.233076 280.921811 
L 559.362397 280.921811 
L 565.62104 285.441097 
L 568.750362 285.441097 
L 571.879683 287.718817 
L 575.009004 287.718817 
L 581.267647 292.238103 
L 584.396969 292.238103 
L 590.655612 296.757388 
L 596.914254 296.757388 
L 600.043576 298.998954 
L 603.172897 298.998954 
L 606.302219 296.757388 
L 612.560862 296.757388 
L 618.819504 301.276674 
L 628.207469 301.276674 
L 631.33679 303.51824 
L 634.466112 301.276674 
L 646.983397 310.315246 
L 650.112719 314.834531 
L 656.371362 319.353817 
L 659.500683 323.873103 
L 675.14729 335.15324 
L 678.276612 335.15324 
L 678.276612 335.15324 
" style="fill:none;stroke:#ababab;stroke-linecap:square;stroke-width:1.75;"/>
   </g>
   <g id="line2d_87">
    <path clip-path="url(#pb683fb1223)" d="M 49.283004 63.996097 
L 52.412326 68.515383 
L 61.80029 75.312388 
L 71.188254 75.312388 
L 74.317576 73.034668 
L 77.446897 75.312388 
L 83.70554 75.312388 
L 93.093504 88.870246 
L 96.222826 95.631097 
L 102.481469 100.150383 
L 108.740112 100.150383 
L 127.51604 113.70824 
L 130.645362 113.70824 
L 133.774683 111.466674 
L 140.033326 111.466674 
L 146.291969 115.98596 
L 149.42129 115.98596 
L 152.550612 118.227526 
L 155.679933 118.227526 
L 161.938576 122.746811 
L 165.067897 122.746811 
L 168.197219 125.024531 
L 171.32654 129.543817 
L 177.585183 134.063103 
L 180.714504 134.063103 
L 183.843826 136.304668 
L 190.102469 136.304668 
L 193.23179 138.582388 
L 202.619754 138.582388 
L 205.749076 140.823954 
L 208.878397 140.823954 
L 212.007719 145.34324 
L 218.266362 149.862526 
L 221.395683 149.862526 
L 224.525004 152.140246 
L 227.654326 152.140246 
L 230.783647 154.381811 
L 233.912969 154.381811 
L 240.171612 158.901097 
L 246.430254 167.939668 
L 249.559576 170.217388 
L 252.688897 174.736674 
L 258.94754 179.25596 
L 262.076862 183.775246 
L 265.206183 186.016811 
L 268.335504 190.536097 
L 290.240754 206.371674 
L 299.628719 213.132526 
L 302.75804 213.132526 
L 305.887362 210.89096 
L 309.016683 210.89096 
L 312.146004 208.61324 
L 315.275326 210.89096 
L 318.404647 208.61324 
L 321.533969 210.89096 
L 324.66329 210.89096 
L 334.051254 217.651811 
L 337.180576 217.651811 
L 349.697862 226.690383 
L 355.956504 226.690383 
L 359.085826 228.968103 
L 362.215147 228.968103 
L 365.344469 231.209668 
L 371.603112 231.209668 
L 374.732433 233.487388 
L 377.861754 233.487388 
L 380.991076 235.728954 
L 384.120397 233.487388 
L 387.249719 233.487388 
L 390.37904 231.209668 
L 393.508362 233.487388 
L 396.637683 233.487388 
L 402.896326 238.006674 
L 412.28429 238.006674 
L 415.413612 235.728954 
L 418.542933 235.728954 
L 421.672254 233.487388 
L 427.930897 238.006674 
L 437.318862 238.006674 
L 440.448183 240.24824 
L 446.706826 240.24824 
L 449.836147 242.52596 
L 452.965469 242.52596 
L 456.09479 244.767526 
L 462.353433 244.767526 
L 465.482754 247.045246 
L 468.612076 247.045246 
L 471.741397 249.286811 
L 478.00004 249.286811 
L 484.258683 253.806097 
L 487.388004 253.806097 
L 490.517326 256.083817 
L 493.646647 256.083817 
L 496.775969 258.325383 
L 503.034612 258.325383 
L 506.163933 260.603103 
L 524.939862 260.603103 
L 528.069183 262.844668 
L 531.198504 262.844668 
L 534.327826 265.122388 
L 537.457147 269.641674 
L 549.974433 278.680246 
L 553.103754 283.199531 
L 556.233076 283.199531 
L 575.009004 296.757388 
L 578.138326 296.757388 
L 584.396969 301.276674 
L 590.655612 301.276674 
L 593.784933 303.51824 
L 596.914254 303.51824 
L 600.043576 305.79596 
L 615.690183 305.79596 
L 628.207469 314.834531 
L 631.33679 314.834531 
L 640.724754 321.595383 
L 646.983397 321.595383 
L 650.112719 326.114668 
L 656.371362 330.633954 
L 665.759326 330.633954 
L 672.017969 335.15324 
L 678.276612 335.15324 
L 678.276612 335.15324 
" style="fill:none;stroke:#595959;stroke-linecap:square;stroke-width:1.75;"/>
   </g>
   <g id="line2d_88">
    <path clip-path="url(#pb683fb1223)" d="M 51.369219 133.008301 
L 145.248862 133.008301 
" style="fill:none;stroke:#ff05ff;stroke-dasharray:6.475,2.8;stroke-dashoffset:0;stroke-width:1.75;"/>
   </g>
   <g id="line2d_89">
    <defs>
     <path d="M -3 3 
L 3 -3 
M -3 -3 
L 3 3 
" id="m57495ab17e" style="stroke:#006ba4;"/>
    </defs>
    <g clip-path="url(#pb683fb1223)">
     <use style="fill:#006ba4;stroke:#006ba4;" x="145.248862" xlink:href="#m57495ab17e" y="132.696471"/>
    </g>
   </g>
   <g id="line2d_90">
    <defs>
     <path d="M -3 3 
L 3 -3 
M -3 -3 
L 3 3 
" id="mae923dbeee" style="stroke:#ff800e;"/>
    </defs>
    <g clip-path="url(#pb683fb1223)">
     <use style="fill:#ff800e;stroke:#ff800e;" x="145.248862" xlink:href="#mae923dbeee" y="105.01675"/>
    </g>
   </g>
   <g id="line2d_91">
    <defs>
     <path d="M -3 3 
L 3 -3 
M -3 -3 
L 3 3 
" id="m2a9271a565" style="stroke:#ababab;"/>
    </defs>
    <g clip-path="url(#pb683fb1223)">
     <use style="fill:#ababab;stroke:#ababab;" x="145.248862" xlink:href="#m2a9271a565" y="177.891136"/>
    </g>
   </g>
   <g id="line2d_92">
    <defs>
     <path d="M -3 3 
L 3 -3 
M -3 -3 
L 3 3 
" id="m4ea286b369" style="stroke:#595959;"/>
    </defs>
    <g clip-path="url(#pb683fb1223)">
     <use style="fill:#595959;stroke:#595959;" x="145.248862" xlink:href="#m4ea286b369" y="116.42885"/>
    </g>
   </g>
   <g id="line2d_93">
    <defs>
     <path d="M 0 3 
C 0.795609 3 1.55874 2.683901 2.12132 2.12132 
C 2.683901 1.55874 3 0.795609 3 0 
C 3 -0.795609 2.683901 -1.55874 2.12132 -2.12132 
C 1.55874 -2.683901 0.795609 -3 0 -3 
C -0.795609 -3 -1.55874 -2.683901 -2.12132 -2.12132 
C -2.683901 -1.55874 -3 -0.795609 -3 0 
C -3 0.795609 -2.683901 1.55874 -2.12132 2.12132 
C -1.55874 2.683901 -0.795609 3 0 3 
z
" id="m61bd2e5e08" style="stroke:#ff05ff;"/>
    </defs>
    <g clip-path="url(#pb683fb1223)">
     <use style="fill:#ff05ff;stroke:#ff05ff;" x="145.248862" xlink:href="#m61bd2e5e08" y="133.008301"/>
    </g>
   </g>
   <g id="patch_4">
    <path d="M 51.369219 355.508103 
L 51.369219 30.119531 
" style="fill:none;stroke:#07a8ff;stroke-linecap:square;stroke-linejoin:miter;stroke-width:0.8;"/>
   </g>
   <g id="patch_5">
    <path d="M 51.369219 355.508103 
L 677.233504 355.508103 
" style="fill:none;stroke:#07a8ff;stroke-linecap:square;stroke-linejoin:miter;stroke-width:0.8;"/>
   </g>
   <g id="text_19">
    <!-- Tropennacht 4. August 2022: Ermittlung Tages-Referenztemperatur -->
    <g style="fill:#262626;" transform="translate(51.369219 18.119531)scale(0.15 -0.15)">
     <defs>
      <path d="M 3.328125 25.921875 
Q 3.328125 40.328125 11.328125 47.265625 
Q 18.015625 53.03125 27.640625 53.03125 
Q 38.328125 53.03125 45.109375 46.015625 
Q 51.90625 39.015625 51.90625 26.65625 
Q 51.90625 16.65625 48.90625 10.90625 
Q 45.90625 5.171875 40.15625 2 
Q 34.421875 -1.171875 27.640625 -1.171875 
Q 16.75 -1.171875 10.03125 5.8125 
Q 3.328125 12.796875 3.328125 25.921875 
z
M 12.359375 25.921875 
Q 12.359375 15.96875 16.703125 11.015625 
Q 21.046875 6.0625 27.640625 6.0625 
Q 34.1875 6.0625 38.53125 11.03125 
Q 42.875 16.015625 42.875 26.21875 
Q 42.875 35.84375 38.5 40.796875 
Q 34.125 45.75 27.640625 45.75 
Q 21.046875 45.75 16.703125 40.8125 
Q 12.359375 35.890625 12.359375 25.921875 
z
" id="ArialMT-111"/>
      <path d="M 6.59375 0 
L 6.59375 51.859375 
L 14.5 51.859375 
L 14.5 44.484375 
Q 20.21875 53.03125 31 53.03125 
Q 35.6875 53.03125 39.625 51.34375 
Q 43.5625 49.65625 45.515625 46.921875 
Q 47.46875 44.1875 48.25 40.4375 
Q 48.734375 37.984375 48.734375 31.890625 
L 48.734375 0 
L 39.9375 0 
L 39.9375 31.546875 
Q 39.9375 36.921875 38.90625 39.578125 
Q 37.890625 42.234375 35.28125 43.8125 
Q 32.671875 45.40625 29.15625 45.40625 
Q 23.53125 45.40625 19.453125 41.84375 
Q 15.375 38.28125 15.375 28.328125 
L 15.375 0 
z
" id="ArialMT-110"/>
      <path d="M 40.4375 19 
L 49.078125 17.875 
Q 47.65625 8.9375 41.8125 3.875 
Q 35.984375 -1.171875 27.484375 -1.171875 
Q 16.84375 -1.171875 10.375 5.78125 
Q 3.90625 12.75 3.90625 25.734375 
Q 3.90625 34.125 6.6875 40.421875 
Q 9.46875 46.734375 15.15625 49.875 
Q 20.84375 53.03125 27.546875 53.03125 
Q 35.984375 53.03125 41.359375 48.75 
Q 46.734375 44.484375 48.25 36.625 
L 39.703125 35.296875 
Q 38.484375 40.53125 35.375 43.15625 
Q 32.28125 45.796875 27.875 45.796875 
Q 21.234375 45.796875 17.078125 41.03125 
Q 12.9375 36.28125 12.9375 25.984375 
Q 12.9375 15.53125 16.9375 10.796875 
Q 20.953125 6.0625 27.390625 6.0625 
Q 32.5625 6.0625 36.03125 9.234375 
Q 39.5 12.40625 40.4375 19 
z
" id="ArialMT-99"/>
      <path d="M 6.59375 0 
L 6.59375 71.578125 
L 15.375 71.578125 
L 15.375 45.90625 
Q 21.53125 53.03125 30.90625 53.03125 
Q 36.671875 53.03125 40.921875 50.75 
Q 45.171875 48.484375 47 44.484375 
Q 48.828125 40.484375 48.828125 32.859375 
L 48.828125 0 
L 40.046875 0 
L 40.046875 32.859375 
Q 40.046875 39.453125 37.1875 42.453125 
Q 34.328125 45.453125 29.109375 45.453125 
Q 25.203125 45.453125 21.75 43.421875 
Q 18.3125 41.40625 16.84375 37.9375 
Q 15.375 34.46875 15.375 28.375 
L 15.375 0 
z
" id="ArialMT-104"/>
      <path d="M -0.140625 0 
L 27.34375 71.578125 
L 37.546875 71.578125 
L 66.84375 0 
L 56.0625 0 
L 47.703125 21.6875 
L 17.78125 21.6875 
L 9.90625 0 
z
M 20.515625 29.390625 
L 44.78125 29.390625 
L 37.3125 49.21875 
Q 33.890625 58.25 32.234375 64.0625 
Q 30.859375 57.171875 28.375 50.390625 
z
" id="ArialMT-65"/>
      <path d="M 4.984375 -4.296875 
L 13.53125 -5.5625 
Q 14.0625 -9.515625 16.5 -11.328125 
Q 19.78125 -13.765625 25.4375 -13.765625 
Q 31.546875 -13.765625 34.859375 -11.328125 
Q 38.1875 -8.890625 39.359375 -4.5 
Q 40.046875 -1.8125 39.984375 6.78125 
Q 34.234375 0 25.640625 0 
Q 14.9375 0 9.078125 7.71875 
Q 3.21875 15.4375 3.21875 26.21875 
Q 3.21875 33.640625 5.90625 39.90625 
Q 8.59375 46.1875 13.6875 49.609375 
Q 18.796875 53.03125 25.6875 53.03125 
Q 34.859375 53.03125 40.828125 45.609375 
L 40.828125 51.859375 
L 48.921875 51.859375 
L 48.921875 7.03125 
Q 48.921875 -5.078125 46.453125 -10.125 
Q 44 -15.1875 38.640625 -18.109375 
Q 33.296875 -21.046875 25.484375 -21.046875 
Q 16.21875 -21.046875 10.5 -16.875 
Q 4.78125 -12.703125 4.984375 -4.296875 
z
M 12.25 26.859375 
Q 12.25 16.65625 16.296875 11.96875 
Q 20.359375 7.28125 26.46875 7.28125 
Q 32.515625 7.28125 36.609375 11.9375 
Q 40.71875 16.609375 40.71875 26.5625 
Q 40.71875 36.078125 36.5 40.90625 
Q 32.28125 45.75 26.3125 45.75 
Q 20.453125 45.75 16.34375 40.984375 
Q 12.25 36.234375 12.25 26.859375 
z
" id="ArialMT-103"/>
      <path d="M 3.078125 15.484375 
L 11.765625 16.84375 
Q 12.5 11.625 15.84375 8.84375 
Q 19.1875 6.0625 25.203125 6.0625 
Q 31.25 6.0625 34.171875 8.515625 
Q 37.109375 10.984375 37.109375 14.3125 
Q 37.109375 17.28125 34.515625 19 
Q 32.71875 20.171875 25.53125 21.96875 
Q 15.875 24.421875 12.140625 26.203125 
Q 8.40625 27.984375 6.46875 31.125 
Q 4.546875 34.28125 4.546875 38.09375 
Q 4.546875 41.546875 6.125 44.5 
Q 7.71875 47.46875 10.453125 49.421875 
Q 12.5 50.921875 16.03125 51.96875 
Q 19.578125 53.03125 23.640625 53.03125 
Q 29.734375 53.03125 34.34375 51.265625 
Q 38.96875 49.515625 41.15625 46.5 
Q 43.359375 43.5 44.1875 38.484375 
L 35.59375 37.3125 
Q 35.015625 41.3125 32.203125 43.546875 
Q 29.390625 45.796875 24.265625 45.796875 
Q 18.21875 45.796875 15.625 43.796875 
Q 13.03125 41.796875 13.03125 39.109375 
Q 13.03125 37.40625 14.109375 36.03125 
Q 15.1875 34.625 17.484375 33.6875 
Q 18.796875 33.203125 25.25 31.453125 
Q 34.578125 28.953125 38.25 27.359375 
Q 41.9375 25.78125 44.03125 22.75 
Q 46.140625 19.734375 46.140625 15.234375 
Q 46.140625 10.84375 43.578125 6.953125 
Q 41.015625 3.078125 36.171875 0.953125 
Q 31.34375 -1.171875 25.25 -1.171875 
Q 15.140625 -1.171875 9.84375 3.03125 
Q 4.546875 7.234375 3.078125 15.484375 
z
" id="ArialMT-115"/>
      <path d="M 6.390625 0 
L 6.390625 71.578125 
L 15.1875 71.578125 
L 15.1875 0 
z
" id="ArialMT-108"/>
      <path d="M 3.171875 21.484375 
L 3.171875 30.328125 
L 30.171875 30.328125 
L 30.171875 21.484375 
z
" id="ArialMT-45"/>
      <path d="M 7.859375 0 
L 7.859375 71.578125 
L 39.59375 71.578125 
Q 49.171875 71.578125 54.140625 69.640625 
Q 59.125 67.71875 62.109375 62.828125 
Q 65.09375 57.953125 65.09375 52.046875 
Q 65.09375 44.4375 60.15625 39.203125 
Q 55.21875 33.984375 44.921875 32.5625 
Q 48.6875 30.765625 50.640625 29 
Q 54.78125 25.203125 58.5 19.484375 
L 70.953125 0 
L 59.03125 0 
L 49.5625 14.890625 
Q 45.40625 21.34375 42.71875 24.75 
Q 40.046875 28.171875 37.921875 29.53125 
Q 35.796875 30.90625 33.59375 31.453125 
Q 31.984375 31.78125 28.328125 31.78125 
L 17.328125 31.78125 
L 17.328125 0 
z
M 17.328125 39.984375 
L 37.703125 39.984375 
Q 44.1875 39.984375 47.84375 41.328125 
Q 51.515625 42.671875 53.421875 45.625 
Q 55.328125 48.578125 55.328125 52.046875 
Q 55.328125 57.125 51.640625 60.390625 
Q 47.953125 63.671875 39.984375 63.671875 
L 17.328125 63.671875 
z
" id="ArialMT-82"/>
      <path d="M 8.6875 0 
L 8.6875 45.015625 
L 0.921875 45.015625 
L 0.921875 51.859375 
L 8.6875 51.859375 
L 8.6875 57.375 
Q 8.6875 62.59375 9.625 65.140625 
Q 10.890625 68.5625 14.078125 70.671875 
Q 17.28125 72.796875 23.046875 72.796875 
Q 26.765625 72.796875 31.25 71.921875 
L 29.9375 64.265625 
Q 27.203125 64.75 24.75 64.75 
Q 20.75 64.75 19.09375 63.03125 
Q 17.4375 61.328125 17.4375 56.640625 
L 17.4375 51.859375 
L 27.546875 51.859375 
L 27.546875 45.015625 
L 17.4375 45.015625 
L 17.4375 0 
z
" id="ArialMT-102"/>
      <path d="M 1.953125 0 
L 1.953125 7.125 
L 34.96875 45.015625 
Q 29.34375 44.734375 25.046875 44.734375 
L 3.90625 44.734375 
L 3.90625 51.859375 
L 46.296875 51.859375 
L 46.296875 46.046875 
L 18.21875 13.140625 
L 12.796875 7.125 
Q 18.703125 7.5625 23.875 7.5625 
L 47.859375 7.5625 
L 47.859375 0 
z
" id="ArialMT-122"/>
     </defs>
     <use xlink:href="#ArialMT-84"/>
     <use x="57.333984" xlink:href="#ArialMT-114"/>
     <use x="90.634766" xlink:href="#ArialMT-111"/>
     <use x="146.25" xlink:href="#ArialMT-112"/>
     <use x="201.865234" xlink:href="#ArialMT-101"/>
     <use x="257.480469" xlink:href="#ArialMT-110"/>
     <use x="313.095703" xlink:href="#ArialMT-110"/>
     <use x="368.710938" xlink:href="#ArialMT-97"/>
     <use x="424.326172" xlink:href="#ArialMT-99"/>
     <use x="474.326172" xlink:href="#ArialMT-104"/>
     <use x="529.941406" xlink:href="#ArialMT-116"/>
     <use x="557.724609" xlink:href="#ArialMT-32"/>
     <use x="585.507812" xlink:href="#ArialMT-52"/>
     <use x="641.123047" xlink:href="#ArialMT-46"/>
     <use x="668.90625" xlink:href="#ArialMT-32"/>
     <use x="691.189453" xlink:href="#ArialMT-65"/>
     <use x="757.888672" xlink:href="#ArialMT-117"/>
     <use x="813.503906" xlink:href="#ArialMT-103"/>
     <use x="869.119141" xlink:href="#ArialMT-117"/>
     <use x="924.734375" xlink:href="#ArialMT-115"/>
     <use x="974.734375" xlink:href="#ArialMT-116"/>
     <use x="1002.517578" xlink:href="#ArialMT-32"/>
     <use x="1030.300781" xlink:href="#ArialMT-50"/>
     <use x="1085.916016" xlink:href="#ArialMT-48"/>
     <use x="1141.53125" xlink:href="#ArialMT-50"/>
     <use x="1197.146484" xlink:href="#ArialMT-50"/>
     <use x="1252.761719" xlink:href="#ArialMT-58"/>
     <use x="1280.544922" xlink:href="#ArialMT-32"/>
     <use x="1308.328125" xlink:href="#ArialMT-69"/>
     <use x="1375.027344" xlink:href="#ArialMT-114"/>
     <use x="1408.328125" xlink:href="#ArialMT-109"/>
     <use x="1491.628906" xlink:href="#ArialMT-105"/>
     <use x="1513.845703" xlink:href="#ArialMT-116"/>
     <use x="1541.628906" xlink:href="#ArialMT-116"/>
     <use x="1569.412109" xlink:href="#ArialMT-108"/>
     <use x="1591.628906" xlink:href="#ArialMT-117"/>
     <use x="1647.244141" xlink:href="#ArialMT-110"/>
     <use x="1702.859375" xlink:href="#ArialMT-103"/>
     <use x="1758.474609" xlink:href="#ArialMT-32"/>
     <use x="1784.507812" xlink:href="#ArialMT-84"/>
     <use x="1834.466797" xlink:href="#ArialMT-97"/>
     <use x="1890.082031" xlink:href="#ArialMT-103"/>
     <use x="1945.697266" xlink:href="#ArialMT-101"/>
     <use x="2001.3125" xlink:href="#ArialMT-115"/>
     <use x="2051.3125" xlink:href="#ArialMT-45"/>
     <use x="2084.613281" xlink:href="#ArialMT-82"/>
     <use x="2156.830078" xlink:href="#ArialMT-101"/>
     <use x="2212.445312" xlink:href="#ArialMT-102"/>
     <use x="2240.228516" xlink:href="#ArialMT-101"/>
     <use x="2295.84375" xlink:href="#ArialMT-114"/>
     <use x="2329.144531" xlink:href="#ArialMT-101"/>
     <use x="2384.759766" xlink:href="#ArialMT-110"/>
     <use x="2440.375" xlink:href="#ArialMT-122"/>
     <use x="2490.375" xlink:href="#ArialMT-116"/>
     <use x="2518.158203" xlink:href="#ArialMT-101"/>
     <use x="2573.773438" xlink:href="#ArialMT-109"/>
     <use x="2657.074219" xlink:href="#ArialMT-112"/>
     <use x="2712.689453" xlink:href="#ArialMT-101"/>
     <use x="2768.304688" xlink:href="#ArialMT-114"/>
     <use x="2801.605469" xlink:href="#ArialMT-97"/>
     <use x="2857.220703" xlink:href="#ArialMT-116"/>
     <use x="2885.003906" xlink:href="#ArialMT-117"/>
     <use x="2940.619141" xlink:href="#ArialMT-114"/>
    </g>
   </g>
   <g id="legend_1">
    <g id="patch_6">
     <path d="M 545.800692 94.700781 
L 670.233504 94.700781 
Q 672.233504 94.700781 672.233504 92.700781 
L 672.233504 37.119531 
Q 672.233504 35.119531 670.233504 35.119531 
L 545.800692 35.119531 
Q 543.800692 35.119531 543.800692 37.119531 
L 543.800692 92.700781 
Q 543.800692 94.700781 545.800692 94.700781 
z
" style="fill:#ffffff;opacity:0.9;stroke:#07a8ff;stroke-linejoin:miter;stroke-width:0.3;"/>
    </g>
    <g id="line2d_94">
     <path d="M 547.800692 42.777344 
L 567.800692 42.777344 
" style="fill:none;stroke:#006ba4;stroke-linecap:square;stroke-width:1.75;"/>
    </g>
    <g id="line2d_95"/>
    <g id="text_20">
     <!-- W6: Ref. Waldrand 1 -->
     <g style="fill:#262626;" transform="translate(575.800692 46.277344)scale(0.1 -0.1)">
      <defs>
       <path d="M 20.21875 0 
L 1.21875 71.578125 
L 10.9375 71.578125 
L 21.828125 24.65625 
Q 23.578125 17.28125 24.859375 10.015625 
Q 27.59375 21.484375 28.078125 23.25 
L 41.703125 71.578125 
L 53.125 71.578125 
L 63.375 35.359375 
Q 67.234375 21.875 68.953125 10.015625 
Q 70.3125 16.796875 72.515625 25.59375 
L 83.734375 71.578125 
L 93.265625 71.578125 
L 73.640625 0 
L 64.5 0 
L 49.421875 54.546875 
Q 47.515625 61.375 47.171875 62.9375 
Q 46.046875 58.015625 45.0625 54.546875 
L 29.890625 0 
z
" id="ArialMT-87"/>
       <path d="M 40.234375 0 
L 40.234375 6.546875 
Q 35.296875 -1.171875 25.734375 -1.171875 
Q 19.53125 -1.171875 14.328125 2.25 
Q 9.125 5.671875 6.265625 11.796875 
Q 3.421875 17.921875 3.421875 25.875 
Q 3.421875 33.640625 6 39.96875 
Q 8.59375 46.296875 13.765625 49.65625 
Q 18.953125 53.03125 25.34375 53.03125 
Q 30.03125 53.03125 33.6875 51.046875 
Q 37.359375 49.078125 39.65625 45.90625 
L 39.65625 71.578125 
L 48.390625 71.578125 
L 48.390625 0 
z
M 12.453125 25.875 
Q 12.453125 15.921875 16.640625 10.984375 
Q 20.84375 6.0625 26.5625 6.0625 
Q 32.328125 6.0625 36.34375 10.765625 
Q 40.375 15.484375 40.375 25.140625 
Q 40.375 35.796875 36.265625 40.765625 
Q 32.171875 45.75 26.171875 45.75 
Q 20.3125 45.75 16.375 40.96875 
Q 12.453125 36.1875 12.453125 25.875 
z
" id="ArialMT-100"/>
      </defs>
      <use xlink:href="#ArialMT-87"/>
      <use x="94.384766" xlink:href="#ArialMT-54"/>
      <use x="150" xlink:href="#ArialMT-58"/>
      <use x="177.783203" xlink:href="#ArialMT-32"/>
      <use x="205.566406" xlink:href="#ArialMT-82"/>
      <use x="277.783203" xlink:href="#ArialMT-101"/>
      <use x="333.398438" xlink:href="#ArialMT-102"/>
      <use x="361.181641" xlink:href="#ArialMT-46"/>
      <use x="388.964844" xlink:href="#ArialMT-32"/>
      <use x="416.748047" xlink:href="#ArialMT-87"/>
      <use x="507.382812" xlink:href="#ArialMT-97"/>
      <use x="562.998047" xlink:href="#ArialMT-108"/>
      <use x="585.214844" xlink:href="#ArialMT-100"/>
      <use x="640.830078" xlink:href="#ArialMT-114"/>
      <use x="674.130859" xlink:href="#ArialMT-97"/>
      <use x="729.746094" xlink:href="#ArialMT-110"/>
      <use x="785.361328" xlink:href="#ArialMT-100"/>
      <use x="840.976562" xlink:href="#ArialMT-32"/>
      <use x="868.759766" xlink:href="#ArialMT-49"/>
     </g>
    </g>
    <g id="line2d_96">
     <path d="M 547.800692 56.922656 
L 567.800692 56.922656 
" style="fill:none;stroke:#ff800e;stroke-linecap:square;stroke-width:1.75;"/>
    </g>
    <g id="line2d_97"/>
    <g id="text_21">
     <!-- W7: Ref. Waldrand 2 -->
     <g style="fill:#262626;" transform="translate(575.800692 60.422656)scale(0.1 -0.1)">
      <use xlink:href="#ArialMT-87"/>
      <use x="94.384766" xlink:href="#ArialMT-55"/>
      <use x="150" xlink:href="#ArialMT-58"/>
      <use x="177.783203" xlink:href="#ArialMT-32"/>
      <use x="205.566406" xlink:href="#ArialMT-82"/>
      <use x="277.783203" xlink:href="#ArialMT-101"/>
      <use x="333.398438" xlink:href="#ArialMT-102"/>
      <use x="361.181641" xlink:href="#ArialMT-46"/>
      <use x="388.964844" xlink:href="#ArialMT-32"/>
      <use x="416.748047" xlink:href="#ArialMT-87"/>
      <use x="507.382812" xlink:href="#ArialMT-97"/>
      <use x="562.998047" xlink:href="#ArialMT-108"/>
      <use x="585.214844" xlink:href="#ArialMT-100"/>
      <use x="640.830078" xlink:href="#ArialMT-114"/>
      <use x="674.130859" xlink:href="#ArialMT-97"/>
      <use x="729.746094" xlink:href="#ArialMT-110"/>
      <use x="785.361328" xlink:href="#ArialMT-100"/>
      <use x="840.976562" xlink:href="#ArialMT-32"/>
      <use x="868.759766" xlink:href="#ArialMT-50"/>
     </g>
    </g>
    <g id="line2d_98">
     <path d="M 547.800692 71.067969 
L 567.800692 71.067969 
" style="fill:none;stroke:#ababab;stroke-linecap:square;stroke-width:1.75;"/>
    </g>
    <g id="line2d_99"/>
    <g id="text_22">
     <!-- W8: Ref. Quartier -->
     <g style="fill:#262626;" transform="translate(575.800692 74.567969)scale(0.1 -0.1)">
      <defs>
       <path d="M 61.96875 7.671875 
Q 68.5625 3.125 74.125 1.03125 
L 71.34375 -5.5625 
Q 63.625 -2.78125 55.953125 3.21875 
Q 48 -1.21875 38.375 -1.21875 
Q 28.65625 -1.21875 20.75 3.46875 
Q 12.84375 8.15625 8.5625 16.640625 
Q 4.296875 25.140625 4.296875 35.796875 
Q 4.296875 46.390625 8.59375 55.078125 
Q 12.890625 63.765625 20.828125 68.3125 
Q 28.765625 72.859375 38.578125 72.859375 
Q 48.484375 72.859375 56.4375 68.140625 
Q 64.40625 63.421875 68.578125 54.953125 
Q 72.75 46.484375 72.75 35.84375 
Q 72.75 27 70.0625 19.9375 
Q 67.390625 12.890625 61.96875 7.671875 
z
M 41.109375 19.78125 
Q 49.3125 17.484375 54.640625 12.9375 
Q 62.984375 20.5625 62.984375 35.84375 
Q 62.984375 44.53125 60.03125 51.015625 
Q 57.078125 57.515625 51.390625 61.109375 
Q 45.703125 64.703125 38.625 64.703125 
Q 28.03125 64.703125 21.046875 57.453125 
Q 14.0625 50.203125 14.0625 35.796875 
Q 14.0625 21.828125 20.96875 14.359375 
Q 27.875 6.890625 38.625 6.890625 
Q 43.703125 6.890625 48.1875 8.796875 
Q 43.75 11.671875 38.8125 12.890625 
z
" id="ArialMT-81"/>
      </defs>
      <use xlink:href="#ArialMT-87"/>
      <use x="94.384766" xlink:href="#ArialMT-56"/>
      <use x="150" xlink:href="#ArialMT-58"/>
      <use x="177.783203" xlink:href="#ArialMT-32"/>
      <use x="205.566406" xlink:href="#ArialMT-82"/>
      <use x="277.783203" xlink:href="#ArialMT-101"/>
      <use x="333.398438" xlink:href="#ArialMT-102"/>
      <use x="361.181641" xlink:href="#ArialMT-46"/>
      <use x="388.964844" xlink:href="#ArialMT-32"/>
      <use x="416.748047" xlink:href="#ArialMT-81"/>
      <use x="494.53125" xlink:href="#ArialMT-117"/>
      <use x="550.146484" xlink:href="#ArialMT-97"/>
      <use x="605.761719" xlink:href="#ArialMT-114"/>
      <use x="639.0625" xlink:href="#ArialMT-116"/>
      <use x="666.845703" xlink:href="#ArialMT-105"/>
      <use x="689.0625" xlink:href="#ArialMT-101"/>
      <use x="744.677734" xlink:href="#ArialMT-114"/>
     </g>
    </g>
    <g id="line2d_100">
     <path d="M 547.800692 85.213281 
L 567.800692 85.213281 
" style="fill:none;stroke:#595959;stroke-linecap:square;stroke-width:1.75;"/>
    </g>
    <g id="line2d_101"/>
    <g id="text_23">
     <!-- W9: Ref. Wald -->
     <g style="fill:#262626;" transform="translate(575.800692 88.713281)scale(0.1 -0.1)">
      <use xlink:href="#ArialMT-87"/>
      <use x="94.384766" xlink:href="#ArialMT-57"/>
      <use x="150" xlink:href="#ArialMT-58"/>
      <use x="177.783203" xlink:href="#ArialMT-32"/>
      <use x="205.566406" xlink:href="#ArialMT-82"/>
      <use x="277.783203" xlink:href="#ArialMT-101"/>
      <use x="333.398438" xlink:href="#ArialMT-102"/>
      <use x="361.181641" xlink:href="#ArialMT-46"/>
      <use x="388.964844" xlink:href="#ArialMT-32"/>
      <use x="416.748047" xlink:href="#ArialMT-87"/>
      <use x="507.382812" xlink:href="#ArialMT-97"/>
      <use x="562.998047" xlink:href="#ArialMT-108"/>
      <use x="585.214844" xlink:href="#ArialMT-100"/>
     </g>
    </g>
   </g>
  </g>
 </g>
 <defs>
  <clipPath id="pb683fb1223">
   <rect height="325.388571" width="625.864286" x="51.369219" y="30.119531"/>
  </clipPath>
 </defs>
</svg>
